<mxfile host="app.diagrams.net" modified="2020-03-16T23:40:51.905Z" agent="Mozilla/5.0 (Windows NT 10.0; Win64; x64; rv:74.0) Gecko/20100101 Firefox/74.0" etag="_vEOjeIiFQ-SF3Khpcgs" version="12.8.5" type="github" pages="2">
  <diagram id="SYTHjtMpK-lxZB77moKc" name="UML">
    <mxGraphModel dx="2207" dy="575" grid="1" gridSize="10" guides="1" tooltips="1" connect="1" arrows="1" fold="1" page="1" pageScale="1" pageWidth="1169" pageHeight="827" math="0" shadow="0">
      <root>
        <mxCell id="0" />
        <mxCell id="1" parent="0" />
        <mxCell id="gjvjtqKwHrj_c5IjCsw3-107" value="&lt;font style=&quot;font-size: 14px&quot;&gt;0..*&lt;/font&gt;" style="resizable=0;html=1;align=left;verticalAlign=top;labelBackgroundColor=#ffffff;fontSize=10;" parent="1" connectable="0" vertex="1">
          <mxGeometry x="-749.9960000000001" y="1394.708" as="geometry">
            <mxPoint x="-84" y="-25" as="offset" />
          </mxGeometry>
        </mxCell>
        <mxCell id="MiK0NScsfOHQg_DPSbVj-1" value="Route" style="swimlane;fontStyle=1;align=center;verticalAlign=top;childLayout=stackLayout;horizontal=1;startSize=26;horizontalStack=0;resizeParent=1;resizeParentMax=0;resizeLast=0;collapsible=1;marginBottom=0;" parent="1" vertex="1">
          <mxGeometry x="-1160" y="1280" width="280" height="336" as="geometry" />
        </mxCell>
        <mxCell id="MiK0NScsfOHQg_DPSbVj-6" value="- longueur: int" style="text;strokeColor=none;fillColor=none;align=left;verticalAlign=top;spacingLeft=4;spacingRight=4;overflow=hidden;rotatable=0;points=[[0,0.5],[1,0.5]];portConstraint=eastwest;" parent="MiK0NScsfOHQg_DPSbVj-1" vertex="1">
          <mxGeometry y="26" width="280" height="26" as="geometry" />
        </mxCell>
        <mxCell id="MiK0NScsfOHQg_DPSbVj-7" value="- pheromone: float" style="text;strokeColor=none;fillColor=none;align=left;verticalAlign=top;spacingLeft=4;spacingRight=4;overflow=hidden;rotatable=0;points=[[0,0.5],[1,0.5]];portConstraint=eastwest;" parent="MiK0NScsfOHQg_DPSbVj-1" vertex="1">
          <mxGeometry y="52" width="280" height="26" as="geometry" />
        </mxCell>
        <mxCell id="MiK0NScsfOHQg_DPSbVj-8" value="- premiere: Ville" style="text;strokeColor=none;fillColor=none;align=left;verticalAlign=top;spacingLeft=4;spacingRight=4;overflow=hidden;rotatable=0;points=[[0,0.5],[1,0.5]];portConstraint=eastwest;" parent="MiK0NScsfOHQg_DPSbVj-1" vertex="1">
          <mxGeometry y="78" width="280" height="26" as="geometry" />
        </mxCell>
        <mxCell id="MiK0NScsfOHQg_DPSbVj-2" value="- seconde: Ville" style="text;strokeColor=none;fillColor=none;align=left;verticalAlign=top;spacingLeft=4;spacingRight=4;overflow=hidden;rotatable=0;points=[[0,0.5],[1,0.5]];portConstraint=eastwest;" parent="MiK0NScsfOHQg_DPSbVj-1" vertex="1">
          <mxGeometry y="104" width="280" height="26" as="geometry" />
        </mxCell>
        <mxCell id="MiK0NScsfOHQg_DPSbVj-3" value="" style="line;strokeWidth=1;fillColor=none;align=left;verticalAlign=middle;spacingTop=-1;spacingLeft=3;spacingRight=3;rotatable=0;labelPosition=right;points=[];portConstraint=eastwest;" parent="MiK0NScsfOHQg_DPSbVj-1" vertex="1">
          <mxGeometry y="130" width="280" height="8" as="geometry" />
        </mxCell>
        <mxCell id="MiK0NScsfOHQg_DPSbVj-4" value="+ init(longueur:int, pheromone:float, &#xa;          premiereVille:Ville, secondeVille:Ville)" style="text;strokeColor=none;fillColor=none;align=left;verticalAlign=top;spacingLeft=4;spacingRight=4;overflow=hidden;rotatable=0;points=[[0,0.5],[1,0.5]];portConstraint=eastwest;" parent="MiK0NScsfOHQg_DPSbVj-1" vertex="1">
          <mxGeometry y="138" width="280" height="42" as="geometry" />
        </mxCell>
        <mxCell id="gjvjtqKwHrj_c5IjCsw3-1" value="+ getLongueur(): longueur: int " style="text;strokeColor=none;fillColor=none;align=left;verticalAlign=top;spacingLeft=4;spacingRight=4;overflow=hidden;rotatable=0;points=[[0,0.5],[1,0.5]];portConstraint=eastwest;" parent="MiK0NScsfOHQg_DPSbVj-1" vertex="1">
          <mxGeometry y="180" width="280" height="26" as="geometry" />
        </mxCell>
        <mxCell id="gjvjtqKwHrj_c5IjCsw3-3" value="+ getPheromone(): pheromone: float" style="text;strokeColor=none;fillColor=none;align=left;verticalAlign=top;spacingLeft=4;spacingRight=4;overflow=hidden;rotatable=0;points=[[0,0.5],[1,0.5]];portConstraint=eastwest;" parent="MiK0NScsfOHQg_DPSbVj-1" vertex="1">
          <mxGeometry y="206" width="280" height="26" as="geometry" />
        </mxCell>
        <mxCell id="gjvjtqKwHrj_c5IjCsw3-4" value="+ getPremiereVille(): premiereVille: Ville " style="text;strokeColor=none;fillColor=none;align=left;verticalAlign=top;spacingLeft=4;spacingRight=4;overflow=hidden;rotatable=0;points=[[0,0.5],[1,0.5]];portConstraint=eastwest;" parent="MiK0NScsfOHQg_DPSbVj-1" vertex="1">
          <mxGeometry y="232" width="280" height="26" as="geometry" />
        </mxCell>
        <mxCell id="gjvjtqKwHrj_c5IjCsw3-6" value="+ getSecondeVille(): secondeVille: Ville " style="text;strokeColor=none;fillColor=none;align=left;verticalAlign=top;spacingLeft=4;spacingRight=4;overflow=hidden;rotatable=0;points=[[0,0.5],[1,0.5]];portConstraint=eastwest;" parent="MiK0NScsfOHQg_DPSbVj-1" vertex="1">
          <mxGeometry y="258" width="280" height="26" as="geometry" />
        </mxCell>
        <mxCell id="MiK0NScsfOHQg_DPSbVj-9" value="+ evaporer_Pheromone(tauxEvaporation: float)" style="text;strokeColor=none;fillColor=none;align=left;verticalAlign=top;spacingLeft=4;spacingRight=4;overflow=hidden;rotatable=0;points=[[0,0.5],[1,0.5]];portConstraint=eastwest;" parent="MiK0NScsfOHQg_DPSbVj-1" vertex="1">
          <mxGeometry y="284" width="280" height="26" as="geometry" />
        </mxCell>
        <mxCell id="gjvjtqKwHrj_c5IjCsw3-7" value="+ isRoute(isRoute:bool)" style="text;strokeColor=none;fillColor=none;align=left;verticalAlign=top;spacingLeft=4;spacingRight=4;overflow=hidden;rotatable=0;points=[[0,0.5],[1,0.5]];portConstraint=eastwest;" parent="MiK0NScsfOHQg_DPSbVj-1" vertex="1">
          <mxGeometry y="310" width="280" height="26" as="geometry" />
        </mxCell>
        <mxCell id="gjvjtqKwHrj_c5IjCsw3-8" value="Ville" style="swimlane;fontStyle=1;align=center;verticalAlign=top;childLayout=stackLayout;horizontal=1;startSize=26;horizontalStack=0;resizeParent=1;resizeParentMax=0;resizeLast=0;collapsible=1;marginBottom=0;" parent="1" vertex="1">
          <mxGeometry x="-400" y="1362" width="320" height="164" as="geometry" />
        </mxCell>
        <mxCell id="gjvjtqKwHrj_c5IjCsw3-9" value="- x: int" style="text;strokeColor=none;fillColor=none;align=left;verticalAlign=top;spacingLeft=4;spacingRight=4;overflow=hidden;rotatable=0;points=[[0,0.5],[1,0.5]];portConstraint=eastwest;" parent="gjvjtqKwHrj_c5IjCsw3-8" vertex="1">
          <mxGeometry y="26" width="320" height="26" as="geometry" />
        </mxCell>
        <mxCell id="gjvjtqKwHrj_c5IjCsw3-10" value="- y: int" style="text;strokeColor=none;fillColor=none;align=left;verticalAlign=top;spacingLeft=4;spacingRight=4;overflow=hidden;rotatable=0;points=[[0,0.5],[1,0.5]];portConstraint=eastwest;" parent="gjvjtqKwHrj_c5IjCsw3-8" vertex="1">
          <mxGeometry y="52" width="320" height="26" as="geometry" />
        </mxCell>
        <mxCell id="gjvjtqKwHrj_c5IjCsw3-11" value="- nom: string" style="text;strokeColor=none;fillColor=none;align=left;verticalAlign=top;spacingLeft=4;spacingRight=4;overflow=hidden;rotatable=0;points=[[0,0.5],[1,0.5]];portConstraint=eastwest;" parent="gjvjtqKwHrj_c5IjCsw3-8" vertex="1">
          <mxGeometry y="78" width="320" height="26" as="geometry" />
        </mxCell>
        <mxCell id="gjvjtqKwHrj_c5IjCsw3-13" value="" style="line;strokeWidth=1;fillColor=none;align=left;verticalAlign=middle;spacingTop=-1;spacingLeft=3;spacingRight=3;rotatable=0;labelPosition=right;points=[];portConstraint=eastwest;" parent="gjvjtqKwHrj_c5IjCsw3-8" vertex="1">
          <mxGeometry y="104" width="320" height="8" as="geometry" />
        </mxCell>
        <mxCell id="gjvjtqKwHrj_c5IjCsw3-14" value="+ init(x:int, y:int, nom:string)" style="text;strokeColor=none;fillColor=none;align=left;verticalAlign=top;spacingLeft=4;spacingRight=4;overflow=hidden;rotatable=0;points=[[0,0.5],[1,0.5]];portConstraint=eastwest;" parent="gjvjtqKwHrj_c5IjCsw3-8" vertex="1">
          <mxGeometry y="112" width="320" height="26" as="geometry" />
        </mxCell>
        <mxCell id="gjvjtqKwHrj_c5IjCsw3-15" value="+ mesAretes(): aretesConectees: list[Routes]" style="text;strokeColor=none;fillColor=none;align=left;verticalAlign=top;spacingLeft=4;spacingRight=4;overflow=hidden;rotatable=0;points=[[0,0.5],[1,0.5]];portConstraint=eastwest;" parent="gjvjtqKwHrj_c5IjCsw3-8" vertex="1">
          <mxGeometry y="138" width="320" height="26" as="geometry" />
        </mxCell>
        <mxCell id="gjvjtqKwHrj_c5IjCsw3-21" value="Ant" style="swimlane;fontStyle=1;align=center;verticalAlign=top;childLayout=stackLayout;horizontal=1;startSize=26;horizontalStack=0;resizeParent=1;resizeParentMax=0;resizeLast=0;collapsible=1;marginBottom=0;" parent="1" vertex="1">
          <mxGeometry x="-800" y="700" width="320" height="736" as="geometry" />
        </mxCell>
        <mxCell id="gjvjtqKwHrj_c5IjCsw3-22" value="- alpha: float" style="text;strokeColor=none;fillColor=none;align=left;verticalAlign=top;spacingLeft=4;spacingRight=4;overflow=hidden;rotatable=0;points=[[0,0.5],[1,0.5]];portConstraint=eastwest;" parent="gjvjtqKwHrj_c5IjCsw3-21" vertex="1">
          <mxGeometry y="26" width="320" height="26" as="geometry" />
        </mxCell>
        <mxCell id="gjvjtqKwHrj_c5IjCsw3-34" value="- beta: float" style="text;strokeColor=none;fillColor=none;align=left;verticalAlign=top;spacingLeft=4;spacingRight=4;overflow=hidden;rotatable=0;points=[[0,0.5],[1,0.5]];portConstraint=eastwest;" parent="gjvjtqKwHrj_c5IjCsw3-21" vertex="1">
          <mxGeometry y="52" width="320" height="26" as="geometry" />
        </mxCell>
        <mxCell id="gjvjtqKwHrj_c5IjCsw3-35" value="- gamma: float" style="text;strokeColor=none;fillColor=none;align=left;verticalAlign=top;spacingLeft=4;spacingRight=4;overflow=hidden;rotatable=0;points=[[0,0.5],[1,0.5]];portConstraint=eastwest;" parent="gjvjtqKwHrj_c5IjCsw3-21" vertex="1">
          <mxGeometry y="78" width="320" height="26" as="geometry" />
        </mxCell>
        <mxCell id="gjvjtqKwHrj_c5IjCsw3-23" value="- porteFood: bool" style="text;strokeColor=none;fillColor=none;align=left;verticalAlign=top;spacingLeft=4;spacingRight=4;overflow=hidden;rotatable=0;points=[[0,0.5],[1,0.5]];portConstraint=eastwest;" parent="gjvjtqKwHrj_c5IjCsw3-21" vertex="1">
          <mxGeometry y="104" width="320" height="26" as="geometry" />
        </mxCell>
        <mxCell id="gjvjtqKwHrj_c5IjCsw3-24" value="- nouritureCollectee: int" style="text;strokeColor=none;fillColor=none;align=left;verticalAlign=top;spacingLeft=4;spacingRight=4;overflow=hidden;rotatable=0;points=[[0,0.5],[1,0.5]];portConstraint=eastwest;" parent="gjvjtqKwHrj_c5IjCsw3-21" vertex="1">
          <mxGeometry y="130" width="320" height="26" as="geometry" />
        </mxCell>
        <mxCell id="gjvjtqKwHrj_c5IjCsw3-36" value="- nbFoisSurMemeRoute: int" style="text;strokeColor=none;fillColor=none;align=left;verticalAlign=top;spacingLeft=4;spacingRight=4;overflow=hidden;rotatable=0;points=[[0,0.5],[1,0.5]];portConstraint=eastwest;" parent="gjvjtqKwHrj_c5IjCsw3-21" vertex="1">
          <mxGeometry y="156" width="320" height="26" as="geometry" />
        </mxCell>
        <mxCell id="gjvjtqKwHrj_c5IjCsw3-38" value="- positionRoute: int" style="text;strokeColor=none;fillColor=none;align=left;verticalAlign=top;spacingLeft=4;spacingRight=4;overflow=hidden;rotatable=0;points=[[0,0.5],[1,0.5]];portConstraint=eastwest;" parent="gjvjtqKwHrj_c5IjCsw3-21" vertex="1">
          <mxGeometry y="182" width="320" height="26" as="geometry" />
        </mxCell>
        <mxCell id="gjvjtqKwHrj_c5IjCsw3-94" value="Relation" style="endArrow=none;html=1;endSize=12;startArrow=diamond;startSize=14;startFill=0;endFill=0;noLabel=1;fontColor=none;exitX=0.001;exitY=0.93;exitDx=0;exitDy=0;exitPerimeter=0;entryX=0.5;entryY=0;entryDx=0;entryDy=0;" parent="gjvjtqKwHrj_c5IjCsw3-21" target="gjvjtqKwHrj_c5IjCsw3-8" edge="1">
          <mxGeometry relative="1" as="geometry">
            <mxPoint x="319.99999999999994" y="-53.819999999999936" as="sourcePoint" />
            <mxPoint x="550" y="580" as="targetPoint" />
          </mxGeometry>
        </mxCell>
        <mxCell id="gjvjtqKwHrj_c5IjCsw3-95" value="1..*" style="resizable=0;html=1;align=left;verticalAlign=top;labelBackgroundColor=#ffffff;fontSize=14;" parent="gjvjtqKwHrj_c5IjCsw3-94" connectable="0" vertex="1">
          <mxGeometry x="-1" relative="1" as="geometry">
            <mxPoint x="-249.04" y="199.01" as="offset" />
          </mxGeometry>
        </mxCell>
        <mxCell id="gjvjtqKwHrj_c5IjCsw3-96" value="" style="resizable=0;html=1;align=right;verticalAlign=top;labelBackgroundColor=#ffffff;fontSize=10;" parent="gjvjtqKwHrj_c5IjCsw3-94" connectable="0" vertex="1">
          <mxGeometry x="1" relative="1" as="geometry" />
        </mxCell>
        <mxCell id="gjvjtqKwHrj_c5IjCsw3-39" value="- routeActuel: Route" style="text;strokeColor=none;fillColor=none;align=left;verticalAlign=top;spacingLeft=4;spacingRight=4;overflow=hidden;rotatable=0;points=[[0,0.5],[1,0.5]];portConstraint=eastwest;" parent="gjvjtqKwHrj_c5IjCsw3-21" vertex="1">
          <mxGeometry y="208" width="320" height="26" as="geometry" />
        </mxCell>
        <mxCell id="gjvjtqKwHrj_c5IjCsw3-25" value="- distanceParcorue: int" style="text;strokeColor=none;fillColor=none;align=left;verticalAlign=top;spacingLeft=4;spacingRight=4;overflow=hidden;rotatable=0;points=[[0,0.5],[1,0.5]];portConstraint=eastwest;" parent="gjvjtqKwHrj_c5IjCsw3-21" vertex="1">
          <mxGeometry y="234" width="320" height="26" as="geometry" />
        </mxCell>
        <mxCell id="gjvjtqKwHrj_c5IjCsw3-37" value="- listVilles: list[Ville]" style="text;strokeColor=none;fillColor=none;align=left;verticalAlign=top;spacingLeft=4;spacingRight=4;overflow=hidden;rotatable=0;points=[[0,0.5],[1,0.5]];portConstraint=eastwest;" parent="gjvjtqKwHrj_c5IjCsw3-21" vertex="1">
          <mxGeometry y="260" width="320" height="26" as="geometry" />
        </mxCell>
        <mxCell id="gjvjtqKwHrj_c5IjCsw3-26" value="" style="line;strokeWidth=1;fillColor=none;align=left;verticalAlign=middle;spacingTop=-1;spacingLeft=3;spacingRight=3;rotatable=0;labelPosition=right;points=[];portConstraint=eastwest;" parent="gjvjtqKwHrj_c5IjCsw3-21" vertex="1">
          <mxGeometry y="286" width="320" height="8" as="geometry" />
        </mxCell>
        <mxCell id="gjvjtqKwHrj_c5IjCsw3-27" value="+ init(lvilleNid:Ville)" style="text;strokeColor=none;fillColor=none;align=left;verticalAlign=top;spacingLeft=4;spacingRight=4;overflow=hidden;rotatable=0;points=[[0,0.5],[1,0.5]];portConstraint=eastwest;" parent="gjvjtqKwHrj_c5IjCsw3-21" vertex="1">
          <mxGeometry y="294" width="320" height="26" as="geometry" />
        </mxCell>
        <mxCell id="gjvjtqKwHrj_c5IjCsw3-28" value="+ crossover(mere: Ant, pere: Ant):  " style="text;strokeColor=none;fillColor=none;align=left;verticalAlign=top;spacingLeft=4;spacingRight=4;overflow=hidden;rotatable=0;points=[[0,0.5],[1,0.5]];portConstraint=eastwest;" parent="gjvjtqKwHrj_c5IjCsw3-21" vertex="1">
          <mxGeometry y="320" width="320" height="26" as="geometry" />
        </mxCell>
        <mxCell id="gjvjtqKwHrj_c5IjCsw3-29" value="+ mutation(): pheromone: float" style="text;strokeColor=none;fillColor=none;align=left;verticalAlign=top;spacingLeft=4;spacingRight=4;overflow=hidden;rotatable=0;points=[[0,0.5],[1,0.5]];portConstraint=eastwest;" parent="gjvjtqKwHrj_c5IjCsw3-21" vertex="1">
          <mxGeometry y="346" width="320" height="26" as="geometry" />
        </mxCell>
        <mxCell id="gjvjtqKwHrj_c5IjCsw3-40" value="+ getAlpha(): alpha: float " style="text;strokeColor=none;fillColor=none;align=left;verticalAlign=top;spacingLeft=4;spacingRight=4;overflow=hidden;rotatable=0;points=[[0,0.5],[1,0.5]];portConstraint=eastwest;" parent="gjvjtqKwHrj_c5IjCsw3-21" vertex="1">
          <mxGeometry y="372" width="320" height="26" as="geometry" />
        </mxCell>
        <mxCell id="gjvjtqKwHrj_c5IjCsw3-41" value="+ getBeta(): beta: float " style="text;strokeColor=none;fillColor=none;align=left;verticalAlign=top;spacingLeft=4;spacingRight=4;overflow=hidden;rotatable=0;points=[[0,0.5],[1,0.5]];portConstraint=eastwest;" parent="gjvjtqKwHrj_c5IjCsw3-21" vertex="1">
          <mxGeometry y="398" width="320" height="26" as="geometry" />
        </mxCell>
        <mxCell id="gjvjtqKwHrj_c5IjCsw3-42" value="+ getGamma(): gamma: float " style="text;strokeColor=none;fillColor=none;align=left;verticalAlign=top;spacingLeft=4;spacingRight=4;overflow=hidden;rotatable=0;points=[[0,0.5],[1,0.5]];portConstraint=eastwest;" parent="gjvjtqKwHrj_c5IjCsw3-21" vertex="1">
          <mxGeometry y="424" width="320" height="26" as="geometry" />
        </mxCell>
        <mxCell id="gjvjtqKwHrj_c5IjCsw3-43" value="+ getPorteFood(): porteFood: bool " style="text;strokeColor=none;fillColor=none;align=left;verticalAlign=top;spacingLeft=4;spacingRight=4;overflow=hidden;rotatable=0;points=[[0,0.5],[1,0.5]];portConstraint=eastwest;" parent="gjvjtqKwHrj_c5IjCsw3-21" vertex="1">
          <mxGeometry y="450" width="320" height="26" as="geometry" />
        </mxCell>
        <mxCell id="gjvjtqKwHrj_c5IjCsw3-44" value="+ getNbFoisSurMemeRoute(): nombreFoisSurMemeRoute: int " style="text;strokeColor=none;fillColor=none;align=left;verticalAlign=top;spacingLeft=4;spacingRight=4;overflow=hidden;rotatable=0;points=[[0,0.5],[1,0.5]];portConstraint=eastwest;" parent="gjvjtqKwHrj_c5IjCsw3-21" vertex="1">
          <mxGeometry y="476" width="320" height="26" as="geometry" />
        </mxCell>
        <mxCell id="gjvjtqKwHrj_c5IjCsw3-30" value="+ getvilleDestination(): villeDestination:Ville " style="text;strokeColor=none;fillColor=none;align=left;verticalAlign=top;spacingLeft=4;spacingRight=4;overflow=hidden;rotatable=0;points=[[0,0.5],[1,0.5]];portConstraint=eastwest;" parent="gjvjtqKwHrj_c5IjCsw3-21" vertex="1">
          <mxGeometry y="502" width="320" height="26" as="geometry" />
        </mxCell>
        <mxCell id="gjvjtqKwHrj_c5IjCsw3-31" value="+ avancer(): bool " style="text;strokeColor=none;fillColor=none;align=left;verticalAlign=top;spacingLeft=4;spacingRight=4;overflow=hidden;rotatable=0;points=[[0,0.5],[1,0.5]];portConstraint=eastwest;" parent="gjvjtqKwHrj_c5IjCsw3-21" vertex="1">
          <mxGeometry y="528" width="320" height="26" as="geometry" />
        </mxCell>
        <mxCell id="gjvjtqKwHrj_c5IjCsw3-46" value="+ addVilleMemoire() " style="text;strokeColor=none;fillColor=none;align=left;verticalAlign=top;spacingLeft=4;spacingRight=4;overflow=hidden;rotatable=0;points=[[0,0.5],[1,0.5]];portConstraint=eastwest;" parent="gjvjtqKwHrj_c5IjCsw3-21" vertex="1">
          <mxGeometry y="554" width="320" height="26" as="geometry" />
        </mxCell>
        <mxCell id="gjvjtqKwHrj_c5IjCsw3-47" value="+ delVilleMemoire() " style="text;strokeColor=none;fillColor=none;align=left;verticalAlign=top;spacingLeft=4;spacingRight=4;overflow=hidden;rotatable=0;points=[[0,0.5],[1,0.5]];portConstraint=eastwest;" parent="gjvjtqKwHrj_c5IjCsw3-21" vertex="1">
          <mxGeometry y="580" width="320" height="26" as="geometry" />
        </mxCell>
        <mxCell id="gjvjtqKwHrj_c5IjCsw3-49" value="+ prendreFood() " style="text;strokeColor=none;fillColor=none;align=left;verticalAlign=top;spacingLeft=4;spacingRight=4;overflow=hidden;rotatable=0;points=[[0,0.5],[1,0.5]];portConstraint=eastwest;" parent="gjvjtqKwHrj_c5IjCsw3-21" vertex="1">
          <mxGeometry y="606" width="320" height="26" as="geometry" />
        </mxCell>
        <mxCell id="gjvjtqKwHrj_c5IjCsw3-48" value="+ deposerFood() " style="text;strokeColor=none;fillColor=none;align=left;verticalAlign=top;spacingLeft=4;spacingRight=4;overflow=hidden;rotatable=0;points=[[0,0.5],[1,0.5]];portConstraint=eastwest;" parent="gjvjtqKwHrj_c5IjCsw3-21" vertex="1">
          <mxGeometry y="632" width="320" height="26" as="geometry" />
        </mxCell>
        <mxCell id="gjvjtqKwHrj_c5IjCsw3-32" value="+ getTendance(pheromone: float): pheromoneLevel: float" style="text;strokeColor=none;fillColor=none;align=left;verticalAlign=top;spacingLeft=4;spacingRight=4;overflow=hidden;rotatable=0;points=[[0,0.5],[1,0.5]];portConstraint=eastwest;" parent="gjvjtqKwHrj_c5IjCsw3-21" vertex="1">
          <mxGeometry y="658" width="320" height="26" as="geometry" />
        </mxCell>
        <mxCell id="gjvjtqKwHrj_c5IjCsw3-33" value="+ choixArete(liste[Routes])" style="text;strokeColor=none;fillColor=none;align=left;verticalAlign=top;spacingLeft=4;spacingRight=4;overflow=hidden;rotatable=0;points=[[0,0.5],[1,0.5]];portConstraint=eastwest;" parent="gjvjtqKwHrj_c5IjCsw3-21" vertex="1">
          <mxGeometry y="684" width="320" height="26" as="geometry" />
        </mxCell>
        <mxCell id="gjvjtqKwHrj_c5IjCsw3-50" value="+ deposerPheromone(): pheromone: float " style="text;strokeColor=none;fillColor=none;align=left;verticalAlign=top;spacingLeft=4;spacingRight=4;overflow=hidden;rotatable=0;points=[[0,0.5],[1,0.5]];portConstraint=eastwest;" parent="gjvjtqKwHrj_c5IjCsw3-21" vertex="1">
          <mxGeometry y="710" width="320" height="26" as="geometry" />
        </mxCell>
        <mxCell id="gjvjtqKwHrj_c5IjCsw3-51" value="Civilisation" style="swimlane;fontStyle=1;align=center;verticalAlign=top;childLayout=stackLayout;horizontal=1;startSize=26;horizontalStack=0;resizeParent=1;resizeParentMax=0;resizeLast=0;collapsible=1;marginBottom=0;" parent="1" vertex="1">
          <mxGeometry x="-800" y="240" width="320" height="408" as="geometry" />
        </mxCell>
        <mxCell id="gjvjtqKwHrj_c5IjCsw3-64" value="- nom: string" style="text;strokeColor=none;fillColor=none;align=left;verticalAlign=top;spacingLeft=4;spacingRight=4;overflow=hidden;rotatable=0;points=[[0,0.5],[1,0.5]];portConstraint=eastwest;" parent="gjvjtqKwHrj_c5IjCsw3-51" vertex="1">
          <mxGeometry y="26" width="320" height="26" as="geometry" />
        </mxCell>
        <mxCell id="gjvjtqKwHrj_c5IjCsw3-66" value="- villeNid: Ville" style="text;strokeColor=none;fillColor=none;align=left;verticalAlign=top;spacingLeft=4;spacingRight=4;overflow=hidden;rotatable=0;points=[[0,0.5],[1,0.5]];portConstraint=eastwest;" parent="gjvjtqKwHrj_c5IjCsw3-51" vertex="1">
          <mxGeometry y="52" width="320" height="26" as="geometry" />
        </mxCell>
        <mxCell id="gjvjtqKwHrj_c5IjCsw3-82" value="- villeFood: Ville" style="text;strokeColor=none;fillColor=none;align=left;verticalAlign=top;spacingLeft=4;spacingRight=4;overflow=hidden;rotatable=0;points=[[0,0.5],[1,0.5]];portConstraint=eastwest;" parent="gjvjtqKwHrj_c5IjCsw3-51" vertex="1">
          <mxGeometry y="78" width="320" height="26" as="geometry" />
        </mxCell>
        <mxCell id="gjvjtqKwHrj_c5IjCsw3-52" value="- nIndividus: int" style="text;strokeColor=none;fillColor=none;align=left;verticalAlign=top;spacingLeft=4;spacingRight=4;overflow=hidden;rotatable=0;points=[[0,0.5],[1,0.5]];portConstraint=eastwest;" parent="gjvjtqKwHrj_c5IjCsw3-51" vertex="1">
          <mxGeometry y="104" width="320" height="26" as="geometry" />
        </mxCell>
        <mxCell id="gjvjtqKwHrj_c5IjCsw3-84" value="- listRoutes: list[Route]" style="text;strokeColor=none;fillColor=none;align=left;verticalAlign=top;spacingLeft=4;spacingRight=4;overflow=hidden;rotatable=0;points=[[0,0.5],[1,0.5]];portConstraint=eastwest;" parent="gjvjtqKwHrj_c5IjCsw3-51" vertex="1">
          <mxGeometry y="130" width="320" height="26" as="geometry" />
        </mxCell>
        <mxCell id="gjvjtqKwHrj_c5IjCsw3-83" value="- listVilles: list[Ville]" style="text;strokeColor=none;fillColor=none;align=left;verticalAlign=top;spacingLeft=4;spacingRight=4;overflow=hidden;rotatable=0;points=[[0,0.5],[1,0.5]];portConstraint=eastwest;" parent="gjvjtqKwHrj_c5IjCsw3-51" vertex="1">
          <mxGeometry y="156" width="320" height="26" as="geometry" />
        </mxCell>
        <mxCell id="gjvjtqKwHrj_c5IjCsw3-85" value="- listAnts: list[Ant]" style="text;strokeColor=none;fillColor=none;align=left;verticalAlign=top;spacingLeft=4;spacingRight=4;overflow=hidden;rotatable=0;points=[[0,0.5],[1,0.5]];portConstraint=eastwest;" parent="gjvjtqKwHrj_c5IjCsw3-51" vertex="1">
          <mxGeometry y="182" width="320" height="26" as="geometry" />
        </mxCell>
        <mxCell id="gjvjtqKwHrj_c5IjCsw3-53" value="- selectionNaturelle: int" style="text;strokeColor=none;fillColor=none;align=left;verticalAlign=top;spacingLeft=4;spacingRight=4;overflow=hidden;rotatable=0;points=[[0,0.5],[1,0.5]];portConstraint=eastwest;" parent="gjvjtqKwHrj_c5IjCsw3-51" vertex="1">
          <mxGeometry y="208" width="320" height="26" as="geometry" />
        </mxCell>
        <mxCell id="gjvjtqKwHrj_c5IjCsw3-86" value="- probabiliteMutation: float" style="text;strokeColor=none;fillColor=none;align=left;verticalAlign=top;spacingLeft=4;spacingRight=4;overflow=hidden;rotatable=0;points=[[0,0.5],[1,0.5]];portConstraint=eastwest;" parent="gjvjtqKwHrj_c5IjCsw3-51" vertex="1">
          <mxGeometry y="234" width="320" height="26" as="geometry" />
        </mxCell>
        <mxCell id="gjvjtqKwHrj_c5IjCsw3-54" value="- nouritureCollectee: int" style="text;strokeColor=none;fillColor=none;align=left;verticalAlign=top;spacingLeft=4;spacingRight=4;overflow=hidden;rotatable=0;points=[[0,0.5],[1,0.5]];portConstraint=eastwest;" parent="gjvjtqKwHrj_c5IjCsw3-51" vertex="1">
          <mxGeometry y="260" width="320" height="26" as="geometry" />
        </mxCell>
        <mxCell id="gjvjtqKwHrj_c5IjCsw3-56" value="" style="line;strokeWidth=1;fillColor=none;align=left;verticalAlign=middle;spacingTop=-1;spacingLeft=3;spacingRight=3;rotatable=0;labelPosition=right;points=[];portConstraint=eastwest;" parent="gjvjtqKwHrj_c5IjCsw3-51" vertex="1">
          <mxGeometry y="286" width="320" height="8" as="geometry" />
        </mxCell>
        <mxCell id="gjvjtqKwHrj_c5IjCsw3-57" value="+ init(nom:string, villeNid:Ville, villeFood:Ville, nIndividus:int,&#xa;                 toursAvantselection:int, probabiliteMutation:float)" style="text;strokeColor=none;fillColor=none;align=left;verticalAlign=top;spacingLeft=4;spacingRight=4;overflow=hidden;rotatable=0;points=[[0,0.5],[1,0.5]];portConstraint=eastwest;" parent="gjvjtqKwHrj_c5IjCsw3-51" vertex="1">
          <mxGeometry y="294" width="320" height="36" as="geometry" />
        </mxCell>
        <mxCell id="gjvjtqKwHrj_c5IjCsw3-58" value="+ tourSuivantr(): " style="text;strokeColor=none;fillColor=none;align=left;verticalAlign=top;spacingLeft=4;spacingRight=4;overflow=hidden;rotatable=0;points=[[0,0.5],[1,0.5]];portConstraint=eastwest;" parent="gjvjtqKwHrj_c5IjCsw3-51" vertex="1">
          <mxGeometry y="330" width="320" height="26" as="geometry" />
        </mxCell>
        <mxCell id="gjvjtqKwHrj_c5IjCsw3-59" value="+ selection(): " style="text;strokeColor=none;fillColor=none;align=left;verticalAlign=top;spacingLeft=4;spacingRight=4;overflow=hidden;rotatable=0;points=[[0,0.5],[1,0.5]];portConstraint=eastwest;" parent="gjvjtqKwHrj_c5IjCsw3-51" vertex="1">
          <mxGeometry y="356" width="320" height="26" as="geometry" />
        </mxCell>
        <mxCell id="gjvjtqKwHrj_c5IjCsw3-63" value="+ updatePheromone()" style="text;strokeColor=none;fillColor=none;align=left;verticalAlign=top;spacingLeft=4;spacingRight=4;overflow=hidden;rotatable=0;points=[[0,0.5],[1,0.5]];portConstraint=eastwest;" parent="gjvjtqKwHrj_c5IjCsw3-51" vertex="1">
          <mxGeometry y="382" width="320" height="26" as="geometry" />
        </mxCell>
        <mxCell id="gjvjtqKwHrj_c5IjCsw3-89" style="edgeStyle=orthogonalEdgeStyle;rounded=0;orthogonalLoop=1;jettySize=auto;html=1;entryX=0.5;entryY=1;entryDx=0;entryDy=0;startArrow=none;startFill=0;startSize=16;sourcePerimeterSpacing=0;endArrow=diamond;endFill=0;endSize=16;targetPerimeterSpacing=0;fontSize=16;exitX=0.5;exitY=0;exitDx=0;exitDy=0;" parent="1" source="gjvjtqKwHrj_c5IjCsw3-21" target="gjvjtqKwHrj_c5IjCsw3-51" edge="1">
          <mxGeometry relative="1" as="geometry">
            <mxPoint x="-690" y="670.002" as="sourcePoint" />
            <mxPoint x="-629.5" y="670.002" as="targetPoint" />
          </mxGeometry>
        </mxCell>
        <mxCell id="gjvjtqKwHrj_c5IjCsw3-90" value="&lt;font style=&quot;font-size: 14px&quot;&gt;2..*&lt;/font&gt;" style="resizable=0;html=1;align=left;verticalAlign=top;labelBackgroundColor=#ffffff;fontSize=10;" parent="1" connectable="0" vertex="1">
          <mxGeometry x="-600" y="600" as="geometry">
            <mxPoint x="-26.5" y="58" as="offset" />
          </mxGeometry>
        </mxCell>
        <mxCell id="gjvjtqKwHrj_c5IjCsw3-91" value="Relation" style="endArrow=none;html=1;endSize=12;startArrow=diamond;startSize=14;startFill=0;endFill=0;noLabel=1;fontColor=none;entryX=0.5;entryY=0;entryDx=0;entryDy=0;exitX=0.001;exitY=0.93;exitDx=0;exitDy=0;exitPerimeter=0;" parent="1" source="gjvjtqKwHrj_c5IjCsw3-63" target="MiK0NScsfOHQg_DPSbVj-1" edge="1">
          <mxGeometry relative="1" as="geometry">
            <mxPoint x="-801" y="651" as="sourcePoint" />
            <mxPoint x="-1070" y="1172.5" as="targetPoint" />
          </mxGeometry>
        </mxCell>
        <mxCell id="gjvjtqKwHrj_c5IjCsw3-92" value="4..*" style="resizable=0;html=1;align=left;verticalAlign=top;labelBackgroundColor=#ffffff;fontSize=14;" parent="gjvjtqKwHrj_c5IjCsw3-91" connectable="0" vertex="1">
          <mxGeometry x="-1" relative="1" as="geometry">
            <mxPoint x="-140.32" y="293.82" as="offset" />
          </mxGeometry>
        </mxCell>
        <mxCell id="gjvjtqKwHrj_c5IjCsw3-93" value="" style="resizable=0;html=1;align=right;verticalAlign=top;labelBackgroundColor=#ffffff;fontSize=10;" parent="gjvjtqKwHrj_c5IjCsw3-91" connectable="0" vertex="1">
          <mxGeometry x="1" relative="1" as="geometry" />
        </mxCell>
        <mxCell id="gjvjtqKwHrj_c5IjCsw3-103" value="4..*" style="resizable=0;html=1;align=left;verticalAlign=top;labelBackgroundColor=#ffffff;fontSize=14;" parent="1" connectable="0" vertex="1">
          <mxGeometry x="-120.00000000000023" y="740" as="geometry">
            <mxPoint x="-249.04" y="199.01" as="offset" />
          </mxGeometry>
        </mxCell>
        <mxCell id="gjvjtqKwHrj_c5IjCsw3-104" value="Relation" style="endArrow=none;html=1;endSize=12;startArrow=none;startSize=14;startFill=0;edgeStyle=orthogonalEdgeStyle;endFill=0;noLabel=1;fontColor=none;exitX=0.004;exitY=0.238;exitDx=0;exitDy=0;exitPerimeter=0;" parent="1" edge="1">
          <mxGeometry relative="1" as="geometry">
            <mxPoint x="-808.4760000000001" y="1394.728" as="sourcePoint" />
            <mxPoint x="-880" y="1395.73" as="targetPoint" />
            <Array as="points">
              <mxPoint x="-808" y="1395.54" />
            </Array>
          </mxGeometry>
        </mxCell>
        <mxCell id="gjvjtqKwHrj_c5IjCsw3-106" value="&lt;font style=&quot;font-size: 14px&quot;&gt;0..1&lt;/font&gt;" style="resizable=0;html=1;align=right;verticalAlign=top;labelBackgroundColor=#ffffff;fontSize=10;" parent="gjvjtqKwHrj_c5IjCsw3-104" connectable="0" vertex="1">
          <mxGeometry x="1" relative="1" as="geometry">
            <mxPoint x="30.070000000000004" y="-25.81" as="offset" />
          </mxGeometry>
        </mxCell>
        <mxCell id="gjvjtqKwHrj_c5IjCsw3-108" value="Relation" style="endArrow=none;html=1;endSize=12;startArrow=none;startSize=14;startFill=0;edgeStyle=orthogonalEdgeStyle;endFill=0;noLabel=1;fontColor=none;" parent="1" edge="1">
          <mxGeometry relative="1" as="geometry">
            <mxPoint x="-410" y="1424.5" as="sourcePoint" />
            <mxPoint x="-470" y="1425" as="targetPoint" />
            <Array as="points">
              <mxPoint x="-405" y="1424.5" />
              <mxPoint x="-481" y="1424.5" />
            </Array>
          </mxGeometry>
        </mxCell>
        <mxCell id="gjvjtqKwHrj_c5IjCsw3-109" value="&lt;font style=&quot;font-size: 14px&quot;&gt;0..1&lt;/font&gt;" style="resizable=0;html=1;align=left;verticalAlign=top;labelBackgroundColor=#ffffff;fontSize=10;" parent="gjvjtqKwHrj_c5IjCsw3-108" connectable="0" vertex="1">
          <mxGeometry x="-1" relative="1" as="geometry">
            <mxPoint x="-26" y="-24.5" as="offset" />
          </mxGeometry>
        </mxCell>
        <mxCell id="gjvjtqKwHrj_c5IjCsw3-110" value="&lt;font style=&quot;font-size: 14px&quot;&gt;0..*&lt;/font&gt;" style="resizable=0;html=1;align=right;verticalAlign=top;labelBackgroundColor=#ffffff;fontSize=10;" parent="gjvjtqKwHrj_c5IjCsw3-108" connectable="0" vertex="1">
          <mxGeometry x="1" relative="1" as="geometry">
            <mxPoint x="16" y="-25" as="offset" />
          </mxGeometry>
        </mxCell>
        <mxCell id="gjvjtqKwHrj_c5IjCsw3-113" value="Relation" style="endArrow=none;html=1;endSize=12;startArrow=none;startSize=14;startFill=0;edgeStyle=orthogonalEdgeStyle;endFill=0;noLabel=1;fontColor=none;entryX=1;entryY=0.5;entryDx=0;entryDy=0;exitX=0.006;exitY=0.808;exitDx=0;exitDy=0;exitPerimeter=0;" parent="1" source="gjvjtqKwHrj_c5IjCsw3-14" target="gjvjtqKwHrj_c5IjCsw3-3" edge="1">
          <mxGeometry relative="1" as="geometry">
            <mxPoint x="-620" y="1494.5" as="sourcePoint" />
            <mxPoint x="-670" y="1494.5" as="targetPoint" />
            <Array as="points">
              <mxPoint x="-880" y="1495" />
            </Array>
          </mxGeometry>
        </mxCell>
        <mxCell id="gjvjtqKwHrj_c5IjCsw3-114" value="&lt;font style=&quot;font-size: 14px&quot;&gt;1..*&lt;/font&gt;" style="resizable=0;html=1;align=left;verticalAlign=top;labelBackgroundColor=#ffffff;fontSize=10;" parent="gjvjtqKwHrj_c5IjCsw3-113" connectable="0" vertex="1">
          <mxGeometry x="-1" relative="1" as="geometry">
            <mxPoint x="-41.92" y="-35.01" as="offset" />
          </mxGeometry>
        </mxCell>
        <mxCell id="gjvjtqKwHrj_c5IjCsw3-115" value="&lt;font style=&quot;font-size: 14px&quot;&gt;2&lt;/font&gt;" style="resizable=0;html=1;align=right;verticalAlign=top;labelBackgroundColor=#ffffff;fontSize=10;" parent="gjvjtqKwHrj_c5IjCsw3-113" connectable="0" vertex="1">
          <mxGeometry x="1" relative="1" as="geometry">
            <mxPoint x="20" y="-38.85" as="offset" />
          </mxGeometry>
        </mxCell>
        <mxCell id="gjvjtqKwHrj_c5IjCsw3-116" value="&lt;font style=&quot;font-size: 16px&quot;&gt;Possède&lt;/font&gt;" style="text;html=1;strokeColor=none;fillColor=none;align=center;verticalAlign=middle;whiteSpace=wrap;rounded=0;" parent="1" vertex="1">
          <mxGeometry x="-860" y="1506" width="40" height="20" as="geometry" />
        </mxCell>
      </root>
    </mxGraphModel>
  </diagram>
  <diagram id="5bH7lTcpFjmX77SDTe5L" name="&quot;Use case&quot; - ant">
    <mxGraphModel dx="1730" dy="958" grid="1" gridSize="10" guides="1" tooltips="1" connect="1" arrows="1" fold="1" page="1" pageScale="1" pageWidth="827" pageHeight="1169" math="0" shadow="0">
      <root>
        <mxCell id="zyauot9mx-XSJbakR70K-0" />
        <mxCell id="zyauot9mx-XSJbakR70K-1" parent="zyauot9mx-XSJbakR70K-0" />
        <mxCell id="zyauot9mx-XSJbakR70K-247" value="" style="ellipse;whiteSpace=wrap;html=1;aspect=fixed;" vertex="1" parent="zyauot9mx-XSJbakR70K-1">
          <mxGeometry x="20" y="645" width="10" height="10" as="geometry" />
        </mxCell>
        <mxCell id="zyauot9mx-XSJbakR70K-223" value="" style="ellipse;whiteSpace=wrap;html=1;aspect=fixed;" vertex="1" parent="zyauot9mx-XSJbakR70K-1">
          <mxGeometry x="20" y="545" width="10" height="10" as="geometry" />
        </mxCell>
        <mxCell id="zyauot9mx-XSJbakR70K-389" value="C" style="text;html=1;strokeColor=none;fillColor=none;align=center;verticalAlign=middle;whiteSpace=wrap;rounded=0;fontColor=#000000;fontSize=6;fontStyle=1" vertex="1" parent="zyauot9mx-XSJbakR70K-1">
          <mxGeometry x="7.5" y="537.5" width="35" height="25" as="geometry" />
        </mxCell>
        <mxCell id="zyauot9mx-XSJbakR70K-198" value="" style="ellipse;whiteSpace=wrap;html=1;aspect=fixed;" vertex="1" parent="zyauot9mx-XSJbakR70K-1">
          <mxGeometry x="20" y="445" width="10" height="10" as="geometry" />
        </mxCell>
        <mxCell id="zyauot9mx-XSJbakR70K-388" value="C" style="text;html=1;strokeColor=none;fillColor=none;align=center;verticalAlign=middle;whiteSpace=wrap;rounded=0;fontColor=#000000;fontSize=6;fontStyle=1" vertex="1" parent="zyauot9mx-XSJbakR70K-1">
          <mxGeometry x="7.5" y="437.5" width="35" height="25" as="geometry" />
        </mxCell>
        <mxCell id="zyauot9mx-XSJbakR70K-174" value="" style="ellipse;whiteSpace=wrap;html=1;aspect=fixed;" vertex="1" parent="zyauot9mx-XSJbakR70K-1">
          <mxGeometry x="20" y="345" width="10" height="10" as="geometry" />
        </mxCell>
        <mxCell id="zyauot9mx-XSJbakR70K-387" value="C" style="text;html=1;strokeColor=none;fillColor=none;align=center;verticalAlign=middle;whiteSpace=wrap;rounded=0;fontColor=#000000;fontSize=6;fontStyle=1" vertex="1" parent="zyauot9mx-XSJbakR70K-1">
          <mxGeometry x="7.5" y="337.5" width="35" height="25" as="geometry" />
        </mxCell>
        <mxCell id="zyauot9mx-XSJbakR70K-346" value="" style="ellipse;whiteSpace=wrap;html=1;aspect=fixed;" vertex="1" parent="zyauot9mx-XSJbakR70K-1">
          <mxGeometry x="422.5" y="145" width="10" height="10" as="geometry" />
        </mxCell>
        <mxCell id="zyauot9mx-XSJbakR70K-112" value="A" style="text;html=1;strokeColor=none;fillColor=none;align=center;verticalAlign=middle;whiteSpace=wrap;rounded=0;fontColor=#000000;fontSize=6;fontStyle=1" vertex="1" parent="zyauot9mx-XSJbakR70K-1">
          <mxGeometry x="57.5" y="200" width="35" height="25" as="geometry" />
        </mxCell>
        <mxCell id="zyauot9mx-XSJbakR70K-113" style="edgeStyle=none;rounded=0;orthogonalLoop=1;jettySize=auto;html=1;exitX=0;exitY=0.5;exitDx=0;exitDy=0;entryX=1;entryY=0;entryDx=0;entryDy=0;endArrow=none;endFill=0;" edge="1" parent="zyauot9mx-XSJbakR70K-1" source="zyauot9mx-XSJbakR70K-115" target="zyauot9mx-XSJbakR70K-119">
          <mxGeometry relative="1" as="geometry" />
        </mxCell>
        <mxCell id="zyauot9mx-XSJbakR70K-114" style="edgeStyle=none;rounded=0;orthogonalLoop=1;jettySize=auto;html=1;exitX=0.302;exitY=1.028;exitDx=0;exitDy=0;entryX=0.686;entryY=0.144;entryDx=0;entryDy=0;entryPerimeter=0;endArrow=none;endFill=0;exitPerimeter=0;" edge="1" parent="zyauot9mx-XSJbakR70K-1" source="zyauot9mx-XSJbakR70K-115" target="zyauot9mx-XSJbakR70K-120">
          <mxGeometry relative="1" as="geometry" />
        </mxCell>
        <mxCell id="zyauot9mx-XSJbakR70K-115" value="" style="ellipse;whiteSpace=wrap;html=1;aspect=fixed;" vertex="1" parent="zyauot9mx-XSJbakR70K-1">
          <mxGeometry x="60" y="227.5" width="10" height="10" as="geometry" />
        </mxCell>
        <mxCell id="zyauot9mx-XSJbakR70K-116" style="edgeStyle=none;rounded=0;orthogonalLoop=1;jettySize=auto;html=1;exitX=1;exitY=1;exitDx=0;exitDy=0;entryX=0;entryY=0;entryDx=0;entryDy=0;endArrow=none;endFill=0;" edge="1" parent="zyauot9mx-XSJbakR70K-1" source="zyauot9mx-XSJbakR70K-119" target="zyauot9mx-XSJbakR70K-120">
          <mxGeometry relative="1" as="geometry" />
        </mxCell>
        <mxCell id="zyauot9mx-XSJbakR70K-117" style="edgeStyle=none;rounded=0;orthogonalLoop=1;jettySize=auto;html=1;exitX=0.5;exitY=1;exitDx=0;exitDy=0;entryX=0.14;entryY=0.353;entryDx=0;entryDy=0;entryPerimeter=0;endArrow=none;endFill=0;" edge="1" parent="zyauot9mx-XSJbakR70K-1" source="zyauot9mx-XSJbakR70K-119" target="zyauot9mx-XSJbakR70K-123">
          <mxGeometry relative="1" as="geometry" />
        </mxCell>
        <mxCell id="zyauot9mx-XSJbakR70K-118" style="edgeStyle=none;rounded=0;orthogonalLoop=1;jettySize=auto;html=1;exitX=0.5;exitY=0;exitDx=0;exitDy=0;entryX=0;entryY=0.5;entryDx=0;entryDy=0;endArrow=none;endFill=0;" edge="1" parent="zyauot9mx-XSJbakR70K-1" source="zyauot9mx-XSJbakR70K-119" target="zyauot9mx-XSJbakR70K-125">
          <mxGeometry relative="1" as="geometry" />
        </mxCell>
        <mxCell id="zyauot9mx-XSJbakR70K-119" value="" style="ellipse;whiteSpace=wrap;html=1;aspect=fixed;" vertex="1" parent="zyauot9mx-XSJbakR70K-1">
          <mxGeometry x="20" y="242.5" width="10" height="10" as="geometry" />
        </mxCell>
        <mxCell id="zyauot9mx-XSJbakR70K-120" value="" style="ellipse;whiteSpace=wrap;html=1;aspect=fixed;fillColor=#dae8fc;strokeColor=#0000FF;" vertex="1" parent="zyauot9mx-XSJbakR70K-1">
          <mxGeometry x="45" y="257.5" width="10" height="10" as="geometry" />
        </mxCell>
        <mxCell id="zyauot9mx-XSJbakR70K-121" style="edgeStyle=none;rounded=0;orthogonalLoop=1;jettySize=auto;html=1;exitX=0.674;exitY=0.051;exitDx=0;exitDy=0;entryX=0.5;entryY=1;entryDx=0;entryDy=0;endArrow=none;endFill=0;exitPerimeter=0;" edge="1" parent="zyauot9mx-XSJbakR70K-1" source="zyauot9mx-XSJbakR70K-123" target="zyauot9mx-XSJbakR70K-115">
          <mxGeometry relative="1" as="geometry" />
        </mxCell>
        <mxCell id="zyauot9mx-XSJbakR70K-122" style="edgeStyle=none;rounded=0;orthogonalLoop=1;jettySize=auto;html=1;exitX=0.302;exitY=0.005;exitDx=0;exitDy=0;endArrow=none;endFill=0;exitPerimeter=0;" edge="1" parent="zyauot9mx-XSJbakR70K-1" source="zyauot9mx-XSJbakR70K-123" target="zyauot9mx-XSJbakR70K-120">
          <mxGeometry relative="1" as="geometry" />
        </mxCell>
        <mxCell id="zyauot9mx-XSJbakR70K-123" value="" style="ellipse;whiteSpace=wrap;html=1;aspect=fixed;" vertex="1" parent="zyauot9mx-XSJbakR70K-1">
          <mxGeometry x="50" y="277.5" width="10" height="10" as="geometry" />
        </mxCell>
        <mxCell id="zyauot9mx-XSJbakR70K-124" style="rounded=0;orthogonalLoop=1;jettySize=auto;html=1;exitX=0;exitY=1;exitDx=0;exitDy=0;entryX=0.674;entryY=0.028;entryDx=0;entryDy=0;entryPerimeter=0;endArrow=none;endFill=0;" edge="1" parent="zyauot9mx-XSJbakR70K-1" source="zyauot9mx-XSJbakR70K-125" target="zyauot9mx-XSJbakR70K-115">
          <mxGeometry relative="1" as="geometry" />
        </mxCell>
        <mxCell id="zyauot9mx-XSJbakR70K-125" value="" style="ellipse;whiteSpace=wrap;html=1;aspect=fixed;labelBorderColor=#FF0000;strokeColor=#FF0000;fillColor=#f8cecc;" vertex="1" parent="zyauot9mx-XSJbakR70K-1">
          <mxGeometry x="70" y="207.5" width="10" height="10" as="geometry" />
        </mxCell>
        <mxCell id="zyauot9mx-XSJbakR70K-126" value="Nid" style="text;html=1;strokeColor=none;fillColor=none;align=center;verticalAlign=middle;whiteSpace=wrap;rounded=0;fontColor=#FF0000;" vertex="1" parent="zyauot9mx-XSJbakR70K-1">
          <mxGeometry x="80" y="207.5" width="20" height="10" as="geometry" />
        </mxCell>
        <mxCell id="zyauot9mx-XSJbakR70K-127" value="&lt;font color=&quot;#0000FF&quot;&gt;Sorce&lt;/font&gt;" style="text;html=1;strokeColor=none;fillColor=none;align=center;verticalAlign=middle;whiteSpace=wrap;rounded=0;fontColor=#FF0000;" vertex="1" parent="zyauot9mx-XSJbakR70K-1">
          <mxGeometry x="80" y="257.5" width="20" height="10" as="geometry" />
        </mxCell>
        <mxCell id="zyauot9mx-XSJbakR70K-131" value="B" style="text;html=1;strokeColor=none;fillColor=none;align=center;verticalAlign=middle;whiteSpace=wrap;rounded=0;fontColor=#000000;fontSize=6;fontStyle=1" vertex="1" parent="zyauot9mx-XSJbakR70K-1">
          <mxGeometry x="47.5" y="220" width="35" height="25" as="geometry" />
        </mxCell>
        <mxCell id="zyauot9mx-XSJbakR70K-133" value="D" style="text;html=1;strokeColor=none;fillColor=none;align=center;verticalAlign=middle;whiteSpace=wrap;rounded=0;fontColor=#000000;fontSize=6;fontStyle=1" vertex="1" parent="zyauot9mx-XSJbakR70K-1">
          <mxGeometry x="32.5" y="250" width="35" height="25" as="geometry" />
        </mxCell>
        <mxCell id="zyauot9mx-XSJbakR70K-134" value="E" style="text;html=1;strokeColor=none;fillColor=none;align=center;verticalAlign=middle;whiteSpace=wrap;rounded=0;fontColor=#000000;fontSize=6;fontStyle=1" vertex="1" parent="zyauot9mx-XSJbakR70K-1">
          <mxGeometry x="37.5" y="270" width="35" height="25" as="geometry" />
        </mxCell>
        <mxCell id="zyauot9mx-XSJbakR70K-28" value="A" style="text;html=1;strokeColor=none;fillColor=none;align=center;verticalAlign=middle;whiteSpace=wrap;rounded=0;fontColor=#000000;fontSize=6;fontStyle=1" vertex="1" parent="zyauot9mx-XSJbakR70K-1">
          <mxGeometry x="57.5" y="2.5" width="35" height="25" as="geometry" />
        </mxCell>
        <mxCell id="zyauot9mx-XSJbakR70K-105" value="A" style="text;html=1;strokeColor=none;fillColor=none;align=center;verticalAlign=middle;whiteSpace=wrap;rounded=0;fontColor=#000000;fontSize=6;fontStyle=1" vertex="1" parent="zyauot9mx-XSJbakR70K-1">
          <mxGeometry x="57.5" y="97.5" width="35" height="25" as="geometry" />
        </mxCell>
        <mxCell id="zyauot9mx-XSJbakR70K-16" style="edgeStyle=none;rounded=0;orthogonalLoop=1;jettySize=auto;html=1;exitX=0;exitY=0.5;exitDx=0;exitDy=0;entryX=1;entryY=0;entryDx=0;entryDy=0;endArrow=none;endFill=0;" edge="1" parent="zyauot9mx-XSJbakR70K-1" source="zyauot9mx-XSJbakR70K-3" target="zyauot9mx-XSJbakR70K-4">
          <mxGeometry relative="1" as="geometry" />
        </mxCell>
        <mxCell id="zyauot9mx-XSJbakR70K-17" style="edgeStyle=none;rounded=0;orthogonalLoop=1;jettySize=auto;html=1;exitX=0.302;exitY=1.028;exitDx=0;exitDy=0;entryX=0.686;entryY=0.144;entryDx=0;entryDy=0;entryPerimeter=0;endArrow=none;endFill=0;exitPerimeter=0;" edge="1" parent="zyauot9mx-XSJbakR70K-1" source="zyauot9mx-XSJbakR70K-3" target="zyauot9mx-XSJbakR70K-6">
          <mxGeometry relative="1" as="geometry" />
        </mxCell>
        <mxCell id="zyauot9mx-XSJbakR70K-3" value="" style="ellipse;whiteSpace=wrap;html=1;aspect=fixed;" vertex="1" parent="zyauot9mx-XSJbakR70K-1">
          <mxGeometry x="60" y="30" width="10" height="10" as="geometry" />
        </mxCell>
        <mxCell id="zyauot9mx-XSJbakR70K-19" style="edgeStyle=none;rounded=0;orthogonalLoop=1;jettySize=auto;html=1;exitX=1;exitY=1;exitDx=0;exitDy=0;entryX=0;entryY=0;entryDx=0;entryDy=0;endArrow=none;endFill=0;" edge="1" parent="zyauot9mx-XSJbakR70K-1" source="zyauot9mx-XSJbakR70K-4" target="zyauot9mx-XSJbakR70K-6">
          <mxGeometry relative="1" as="geometry" />
        </mxCell>
        <mxCell id="zyauot9mx-XSJbakR70K-20" style="edgeStyle=none;rounded=0;orthogonalLoop=1;jettySize=auto;html=1;exitX=0.5;exitY=1;exitDx=0;exitDy=0;entryX=0.14;entryY=0.353;entryDx=0;entryDy=0;entryPerimeter=0;endArrow=none;endFill=0;" edge="1" parent="zyauot9mx-XSJbakR70K-1" source="zyauot9mx-XSJbakR70K-4" target="zyauot9mx-XSJbakR70K-7">
          <mxGeometry relative="1" as="geometry" />
        </mxCell>
        <mxCell id="zyauot9mx-XSJbakR70K-22" style="edgeStyle=none;rounded=0;orthogonalLoop=1;jettySize=auto;html=1;exitX=0.5;exitY=0;exitDx=0;exitDy=0;entryX=0;entryY=0.5;entryDx=0;entryDy=0;endArrow=none;endFill=0;" edge="1" parent="zyauot9mx-XSJbakR70K-1" source="zyauot9mx-XSJbakR70K-4" target="zyauot9mx-XSJbakR70K-9">
          <mxGeometry relative="1" as="geometry" />
        </mxCell>
        <mxCell id="zyauot9mx-XSJbakR70K-4" value="" style="ellipse;whiteSpace=wrap;html=1;aspect=fixed;" vertex="1" parent="zyauot9mx-XSJbakR70K-1">
          <mxGeometry x="20" y="45" width="10" height="10" as="geometry" />
        </mxCell>
        <mxCell id="zyauot9mx-XSJbakR70K-6" value="" style="ellipse;whiteSpace=wrap;html=1;aspect=fixed;fillColor=#dae8fc;strokeColor=#0000FF;" vertex="1" parent="zyauot9mx-XSJbakR70K-1">
          <mxGeometry x="45" y="60" width="10" height="10" as="geometry" />
        </mxCell>
        <mxCell id="zyauot9mx-XSJbakR70K-18" style="edgeStyle=none;rounded=0;orthogonalLoop=1;jettySize=auto;html=1;exitX=0.674;exitY=0.051;exitDx=0;exitDy=0;entryX=0.5;entryY=1;entryDx=0;entryDy=0;endArrow=none;endFill=0;exitPerimeter=0;" edge="1" parent="zyauot9mx-XSJbakR70K-1" source="zyauot9mx-XSJbakR70K-7" target="zyauot9mx-XSJbakR70K-3">
          <mxGeometry relative="1" as="geometry" />
        </mxCell>
        <mxCell id="zyauot9mx-XSJbakR70K-21" style="edgeStyle=none;rounded=0;orthogonalLoop=1;jettySize=auto;html=1;exitX=0.302;exitY=0.005;exitDx=0;exitDy=0;endArrow=none;endFill=0;exitPerimeter=0;" edge="1" parent="zyauot9mx-XSJbakR70K-1" source="zyauot9mx-XSJbakR70K-7" target="zyauot9mx-XSJbakR70K-6">
          <mxGeometry relative="1" as="geometry" />
        </mxCell>
        <mxCell id="zyauot9mx-XSJbakR70K-7" value="" style="ellipse;whiteSpace=wrap;html=1;aspect=fixed;" vertex="1" parent="zyauot9mx-XSJbakR70K-1">
          <mxGeometry x="50" y="80" width="10" height="10" as="geometry" />
        </mxCell>
        <mxCell id="zyauot9mx-XSJbakR70K-12" style="rounded=0;orthogonalLoop=1;jettySize=auto;html=1;exitX=0;exitY=1;exitDx=0;exitDy=0;entryX=0.674;entryY=0.028;entryDx=0;entryDy=0;entryPerimeter=0;endArrow=none;endFill=0;" edge="1" parent="zyauot9mx-XSJbakR70K-1" source="zyauot9mx-XSJbakR70K-9" target="zyauot9mx-XSJbakR70K-3">
          <mxGeometry relative="1" as="geometry" />
        </mxCell>
        <mxCell id="zyauot9mx-XSJbakR70K-9" value="" style="ellipse;whiteSpace=wrap;html=1;aspect=fixed;labelBorderColor=#FF0000;strokeColor=#FF0000;fillColor=#f8cecc;" vertex="1" parent="zyauot9mx-XSJbakR70K-1">
          <mxGeometry x="70" y="10" width="10" height="10" as="geometry" />
        </mxCell>
        <mxCell id="zyauot9mx-XSJbakR70K-23" value="Nid" style="text;html=1;strokeColor=none;fillColor=none;align=center;verticalAlign=middle;whiteSpace=wrap;rounded=0;fontColor=#FF0000;" vertex="1" parent="zyauot9mx-XSJbakR70K-1">
          <mxGeometry x="80" y="10" width="20" height="10" as="geometry" />
        </mxCell>
        <mxCell id="zyauot9mx-XSJbakR70K-24" value="&lt;font color=&quot;#0000FF&quot;&gt;Sorce&lt;/font&gt;" style="text;html=1;strokeColor=none;fillColor=none;align=center;verticalAlign=middle;whiteSpace=wrap;rounded=0;fontColor=#FF0000;" vertex="1" parent="zyauot9mx-XSJbakR70K-1">
          <mxGeometry x="80" y="60" width="20" height="10" as="geometry" />
        </mxCell>
        <mxCell id="zyauot9mx-XSJbakR70K-25" value="" style="shape=umlActor;verticalLabelPosition=bottom;labelBackgroundColor=#ffffff;verticalAlign=top;html=1;outlineConnect=0;strokeColor=#663300;fontColor=#FF0000;" vertex="1" parent="zyauot9mx-XSJbakR70K-1">
          <mxGeometry x="60" y="10" width="5" height="5" as="geometry" />
        </mxCell>
        <mxCell id="zyauot9mx-XSJbakR70K-26" value="" style="rounded=0;whiteSpace=wrap;html=1;strokeColor=#663300;fontColor=#FF0000;fillColor=none;" vertex="1" parent="zyauot9mx-XSJbakR70K-1">
          <mxGeometry x="160" y="20" width="240" height="40" as="geometry" />
        </mxCell>
        <mxCell id="zyauot9mx-XSJbakR70K-27" value="Nid" style="text;html=1;strokeColor=none;fillColor=none;align=center;verticalAlign=middle;whiteSpace=wrap;rounded=0;fontColor=#FF0000;" vertex="1" parent="zyauot9mx-XSJbakR70K-1">
          <mxGeometry x="170" y="35" width="20" height="10" as="geometry" />
        </mxCell>
        <mxCell id="zyauot9mx-XSJbakR70K-30" value="B" style="text;html=1;strokeColor=none;fillColor=none;align=center;verticalAlign=middle;whiteSpace=wrap;rounded=0;fontColor=#000000;fontSize=6;fontStyle=1" vertex="1" parent="zyauot9mx-XSJbakR70K-1">
          <mxGeometry x="47.5" y="22.5" width="35" height="25" as="geometry" />
        </mxCell>
        <mxCell id="zyauot9mx-XSJbakR70K-31" value="C" style="text;html=1;strokeColor=none;fillColor=none;align=center;verticalAlign=middle;whiteSpace=wrap;rounded=0;fontColor=#000000;fontSize=6;fontStyle=1" vertex="1" parent="zyauot9mx-XSJbakR70K-1">
          <mxGeometry x="7.5" y="37.5" width="35" height="25" as="geometry" />
        </mxCell>
        <mxCell id="zyauot9mx-XSJbakR70K-33" value="D" style="text;html=1;strokeColor=none;fillColor=none;align=center;verticalAlign=middle;whiteSpace=wrap;rounded=0;fontColor=#000000;fontSize=6;fontStyle=1" vertex="1" parent="zyauot9mx-XSJbakR70K-1">
          <mxGeometry x="32.5" y="52.5" width="35" height="25" as="geometry" />
        </mxCell>
        <mxCell id="zyauot9mx-XSJbakR70K-34" value="E" style="text;html=1;strokeColor=none;fillColor=none;align=center;verticalAlign=middle;whiteSpace=wrap;rounded=0;fontColor=#000000;fontSize=6;fontStyle=1" vertex="1" parent="zyauot9mx-XSJbakR70K-1">
          <mxGeometry x="37.5" y="72.5" width="35" height="25" as="geometry" />
        </mxCell>
        <mxCell id="zyauot9mx-XSJbakR70K-39" value="" style="shape=umlActor;verticalLabelPosition=bottom;labelBackgroundColor=#ffffff;verticalAlign=top;html=1;outlineConnect=0;strokeColor=#663300;fontColor=#FF0000;" vertex="1" parent="zyauot9mx-XSJbakR70K-1">
          <mxGeometry x="150" y="37.5" width="5" height="5" as="geometry" />
        </mxCell>
        <mxCell id="zyauot9mx-XSJbakR70K-87" style="edgeStyle=none;rounded=0;orthogonalLoop=1;jettySize=auto;html=1;exitX=0;exitY=0.5;exitDx=0;exitDy=0;entryX=1;entryY=0;entryDx=0;entryDy=0;endArrow=none;endFill=0;" edge="1" parent="zyauot9mx-XSJbakR70K-1" source="zyauot9mx-XSJbakR70K-89" target="zyauot9mx-XSJbakR70K-93">
          <mxGeometry relative="1" as="geometry" />
        </mxCell>
        <mxCell id="zyauot9mx-XSJbakR70K-88" style="edgeStyle=none;rounded=0;orthogonalLoop=1;jettySize=auto;html=1;exitX=0.302;exitY=1.028;exitDx=0;exitDy=0;entryX=0.686;entryY=0.144;entryDx=0;entryDy=0;entryPerimeter=0;endArrow=none;endFill=0;exitPerimeter=0;" edge="1" parent="zyauot9mx-XSJbakR70K-1" source="zyauot9mx-XSJbakR70K-89" target="zyauot9mx-XSJbakR70K-94">
          <mxGeometry relative="1" as="geometry" />
        </mxCell>
        <mxCell id="zyauot9mx-XSJbakR70K-89" value="" style="ellipse;whiteSpace=wrap;html=1;aspect=fixed;" vertex="1" parent="zyauot9mx-XSJbakR70K-1">
          <mxGeometry x="60" y="125" width="10" height="10" as="geometry" />
        </mxCell>
        <mxCell id="zyauot9mx-XSJbakR70K-90" style="edgeStyle=none;rounded=0;orthogonalLoop=1;jettySize=auto;html=1;exitX=1;exitY=1;exitDx=0;exitDy=0;entryX=0;entryY=0;entryDx=0;entryDy=0;endArrow=none;endFill=0;" edge="1" parent="zyauot9mx-XSJbakR70K-1" source="zyauot9mx-XSJbakR70K-93" target="zyauot9mx-XSJbakR70K-94">
          <mxGeometry relative="1" as="geometry" />
        </mxCell>
        <mxCell id="zyauot9mx-XSJbakR70K-91" style="edgeStyle=none;rounded=0;orthogonalLoop=1;jettySize=auto;html=1;exitX=0.5;exitY=1;exitDx=0;exitDy=0;entryX=0.14;entryY=0.353;entryDx=0;entryDy=0;entryPerimeter=0;endArrow=none;endFill=0;" edge="1" parent="zyauot9mx-XSJbakR70K-1" source="zyauot9mx-XSJbakR70K-93" target="zyauot9mx-XSJbakR70K-97">
          <mxGeometry relative="1" as="geometry" />
        </mxCell>
        <mxCell id="zyauot9mx-XSJbakR70K-92" style="edgeStyle=none;rounded=0;orthogonalLoop=1;jettySize=auto;html=1;exitX=0.5;exitY=0;exitDx=0;exitDy=0;entryX=0;entryY=0.5;entryDx=0;entryDy=0;endArrow=none;endFill=0;" edge="1" parent="zyauot9mx-XSJbakR70K-1" source="zyauot9mx-XSJbakR70K-93" target="zyauot9mx-XSJbakR70K-99">
          <mxGeometry relative="1" as="geometry" />
        </mxCell>
        <mxCell id="zyauot9mx-XSJbakR70K-93" value="" style="ellipse;whiteSpace=wrap;html=1;aspect=fixed;" vertex="1" parent="zyauot9mx-XSJbakR70K-1">
          <mxGeometry x="20" y="140" width="10" height="10" as="geometry" />
        </mxCell>
        <mxCell id="zyauot9mx-XSJbakR70K-94" value="" style="ellipse;whiteSpace=wrap;html=1;aspect=fixed;fillColor=#dae8fc;strokeColor=#0000FF;" vertex="1" parent="zyauot9mx-XSJbakR70K-1">
          <mxGeometry x="45" y="155" width="10" height="10" as="geometry" />
        </mxCell>
        <mxCell id="zyauot9mx-XSJbakR70K-95" style="edgeStyle=none;rounded=0;orthogonalLoop=1;jettySize=auto;html=1;exitX=0.674;exitY=0.051;exitDx=0;exitDy=0;entryX=0.5;entryY=1;entryDx=0;entryDy=0;endArrow=none;endFill=0;exitPerimeter=0;" edge="1" parent="zyauot9mx-XSJbakR70K-1" source="zyauot9mx-XSJbakR70K-97" target="zyauot9mx-XSJbakR70K-89">
          <mxGeometry relative="1" as="geometry" />
        </mxCell>
        <mxCell id="zyauot9mx-XSJbakR70K-96" style="edgeStyle=none;rounded=0;orthogonalLoop=1;jettySize=auto;html=1;exitX=0.302;exitY=0.005;exitDx=0;exitDy=0;endArrow=none;endFill=0;exitPerimeter=0;" edge="1" parent="zyauot9mx-XSJbakR70K-1" source="zyauot9mx-XSJbakR70K-97" target="zyauot9mx-XSJbakR70K-94">
          <mxGeometry relative="1" as="geometry" />
        </mxCell>
        <mxCell id="zyauot9mx-XSJbakR70K-97" value="" style="ellipse;whiteSpace=wrap;html=1;aspect=fixed;" vertex="1" parent="zyauot9mx-XSJbakR70K-1">
          <mxGeometry x="50" y="175" width="10" height="10" as="geometry" />
        </mxCell>
        <mxCell id="zyauot9mx-XSJbakR70K-98" style="rounded=0;orthogonalLoop=1;jettySize=auto;html=1;exitX=0;exitY=1;exitDx=0;exitDy=0;entryX=0.674;entryY=0.028;entryDx=0;entryDy=0;entryPerimeter=0;endArrow=none;endFill=0;" edge="1" parent="zyauot9mx-XSJbakR70K-1" source="zyauot9mx-XSJbakR70K-99" target="zyauot9mx-XSJbakR70K-89">
          <mxGeometry relative="1" as="geometry" />
        </mxCell>
        <mxCell id="zyauot9mx-XSJbakR70K-99" value="" style="ellipse;whiteSpace=wrap;html=1;aspect=fixed;labelBorderColor=#FF0000;strokeColor=#FF0000;fillColor=#f8cecc;" vertex="1" parent="zyauot9mx-XSJbakR70K-1">
          <mxGeometry x="70" y="105" width="10" height="10" as="geometry" />
        </mxCell>
        <mxCell id="zyauot9mx-XSJbakR70K-100" value="Nid" style="text;html=1;strokeColor=none;fillColor=none;align=center;verticalAlign=middle;whiteSpace=wrap;rounded=0;fontColor=#FF0000;" vertex="1" parent="zyauot9mx-XSJbakR70K-1">
          <mxGeometry x="80" y="105" width="20" height="10" as="geometry" />
        </mxCell>
        <mxCell id="zyauot9mx-XSJbakR70K-101" value="&lt;font color=&quot;#0000FF&quot;&gt;Sorce&lt;/font&gt;" style="text;html=1;strokeColor=none;fillColor=none;align=center;verticalAlign=middle;whiteSpace=wrap;rounded=0;fontColor=#FF0000;" vertex="1" parent="zyauot9mx-XSJbakR70K-1">
          <mxGeometry x="80" y="155" width="20" height="10" as="geometry" />
        </mxCell>
        <mxCell id="zyauot9mx-XSJbakR70K-102" value="" style="shape=umlActor;verticalLabelPosition=bottom;labelBackgroundColor=#ffffff;verticalAlign=top;html=1;outlineConnect=0;strokeColor=#663300;fontColor=#FF0000;" vertex="1" parent="zyauot9mx-XSJbakR70K-1">
          <mxGeometry x="37.5" y="117.5" width="5" height="5" as="geometry" />
        </mxCell>
        <mxCell id="zyauot9mx-XSJbakR70K-103" value="" style="rounded=0;whiteSpace=wrap;html=1;strokeColor=#663300;fontColor=#FF0000;fillColor=none;" vertex="1" parent="zyauot9mx-XSJbakR70K-1">
          <mxGeometry x="160" y="115" width="240" height="40" as="geometry" />
        </mxCell>
        <mxCell id="zyauot9mx-XSJbakR70K-104" value="Nid" style="text;html=1;strokeColor=none;fillColor=none;align=center;verticalAlign=middle;whiteSpace=wrap;rounded=0;fontColor=#FF0000;" vertex="1" parent="zyauot9mx-XSJbakR70K-1">
          <mxGeometry x="170" y="130" width="20" height="10" as="geometry" />
        </mxCell>
        <mxCell id="zyauot9mx-XSJbakR70K-106" value="B" style="text;html=1;strokeColor=none;fillColor=none;align=center;verticalAlign=middle;whiteSpace=wrap;rounded=0;fontColor=#000000;fontSize=6;fontStyle=1" vertex="1" parent="zyauot9mx-XSJbakR70K-1">
          <mxGeometry x="47.5" y="117.5" width="35" height="25" as="geometry" />
        </mxCell>
        <mxCell id="zyauot9mx-XSJbakR70K-107" value="C" style="text;html=1;strokeColor=none;fillColor=none;align=center;verticalAlign=middle;whiteSpace=wrap;rounded=0;fontColor=#000000;fontSize=6;fontStyle=1" vertex="1" parent="zyauot9mx-XSJbakR70K-1">
          <mxGeometry x="7.5" y="132.5" width="35" height="25" as="geometry" />
        </mxCell>
        <mxCell id="zyauot9mx-XSJbakR70K-108" value="D" style="text;html=1;strokeColor=none;fillColor=none;align=center;verticalAlign=middle;whiteSpace=wrap;rounded=0;fontColor=#000000;fontSize=6;fontStyle=1" vertex="1" parent="zyauot9mx-XSJbakR70K-1">
          <mxGeometry x="32.5" y="147.5" width="35" height="25" as="geometry" />
        </mxCell>
        <mxCell id="zyauot9mx-XSJbakR70K-109" value="E" style="text;html=1;strokeColor=none;fillColor=none;align=center;verticalAlign=middle;whiteSpace=wrap;rounded=0;fontColor=#000000;fontSize=6;fontStyle=1" vertex="1" parent="zyauot9mx-XSJbakR70K-1">
          <mxGeometry x="37.5" y="167.5" width="35" height="25" as="geometry" />
        </mxCell>
        <mxCell id="zyauot9mx-XSJbakR70K-110" value="" style="shape=umlActor;verticalLabelPosition=bottom;labelBackgroundColor=#ffffff;verticalAlign=top;html=1;outlineConnect=0;strokeColor=#663300;fontColor=#FF0000;" vertex="1" parent="zyauot9mx-XSJbakR70K-1">
          <mxGeometry x="150" y="132.5" width="5" height="5" as="geometry" />
        </mxCell>
        <mxCell id="zyauot9mx-XSJbakR70K-128" value="" style="shape=umlActor;verticalLabelPosition=bottom;labelBackgroundColor=#ffffff;verticalAlign=top;html=1;outlineConnect=0;strokeColor=#663300;fontColor=#FF0000;" vertex="1" parent="zyauot9mx-XSJbakR70K-1">
          <mxGeometry x="20" y="233.5" width="5" height="5" as="geometry" />
        </mxCell>
        <mxCell id="zyauot9mx-XSJbakR70K-129" value="" style="rounded=0;whiteSpace=wrap;html=1;strokeColor=#663300;fontColor=#FF0000;fillColor=none;" vertex="1" parent="zyauot9mx-XSJbakR70K-1">
          <mxGeometry x="160" y="217.5" width="240" height="40" as="geometry" />
        </mxCell>
        <mxCell id="zyauot9mx-XSJbakR70K-130" value="Nid" style="text;html=1;strokeColor=none;fillColor=none;align=center;verticalAlign=middle;whiteSpace=wrap;rounded=0;fontColor=#FF0000;" vertex="1" parent="zyauot9mx-XSJbakR70K-1">
          <mxGeometry x="170" y="232.5" width="20" height="10" as="geometry" />
        </mxCell>
        <mxCell id="zyauot9mx-XSJbakR70K-132" value="C" style="text;html=1;strokeColor=none;fillColor=none;align=center;verticalAlign=middle;whiteSpace=wrap;rounded=0;fontColor=#000000;fontSize=6;fontStyle=1" vertex="1" parent="zyauot9mx-XSJbakR70K-1">
          <mxGeometry x="7.5" y="235" width="35" height="25" as="geometry" />
        </mxCell>
        <mxCell id="zyauot9mx-XSJbakR70K-135" value="" style="shape=umlActor;verticalLabelPosition=bottom;labelBackgroundColor=#ffffff;verticalAlign=top;html=1;outlineConnect=0;strokeColor=#663300;fontColor=#FF0000;" vertex="1" parent="zyauot9mx-XSJbakR70K-1">
          <mxGeometry x="150" y="235" width="5" height="5" as="geometry" />
        </mxCell>
        <mxCell id="zyauot9mx-XSJbakR70K-136" value="&lt;font style=&quot;font-size: 12px&quot;&gt;C&lt;/font&gt;" style="text;html=1;strokeColor=none;fillColor=none;align=center;verticalAlign=middle;whiteSpace=wrap;rounded=0;fontColor=#000000;fontSize=6;fontStyle=1" vertex="1" parent="zyauot9mx-XSJbakR70K-1">
          <mxGeometry x="200" y="217.5" width="40" height="40" as="geometry" />
        </mxCell>
        <mxCell id="zyauot9mx-XSJbakR70K-167" value="" style="ellipse;whiteSpace=wrap;html=1;aspect=fixed;" vertex="1" parent="zyauot9mx-XSJbakR70K-1">
          <mxGeometry x="60" y="330" width="10" height="10" as="geometry" />
        </mxCell>
        <mxCell id="zyauot9mx-XSJbakR70K-168" value="B" style="text;html=1;strokeColor=none;fillColor=none;align=center;verticalAlign=middle;whiteSpace=wrap;rounded=0;fontColor=#000000;fontSize=6;fontStyle=1" vertex="1" parent="zyauot9mx-XSJbakR70K-1">
          <mxGeometry x="47.5" y="322.5" width="35" height="25" as="geometry" />
        </mxCell>
        <mxCell id="zyauot9mx-XSJbakR70K-169" value="" style="ellipse;whiteSpace=wrap;html=1;aspect=fixed;labelBorderColor=#FF0000;strokeColor=#FF0000;fillColor=#f8cecc;" vertex="1" parent="zyauot9mx-XSJbakR70K-1">
          <mxGeometry x="70" y="310" width="10" height="10" as="geometry" />
        </mxCell>
        <mxCell id="zyauot9mx-XSJbakR70K-170" value="" style="ellipse;whiteSpace=wrap;html=1;aspect=fixed;fillColor=#dae8fc;strokeColor=#0000FF;" vertex="1" parent="zyauot9mx-XSJbakR70K-1">
          <mxGeometry x="45" y="360" width="10" height="10" as="geometry" />
        </mxCell>
        <mxCell id="zyauot9mx-XSJbakR70K-171" value="D" style="text;html=1;strokeColor=none;fillColor=none;align=center;verticalAlign=middle;whiteSpace=wrap;rounded=0;fontColor=#000000;fontSize=6;fontStyle=1" vertex="1" parent="zyauot9mx-XSJbakR70K-1">
          <mxGeometry x="32.5" y="352.5" width="35" height="25" as="geometry" />
        </mxCell>
        <mxCell id="zyauot9mx-XSJbakR70K-172" value="" style="ellipse;whiteSpace=wrap;html=1;aspect=fixed;" vertex="1" parent="zyauot9mx-XSJbakR70K-1">
          <mxGeometry x="50" y="380" width="10" height="10" as="geometry" />
        </mxCell>
        <mxCell id="zyauot9mx-XSJbakR70K-173" value="E" style="text;html=1;strokeColor=none;fillColor=none;align=center;verticalAlign=middle;whiteSpace=wrap;rounded=0;fontColor=#000000;fontSize=6;fontStyle=1" vertex="1" parent="zyauot9mx-XSJbakR70K-1">
          <mxGeometry x="37.5" y="372.5" width="35" height="25" as="geometry" />
        </mxCell>
        <mxCell id="zyauot9mx-XSJbakR70K-175" style="edgeStyle=none;rounded=0;orthogonalLoop=1;jettySize=auto;html=1;exitX=0;exitY=0.5;exitDx=0;exitDy=0;entryX=1;entryY=0;entryDx=0;entryDy=0;endArrow=none;endFill=0;" edge="1" parent="zyauot9mx-XSJbakR70K-1" source="zyauot9mx-XSJbakR70K-167" target="zyauot9mx-XSJbakR70K-174">
          <mxGeometry relative="1" as="geometry" />
        </mxCell>
        <mxCell id="zyauot9mx-XSJbakR70K-176" style="edgeStyle=none;rounded=0;orthogonalLoop=1;jettySize=auto;html=1;exitX=0.302;exitY=1.028;exitDx=0;exitDy=0;entryX=0.686;entryY=0.144;entryDx=0;entryDy=0;entryPerimeter=0;endArrow=none;endFill=0;exitPerimeter=0;" edge="1" parent="zyauot9mx-XSJbakR70K-1" source="zyauot9mx-XSJbakR70K-167" target="zyauot9mx-XSJbakR70K-170">
          <mxGeometry relative="1" as="geometry" />
        </mxCell>
        <mxCell id="zyauot9mx-XSJbakR70K-177" style="edgeStyle=none;rounded=0;orthogonalLoop=1;jettySize=auto;html=1;exitX=1;exitY=1;exitDx=0;exitDy=0;entryX=0;entryY=0;entryDx=0;entryDy=0;endArrow=none;endFill=0;" edge="1" parent="zyauot9mx-XSJbakR70K-1" source="zyauot9mx-XSJbakR70K-174" target="zyauot9mx-XSJbakR70K-170">
          <mxGeometry relative="1" as="geometry" />
        </mxCell>
        <mxCell id="zyauot9mx-XSJbakR70K-178" style="edgeStyle=none;rounded=0;orthogonalLoop=1;jettySize=auto;html=1;exitX=0.5;exitY=1;exitDx=0;exitDy=0;entryX=0.14;entryY=0.353;entryDx=0;entryDy=0;entryPerimeter=0;endArrow=none;endFill=0;" edge="1" parent="zyauot9mx-XSJbakR70K-1" source="zyauot9mx-XSJbakR70K-174" target="zyauot9mx-XSJbakR70K-172">
          <mxGeometry relative="1" as="geometry" />
        </mxCell>
        <mxCell id="zyauot9mx-XSJbakR70K-179" style="edgeStyle=none;rounded=0;orthogonalLoop=1;jettySize=auto;html=1;exitX=0.5;exitY=0;exitDx=0;exitDy=0;entryX=0;entryY=0.5;entryDx=0;entryDy=0;endArrow=none;endFill=0;" edge="1" parent="zyauot9mx-XSJbakR70K-1" source="zyauot9mx-XSJbakR70K-174" target="zyauot9mx-XSJbakR70K-169">
          <mxGeometry relative="1" as="geometry" />
        </mxCell>
        <mxCell id="zyauot9mx-XSJbakR70K-180" style="edgeStyle=none;rounded=0;orthogonalLoop=1;jettySize=auto;html=1;exitX=0.674;exitY=0.051;exitDx=0;exitDy=0;entryX=0.5;entryY=1;entryDx=0;entryDy=0;endArrow=none;endFill=0;exitPerimeter=0;" edge="1" parent="zyauot9mx-XSJbakR70K-1" source="zyauot9mx-XSJbakR70K-172" target="zyauot9mx-XSJbakR70K-167">
          <mxGeometry relative="1" as="geometry" />
        </mxCell>
        <mxCell id="zyauot9mx-XSJbakR70K-181" style="edgeStyle=none;rounded=0;orthogonalLoop=1;jettySize=auto;html=1;exitX=0.302;exitY=0.005;exitDx=0;exitDy=0;endArrow=none;endFill=0;exitPerimeter=0;" edge="1" parent="zyauot9mx-XSJbakR70K-1" source="zyauot9mx-XSJbakR70K-172" target="zyauot9mx-XSJbakR70K-170">
          <mxGeometry relative="1" as="geometry" />
        </mxCell>
        <mxCell id="zyauot9mx-XSJbakR70K-182" style="rounded=0;orthogonalLoop=1;jettySize=auto;html=1;exitX=0;exitY=1;exitDx=0;exitDy=0;entryX=0.674;entryY=0.028;entryDx=0;entryDy=0;entryPerimeter=0;endArrow=none;endFill=0;" edge="1" parent="zyauot9mx-XSJbakR70K-1" source="zyauot9mx-XSJbakR70K-169" target="zyauot9mx-XSJbakR70K-167">
          <mxGeometry relative="1" as="geometry" />
        </mxCell>
        <mxCell id="zyauot9mx-XSJbakR70K-183" value="Nid" style="text;html=1;strokeColor=none;fillColor=none;align=center;verticalAlign=middle;whiteSpace=wrap;rounded=0;fontColor=#FF0000;" vertex="1" parent="zyauot9mx-XSJbakR70K-1">
          <mxGeometry x="80" y="310" width="20" height="10" as="geometry" />
        </mxCell>
        <mxCell id="zyauot9mx-XSJbakR70K-184" value="&lt;font color=&quot;#0000FF&quot;&gt;Sorce&lt;/font&gt;" style="text;html=1;strokeColor=none;fillColor=none;align=center;verticalAlign=middle;whiteSpace=wrap;rounded=0;fontColor=#FF0000;" vertex="1" parent="zyauot9mx-XSJbakR70K-1">
          <mxGeometry x="80" y="360" width="20" height="10" as="geometry" />
        </mxCell>
        <mxCell id="zyauot9mx-XSJbakR70K-185" value="" style="shape=umlActor;verticalLabelPosition=bottom;labelBackgroundColor=#ffffff;verticalAlign=top;html=1;outlineConnect=0;strokeColor=#663300;fontColor=#FF0000;" vertex="1" parent="zyauot9mx-XSJbakR70K-1">
          <mxGeometry x="44" y="341.5" width="5" height="5" as="geometry" />
        </mxCell>
        <mxCell id="zyauot9mx-XSJbakR70K-186" value="" style="rounded=0;whiteSpace=wrap;html=1;strokeColor=#663300;fontColor=#FF0000;fillColor=none;" vertex="1" parent="zyauot9mx-XSJbakR70K-1">
          <mxGeometry x="160" y="320" width="240" height="40" as="geometry" />
        </mxCell>
        <mxCell id="zyauot9mx-XSJbakR70K-187" value="Nid" style="text;html=1;strokeColor=none;fillColor=none;align=center;verticalAlign=middle;whiteSpace=wrap;rounded=0;fontColor=#FF0000;" vertex="1" parent="zyauot9mx-XSJbakR70K-1">
          <mxGeometry x="170" y="335" width="20" height="10" as="geometry" />
        </mxCell>
        <mxCell id="zyauot9mx-XSJbakR70K-188" value="" style="shape=umlActor;verticalLabelPosition=bottom;labelBackgroundColor=#ffffff;verticalAlign=top;html=1;outlineConnect=0;strokeColor=#663300;fontColor=#FF0000;" vertex="1" parent="zyauot9mx-XSJbakR70K-1">
          <mxGeometry x="150" y="337.5" width="5" height="5" as="geometry" />
        </mxCell>
        <mxCell id="zyauot9mx-XSJbakR70K-189" value="&lt;font style=&quot;font-size: 12px&quot;&gt;C&lt;/font&gt;" style="text;html=1;strokeColor=none;fillColor=none;align=center;verticalAlign=middle;whiteSpace=wrap;rounded=0;fontColor=#000000;fontSize=6;fontStyle=1" vertex="1" parent="zyauot9mx-XSJbakR70K-1">
          <mxGeometry x="200" y="320" width="40" height="40" as="geometry" />
        </mxCell>
        <mxCell id="zyauot9mx-XSJbakR70K-191" value="" style="ellipse;whiteSpace=wrap;html=1;aspect=fixed;" vertex="1" parent="zyauot9mx-XSJbakR70K-1">
          <mxGeometry x="60" y="430" width="10" height="10" as="geometry" />
        </mxCell>
        <mxCell id="zyauot9mx-XSJbakR70K-192" value="B" style="text;html=1;strokeColor=none;fillColor=none;align=center;verticalAlign=middle;whiteSpace=wrap;rounded=0;fontColor=#000000;fontSize=6;fontStyle=1" vertex="1" parent="zyauot9mx-XSJbakR70K-1">
          <mxGeometry x="47.5" y="422.5" width="35" height="25" as="geometry" />
        </mxCell>
        <mxCell id="zyauot9mx-XSJbakR70K-193" value="" style="ellipse;whiteSpace=wrap;html=1;aspect=fixed;labelBorderColor=#FF0000;strokeColor=#FF0000;fillColor=#f8cecc;" vertex="1" parent="zyauot9mx-XSJbakR70K-1">
          <mxGeometry x="70" y="410" width="10" height="10" as="geometry" />
        </mxCell>
        <mxCell id="zyauot9mx-XSJbakR70K-194" value="" style="ellipse;whiteSpace=wrap;html=1;aspect=fixed;fillColor=#dae8fc;strokeColor=#0000FF;" vertex="1" parent="zyauot9mx-XSJbakR70K-1">
          <mxGeometry x="45" y="460" width="10" height="10" as="geometry" />
        </mxCell>
        <mxCell id="zyauot9mx-XSJbakR70K-195" value="D" style="text;html=1;strokeColor=none;fillColor=none;align=center;verticalAlign=middle;whiteSpace=wrap;rounded=0;fontColor=#000000;fontSize=6;fontStyle=1" vertex="1" parent="zyauot9mx-XSJbakR70K-1">
          <mxGeometry x="32.5" y="452.5" width="35" height="25" as="geometry" />
        </mxCell>
        <mxCell id="zyauot9mx-XSJbakR70K-196" value="" style="ellipse;whiteSpace=wrap;html=1;aspect=fixed;" vertex="1" parent="zyauot9mx-XSJbakR70K-1">
          <mxGeometry x="50" y="480" width="10" height="10" as="geometry" />
        </mxCell>
        <mxCell id="zyauot9mx-XSJbakR70K-197" value="E" style="text;html=1;strokeColor=none;fillColor=none;align=center;verticalAlign=middle;whiteSpace=wrap;rounded=0;fontColor=#000000;fontSize=6;fontStyle=1" vertex="1" parent="zyauot9mx-XSJbakR70K-1">
          <mxGeometry x="37.5" y="472.5" width="35" height="25" as="geometry" />
        </mxCell>
        <mxCell id="zyauot9mx-XSJbakR70K-199" style="edgeStyle=none;rounded=0;orthogonalLoop=1;jettySize=auto;html=1;exitX=0;exitY=0.5;exitDx=0;exitDy=0;entryX=1;entryY=0;entryDx=0;entryDy=0;endArrow=none;endFill=0;" edge="1" parent="zyauot9mx-XSJbakR70K-1" source="zyauot9mx-XSJbakR70K-191" target="zyauot9mx-XSJbakR70K-198">
          <mxGeometry relative="1" as="geometry" />
        </mxCell>
        <mxCell id="zyauot9mx-XSJbakR70K-200" style="edgeStyle=none;rounded=0;orthogonalLoop=1;jettySize=auto;html=1;exitX=0.302;exitY=1.028;exitDx=0;exitDy=0;entryX=0.686;entryY=0.144;entryDx=0;entryDy=0;entryPerimeter=0;endArrow=none;endFill=0;exitPerimeter=0;" edge="1" parent="zyauot9mx-XSJbakR70K-1" source="zyauot9mx-XSJbakR70K-191" target="zyauot9mx-XSJbakR70K-194">
          <mxGeometry relative="1" as="geometry" />
        </mxCell>
        <mxCell id="zyauot9mx-XSJbakR70K-201" style="edgeStyle=none;rounded=0;orthogonalLoop=1;jettySize=auto;html=1;exitX=1;exitY=1;exitDx=0;exitDy=0;entryX=0;entryY=0;entryDx=0;entryDy=0;endArrow=none;endFill=0;" edge="1" parent="zyauot9mx-XSJbakR70K-1" source="zyauot9mx-XSJbakR70K-198" target="zyauot9mx-XSJbakR70K-194">
          <mxGeometry relative="1" as="geometry" />
        </mxCell>
        <mxCell id="zyauot9mx-XSJbakR70K-202" style="edgeStyle=none;rounded=0;orthogonalLoop=1;jettySize=auto;html=1;exitX=0.5;exitY=1;exitDx=0;exitDy=0;entryX=0.14;entryY=0.353;entryDx=0;entryDy=0;entryPerimeter=0;endArrow=none;endFill=0;" edge="1" parent="zyauot9mx-XSJbakR70K-1" source="zyauot9mx-XSJbakR70K-198" target="zyauot9mx-XSJbakR70K-196">
          <mxGeometry relative="1" as="geometry" />
        </mxCell>
        <mxCell id="zyauot9mx-XSJbakR70K-203" style="edgeStyle=none;rounded=0;orthogonalLoop=1;jettySize=auto;html=1;exitX=0.5;exitY=0;exitDx=0;exitDy=0;entryX=0;entryY=0.5;entryDx=0;entryDy=0;endArrow=none;endFill=0;" edge="1" parent="zyauot9mx-XSJbakR70K-1" source="zyauot9mx-XSJbakR70K-198" target="zyauot9mx-XSJbakR70K-193">
          <mxGeometry relative="1" as="geometry" />
        </mxCell>
        <mxCell id="zyauot9mx-XSJbakR70K-204" style="edgeStyle=none;rounded=0;orthogonalLoop=1;jettySize=auto;html=1;exitX=0.674;exitY=0.051;exitDx=0;exitDy=0;entryX=0.5;entryY=1;entryDx=0;entryDy=0;endArrow=none;endFill=0;exitPerimeter=0;" edge="1" parent="zyauot9mx-XSJbakR70K-1" source="zyauot9mx-XSJbakR70K-196" target="zyauot9mx-XSJbakR70K-191">
          <mxGeometry relative="1" as="geometry" />
        </mxCell>
        <mxCell id="zyauot9mx-XSJbakR70K-205" style="edgeStyle=none;rounded=0;orthogonalLoop=1;jettySize=auto;html=1;exitX=0.302;exitY=0.005;exitDx=0;exitDy=0;endArrow=none;endFill=0;exitPerimeter=0;" edge="1" parent="zyauot9mx-XSJbakR70K-1" source="zyauot9mx-XSJbakR70K-196" target="zyauot9mx-XSJbakR70K-194">
          <mxGeometry relative="1" as="geometry" />
        </mxCell>
        <mxCell id="zyauot9mx-XSJbakR70K-206" style="rounded=0;orthogonalLoop=1;jettySize=auto;html=1;exitX=0;exitY=1;exitDx=0;exitDy=0;entryX=0.674;entryY=0.028;entryDx=0;entryDy=0;entryPerimeter=0;endArrow=none;endFill=0;" edge="1" parent="zyauot9mx-XSJbakR70K-1" source="zyauot9mx-XSJbakR70K-193" target="zyauot9mx-XSJbakR70K-191">
          <mxGeometry relative="1" as="geometry" />
        </mxCell>
        <mxCell id="zyauot9mx-XSJbakR70K-207" value="Nid" style="text;html=1;strokeColor=none;fillColor=none;align=center;verticalAlign=middle;whiteSpace=wrap;rounded=0;fontColor=#FF0000;" vertex="1" parent="zyauot9mx-XSJbakR70K-1">
          <mxGeometry x="80" y="410" width="20" height="10" as="geometry" />
        </mxCell>
        <mxCell id="zyauot9mx-XSJbakR70K-208" value="&lt;font color=&quot;#0000FF&quot;&gt;Sorce&lt;/font&gt;" style="text;html=1;strokeColor=none;fillColor=none;align=center;verticalAlign=middle;whiteSpace=wrap;rounded=0;fontColor=#FF0000;" vertex="1" parent="zyauot9mx-XSJbakR70K-1">
          <mxGeometry x="80" y="460" width="20" height="10" as="geometry" />
        </mxCell>
        <mxCell id="zyauot9mx-XSJbakR70K-209" value="" style="shape=umlActor;verticalLabelPosition=bottom;labelBackgroundColor=#ffffff;verticalAlign=top;html=1;outlineConnect=0;strokeColor=#663300;fontColor=#FF0000;" vertex="1" parent="zyauot9mx-XSJbakR70K-1">
          <mxGeometry x="72" y="427.5" width="5" height="5" as="geometry" />
        </mxCell>
        <mxCell id="zyauot9mx-XSJbakR70K-210" value="" style="rounded=0;whiteSpace=wrap;html=1;strokeColor=#663300;fontColor=#FF0000;fillColor=none;" vertex="1" parent="zyauot9mx-XSJbakR70K-1">
          <mxGeometry x="160" y="420" width="240" height="40" as="geometry" />
        </mxCell>
        <mxCell id="zyauot9mx-XSJbakR70K-211" value="Nid" style="text;html=1;strokeColor=none;fillColor=none;align=center;verticalAlign=middle;whiteSpace=wrap;rounded=0;fontColor=#FF0000;" vertex="1" parent="zyauot9mx-XSJbakR70K-1">
          <mxGeometry x="170" y="435" width="20" height="10" as="geometry" />
        </mxCell>
        <mxCell id="zyauot9mx-XSJbakR70K-212" value="" style="shape=umlActor;verticalLabelPosition=bottom;labelBackgroundColor=#ffffff;verticalAlign=top;html=1;outlineConnect=0;strokeColor=#663300;fontColor=#FF0000;" vertex="1" parent="zyauot9mx-XSJbakR70K-1">
          <mxGeometry x="150" y="437.5" width="5" height="5" as="geometry" />
        </mxCell>
        <mxCell id="zyauot9mx-XSJbakR70K-213" value="&lt;font style=&quot;font-size: 12px&quot;&gt;C&lt;/font&gt;" style="text;html=1;strokeColor=none;fillColor=none;align=center;verticalAlign=middle;whiteSpace=wrap;rounded=0;fontColor=#000000;fontSize=6;fontStyle=1" vertex="1" parent="zyauot9mx-XSJbakR70K-1">
          <mxGeometry x="200" y="420" width="40" height="40" as="geometry" />
        </mxCell>
        <mxCell id="zyauot9mx-XSJbakR70K-214" value="&lt;font style=&quot;font-size: 12px&quot;&gt;B&lt;/font&gt;" style="text;html=1;strokeColor=none;fillColor=none;align=center;verticalAlign=middle;whiteSpace=wrap;rounded=0;fontColor=#000000;fontSize=6;fontStyle=1" vertex="1" parent="zyauot9mx-XSJbakR70K-1">
          <mxGeometry x="240" y="420" width="40" height="40" as="geometry" />
        </mxCell>
        <mxCell id="zyauot9mx-XSJbakR70K-216" value="" style="ellipse;whiteSpace=wrap;html=1;aspect=fixed;" vertex="1" parent="zyauot9mx-XSJbakR70K-1">
          <mxGeometry x="60" y="530" width="10" height="10" as="geometry" />
        </mxCell>
        <mxCell id="zyauot9mx-XSJbakR70K-217" value="B" style="text;html=1;strokeColor=none;fillColor=none;align=center;verticalAlign=middle;whiteSpace=wrap;rounded=0;fontColor=#000000;fontSize=6;fontStyle=1" vertex="1" parent="zyauot9mx-XSJbakR70K-1">
          <mxGeometry x="47.5" y="522.5" width="35" height="25" as="geometry" />
        </mxCell>
        <mxCell id="zyauot9mx-XSJbakR70K-218" value="" style="ellipse;whiteSpace=wrap;html=1;aspect=fixed;labelBorderColor=#FF0000;strokeColor=#FF0000;fillColor=#f8cecc;" vertex="1" parent="zyauot9mx-XSJbakR70K-1">
          <mxGeometry x="70" y="510" width="10" height="10" as="geometry" />
        </mxCell>
        <mxCell id="zyauot9mx-XSJbakR70K-219" value="" style="ellipse;whiteSpace=wrap;html=1;aspect=fixed;fillColor=#dae8fc;strokeColor=#0000FF;" vertex="1" parent="zyauot9mx-XSJbakR70K-1">
          <mxGeometry x="45" y="560" width="10" height="10" as="geometry" />
        </mxCell>
        <mxCell id="zyauot9mx-XSJbakR70K-220" value="D" style="text;html=1;strokeColor=none;fillColor=none;align=center;verticalAlign=middle;whiteSpace=wrap;rounded=0;fontColor=#000000;fontSize=6;fontStyle=1" vertex="1" parent="zyauot9mx-XSJbakR70K-1">
          <mxGeometry x="32.5" y="552.5" width="35" height="25" as="geometry" />
        </mxCell>
        <mxCell id="zyauot9mx-XSJbakR70K-221" value="" style="ellipse;whiteSpace=wrap;html=1;aspect=fixed;" vertex="1" parent="zyauot9mx-XSJbakR70K-1">
          <mxGeometry x="50" y="580" width="10" height="10" as="geometry" />
        </mxCell>
        <mxCell id="zyauot9mx-XSJbakR70K-222" value="E" style="text;html=1;strokeColor=none;fillColor=none;align=center;verticalAlign=middle;whiteSpace=wrap;rounded=0;fontColor=#000000;fontSize=6;fontStyle=1" vertex="1" parent="zyauot9mx-XSJbakR70K-1">
          <mxGeometry x="37.5" y="572.5" width="35" height="25" as="geometry" />
        </mxCell>
        <mxCell id="zyauot9mx-XSJbakR70K-224" style="edgeStyle=none;rounded=0;orthogonalLoop=1;jettySize=auto;html=1;exitX=0;exitY=0.5;exitDx=0;exitDy=0;entryX=1;entryY=0;entryDx=0;entryDy=0;endArrow=none;endFill=0;" edge="1" parent="zyauot9mx-XSJbakR70K-1" source="zyauot9mx-XSJbakR70K-216" target="zyauot9mx-XSJbakR70K-223">
          <mxGeometry relative="1" as="geometry" />
        </mxCell>
        <mxCell id="zyauot9mx-XSJbakR70K-225" style="edgeStyle=none;rounded=0;orthogonalLoop=1;jettySize=auto;html=1;exitX=0.302;exitY=1.028;exitDx=0;exitDy=0;entryX=0.686;entryY=0.144;entryDx=0;entryDy=0;entryPerimeter=0;endArrow=none;endFill=0;exitPerimeter=0;" edge="1" parent="zyauot9mx-XSJbakR70K-1" source="zyauot9mx-XSJbakR70K-216" target="zyauot9mx-XSJbakR70K-219">
          <mxGeometry relative="1" as="geometry" />
        </mxCell>
        <mxCell id="zyauot9mx-XSJbakR70K-226" style="edgeStyle=none;rounded=0;orthogonalLoop=1;jettySize=auto;html=1;exitX=1;exitY=1;exitDx=0;exitDy=0;entryX=0;entryY=0;entryDx=0;entryDy=0;endArrow=none;endFill=0;" edge="1" parent="zyauot9mx-XSJbakR70K-1" source="zyauot9mx-XSJbakR70K-223" target="zyauot9mx-XSJbakR70K-219">
          <mxGeometry relative="1" as="geometry" />
        </mxCell>
        <mxCell id="zyauot9mx-XSJbakR70K-227" style="edgeStyle=none;rounded=0;orthogonalLoop=1;jettySize=auto;html=1;exitX=0.5;exitY=1;exitDx=0;exitDy=0;entryX=0.14;entryY=0.353;entryDx=0;entryDy=0;entryPerimeter=0;endArrow=none;endFill=0;" edge="1" parent="zyauot9mx-XSJbakR70K-1" source="zyauot9mx-XSJbakR70K-223" target="zyauot9mx-XSJbakR70K-221">
          <mxGeometry relative="1" as="geometry" />
        </mxCell>
        <mxCell id="zyauot9mx-XSJbakR70K-228" style="edgeStyle=none;rounded=0;orthogonalLoop=1;jettySize=auto;html=1;exitX=0.5;exitY=0;exitDx=0;exitDy=0;entryX=0;entryY=0.5;entryDx=0;entryDy=0;endArrow=none;endFill=0;" edge="1" parent="zyauot9mx-XSJbakR70K-1" source="zyauot9mx-XSJbakR70K-223" target="zyauot9mx-XSJbakR70K-218">
          <mxGeometry relative="1" as="geometry" />
        </mxCell>
        <mxCell id="zyauot9mx-XSJbakR70K-229" style="edgeStyle=none;rounded=0;orthogonalLoop=1;jettySize=auto;html=1;exitX=0.674;exitY=0.051;exitDx=0;exitDy=0;entryX=0.5;entryY=1;entryDx=0;entryDy=0;endArrow=none;endFill=0;exitPerimeter=0;" edge="1" parent="zyauot9mx-XSJbakR70K-1" source="zyauot9mx-XSJbakR70K-221" target="zyauot9mx-XSJbakR70K-216">
          <mxGeometry relative="1" as="geometry" />
        </mxCell>
        <mxCell id="zyauot9mx-XSJbakR70K-230" style="edgeStyle=none;rounded=0;orthogonalLoop=1;jettySize=auto;html=1;exitX=0.302;exitY=0.005;exitDx=0;exitDy=0;endArrow=none;endFill=0;exitPerimeter=0;" edge="1" parent="zyauot9mx-XSJbakR70K-1" source="zyauot9mx-XSJbakR70K-221" target="zyauot9mx-XSJbakR70K-219">
          <mxGeometry relative="1" as="geometry" />
        </mxCell>
        <mxCell id="zyauot9mx-XSJbakR70K-231" style="rounded=0;orthogonalLoop=1;jettySize=auto;html=1;exitX=0;exitY=1;exitDx=0;exitDy=0;entryX=0.674;entryY=0.028;entryDx=0;entryDy=0;entryPerimeter=0;endArrow=none;endFill=0;" edge="1" parent="zyauot9mx-XSJbakR70K-1" source="zyauot9mx-XSJbakR70K-218" target="zyauot9mx-XSJbakR70K-216">
          <mxGeometry relative="1" as="geometry" />
        </mxCell>
        <mxCell id="zyauot9mx-XSJbakR70K-232" value="Nid" style="text;html=1;strokeColor=none;fillColor=none;align=center;verticalAlign=middle;whiteSpace=wrap;rounded=0;fontColor=#FF0000;" vertex="1" parent="zyauot9mx-XSJbakR70K-1">
          <mxGeometry x="80" y="510" width="20" height="10" as="geometry" />
        </mxCell>
        <mxCell id="zyauot9mx-XSJbakR70K-233" value="&lt;font color=&quot;#0000FF&quot;&gt;Sorce&lt;/font&gt;" style="text;html=1;strokeColor=none;fillColor=none;align=center;verticalAlign=middle;whiteSpace=wrap;rounded=0;fontColor=#FF0000;" vertex="1" parent="zyauot9mx-XSJbakR70K-1">
          <mxGeometry x="80" y="560" width="20" height="10" as="geometry" />
        </mxCell>
        <mxCell id="zyauot9mx-XSJbakR70K-234" value="" style="shape=umlActor;verticalLabelPosition=bottom;labelBackgroundColor=#ffffff;verticalAlign=top;html=1;outlineConnect=0;strokeColor=#663300;fontColor=#FF0000;" vertex="1" parent="zyauot9mx-XSJbakR70K-1">
          <mxGeometry x="52.5" y="547.5" width="5" height="5" as="geometry" />
        </mxCell>
        <mxCell id="zyauot9mx-XSJbakR70K-235" value="" style="rounded=0;whiteSpace=wrap;html=1;strokeColor=#663300;fontColor=#FF0000;fillColor=none;" vertex="1" parent="zyauot9mx-XSJbakR70K-1">
          <mxGeometry x="160" y="520" width="240" height="40" as="geometry" />
        </mxCell>
        <mxCell id="zyauot9mx-XSJbakR70K-236" value="Nid" style="text;html=1;strokeColor=none;fillColor=none;align=center;verticalAlign=middle;whiteSpace=wrap;rounded=0;fontColor=#FF0000;" vertex="1" parent="zyauot9mx-XSJbakR70K-1">
          <mxGeometry x="170" y="535" width="20" height="10" as="geometry" />
        </mxCell>
        <mxCell id="zyauot9mx-XSJbakR70K-237" value="" style="shape=umlActor;verticalLabelPosition=bottom;labelBackgroundColor=#ffffff;verticalAlign=top;html=1;outlineConnect=0;strokeColor=#663300;fontColor=#FF0000;" vertex="1" parent="zyauot9mx-XSJbakR70K-1">
          <mxGeometry x="150" y="537.5" width="5" height="5" as="geometry" />
        </mxCell>
        <mxCell id="zyauot9mx-XSJbakR70K-238" value="&lt;font style=&quot;font-size: 12px&quot;&gt;C&lt;/font&gt;" style="text;html=1;strokeColor=none;fillColor=none;align=center;verticalAlign=middle;whiteSpace=wrap;rounded=0;fontColor=#000000;fontSize=6;fontStyle=1" vertex="1" parent="zyauot9mx-XSJbakR70K-1">
          <mxGeometry x="200" y="520" width="40" height="40" as="geometry" />
        </mxCell>
        <mxCell id="zyauot9mx-XSJbakR70K-239" value="&lt;font style=&quot;font-size: 12px&quot;&gt;B&lt;/font&gt;" style="text;html=1;strokeColor=none;fillColor=none;align=center;verticalAlign=middle;whiteSpace=wrap;rounded=0;fontColor=#000000;fontSize=6;fontStyle=1" vertex="1" parent="zyauot9mx-XSJbakR70K-1">
          <mxGeometry x="240" y="520" width="40" height="40" as="geometry" />
        </mxCell>
        <mxCell id="zyauot9mx-XSJbakR70K-240" value="" style="ellipse;whiteSpace=wrap;html=1;aspect=fixed;" vertex="1" parent="zyauot9mx-XSJbakR70K-1">
          <mxGeometry x="60" y="630" width="10" height="10" as="geometry" />
        </mxCell>
        <mxCell id="zyauot9mx-XSJbakR70K-241" value="B" style="text;html=1;strokeColor=none;fillColor=none;align=center;verticalAlign=middle;whiteSpace=wrap;rounded=0;fontColor=#000000;fontSize=6;fontStyle=1" vertex="1" parent="zyauot9mx-XSJbakR70K-1">
          <mxGeometry x="47.5" y="622.5" width="35" height="25" as="geometry" />
        </mxCell>
        <mxCell id="zyauot9mx-XSJbakR70K-242" value="" style="ellipse;whiteSpace=wrap;html=1;aspect=fixed;labelBorderColor=#FF0000;strokeColor=#FF0000;fillColor=#f8cecc;" vertex="1" parent="zyauot9mx-XSJbakR70K-1">
          <mxGeometry x="70" y="610" width="10" height="10" as="geometry" />
        </mxCell>
        <mxCell id="zyauot9mx-XSJbakR70K-243" value="" style="ellipse;whiteSpace=wrap;html=1;aspect=fixed;fillColor=#dae8fc;strokeColor=#0000FF;" vertex="1" parent="zyauot9mx-XSJbakR70K-1">
          <mxGeometry x="45" y="660" width="10" height="10" as="geometry" />
        </mxCell>
        <mxCell id="zyauot9mx-XSJbakR70K-244" value="D" style="text;html=1;strokeColor=none;fillColor=none;align=center;verticalAlign=middle;whiteSpace=wrap;rounded=0;fontColor=#000000;fontSize=6;fontStyle=1" vertex="1" parent="zyauot9mx-XSJbakR70K-1">
          <mxGeometry x="32.5" y="652.5" width="35" height="25" as="geometry" />
        </mxCell>
        <mxCell id="zyauot9mx-XSJbakR70K-245" value="" style="ellipse;whiteSpace=wrap;html=1;aspect=fixed;" vertex="1" parent="zyauot9mx-XSJbakR70K-1">
          <mxGeometry x="50" y="680" width="10" height="10" as="geometry" />
        </mxCell>
        <mxCell id="zyauot9mx-XSJbakR70K-246" value="E" style="text;html=1;strokeColor=none;fillColor=none;align=center;verticalAlign=middle;whiteSpace=wrap;rounded=0;fontColor=#000000;fontSize=6;fontStyle=1" vertex="1" parent="zyauot9mx-XSJbakR70K-1">
          <mxGeometry x="37.5" y="772.5" width="35" height="25" as="geometry" />
        </mxCell>
        <mxCell id="zyauot9mx-XSJbakR70K-248" style="edgeStyle=none;rounded=0;orthogonalLoop=1;jettySize=auto;html=1;exitX=0;exitY=0.5;exitDx=0;exitDy=0;entryX=1;entryY=0;entryDx=0;entryDy=0;endArrow=none;endFill=0;" edge="1" parent="zyauot9mx-XSJbakR70K-1" source="zyauot9mx-XSJbakR70K-240" target="zyauot9mx-XSJbakR70K-247">
          <mxGeometry relative="1" as="geometry" />
        </mxCell>
        <mxCell id="zyauot9mx-XSJbakR70K-249" style="edgeStyle=none;rounded=0;orthogonalLoop=1;jettySize=auto;html=1;exitX=0.302;exitY=1.028;exitDx=0;exitDy=0;entryX=0.686;entryY=0.144;entryDx=0;entryDy=0;entryPerimeter=0;endArrow=none;endFill=0;exitPerimeter=0;" edge="1" parent="zyauot9mx-XSJbakR70K-1" source="zyauot9mx-XSJbakR70K-240" target="zyauot9mx-XSJbakR70K-243">
          <mxGeometry relative="1" as="geometry" />
        </mxCell>
        <mxCell id="zyauot9mx-XSJbakR70K-250" style="edgeStyle=none;rounded=0;orthogonalLoop=1;jettySize=auto;html=1;exitX=1;exitY=1;exitDx=0;exitDy=0;entryX=0;entryY=0;entryDx=0;entryDy=0;endArrow=none;endFill=0;" edge="1" parent="zyauot9mx-XSJbakR70K-1" source="zyauot9mx-XSJbakR70K-247" target="zyauot9mx-XSJbakR70K-243">
          <mxGeometry relative="1" as="geometry" />
        </mxCell>
        <mxCell id="zyauot9mx-XSJbakR70K-251" style="edgeStyle=none;rounded=0;orthogonalLoop=1;jettySize=auto;html=1;exitX=0.5;exitY=1;exitDx=0;exitDy=0;entryX=0.14;entryY=0.353;entryDx=0;entryDy=0;entryPerimeter=0;endArrow=none;endFill=0;" edge="1" parent="zyauot9mx-XSJbakR70K-1" source="zyauot9mx-XSJbakR70K-247" target="zyauot9mx-XSJbakR70K-245">
          <mxGeometry relative="1" as="geometry" />
        </mxCell>
        <mxCell id="zyauot9mx-XSJbakR70K-252" style="edgeStyle=none;rounded=0;orthogonalLoop=1;jettySize=auto;html=1;exitX=0.5;exitY=0;exitDx=0;exitDy=0;entryX=0;entryY=0.5;entryDx=0;entryDy=0;endArrow=none;endFill=0;" edge="1" parent="zyauot9mx-XSJbakR70K-1" source="zyauot9mx-XSJbakR70K-247" target="zyauot9mx-XSJbakR70K-242">
          <mxGeometry relative="1" as="geometry" />
        </mxCell>
        <mxCell id="zyauot9mx-XSJbakR70K-253" style="edgeStyle=none;rounded=0;orthogonalLoop=1;jettySize=auto;html=1;exitX=0.674;exitY=0.051;exitDx=0;exitDy=0;entryX=0.5;entryY=1;entryDx=0;entryDy=0;endArrow=none;endFill=0;exitPerimeter=0;" edge="1" parent="zyauot9mx-XSJbakR70K-1" source="zyauot9mx-XSJbakR70K-245" target="zyauot9mx-XSJbakR70K-240">
          <mxGeometry relative="1" as="geometry" />
        </mxCell>
        <mxCell id="zyauot9mx-XSJbakR70K-254" style="edgeStyle=none;rounded=0;orthogonalLoop=1;jettySize=auto;html=1;exitX=0.302;exitY=0.005;exitDx=0;exitDy=0;endArrow=none;endFill=0;exitPerimeter=0;" edge="1" parent="zyauot9mx-XSJbakR70K-1" source="zyauot9mx-XSJbakR70K-245" target="zyauot9mx-XSJbakR70K-243">
          <mxGeometry relative="1" as="geometry" />
        </mxCell>
        <mxCell id="zyauot9mx-XSJbakR70K-255" style="rounded=0;orthogonalLoop=1;jettySize=auto;html=1;exitX=0;exitY=1;exitDx=0;exitDy=0;entryX=0.674;entryY=0.028;entryDx=0;entryDy=0;entryPerimeter=0;endArrow=none;endFill=0;" edge="1" parent="zyauot9mx-XSJbakR70K-1" source="zyauot9mx-XSJbakR70K-242" target="zyauot9mx-XSJbakR70K-240">
          <mxGeometry relative="1" as="geometry" />
        </mxCell>
        <mxCell id="zyauot9mx-XSJbakR70K-256" value="Nid" style="text;html=1;strokeColor=none;fillColor=none;align=center;verticalAlign=middle;whiteSpace=wrap;rounded=0;fontColor=#FF0000;" vertex="1" parent="zyauot9mx-XSJbakR70K-1">
          <mxGeometry x="80" y="610" width="20" height="10" as="geometry" />
        </mxCell>
        <mxCell id="zyauot9mx-XSJbakR70K-257" value="&lt;font color=&quot;#0000FF&quot;&gt;Sorce&lt;/font&gt;" style="text;html=1;strokeColor=none;fillColor=none;align=center;verticalAlign=middle;whiteSpace=wrap;rounded=0;fontColor=#FF0000;" vertex="1" parent="zyauot9mx-XSJbakR70K-1">
          <mxGeometry x="80" y="660" width="20" height="10" as="geometry" />
        </mxCell>
        <mxCell id="zyauot9mx-XSJbakR70K-258" value="" style="shape=umlActor;verticalLabelPosition=bottom;labelBackgroundColor=#ffffff;verticalAlign=top;html=1;outlineConnect=0;strokeColor=#663300;fontColor=#FF0000;" vertex="1" parent="zyauot9mx-XSJbakR70K-1">
          <mxGeometry x="47" y="653.5" width="5" height="5" as="geometry" />
        </mxCell>
        <mxCell id="zyauot9mx-XSJbakR70K-259" value="" style="rounded=0;whiteSpace=wrap;html=1;strokeColor=#663300;fontColor=#FF0000;fillColor=none;" vertex="1" parent="zyauot9mx-XSJbakR70K-1">
          <mxGeometry x="160" y="620" width="240" height="40" as="geometry" />
        </mxCell>
        <mxCell id="zyauot9mx-XSJbakR70K-260" value="Nid" style="text;html=1;strokeColor=none;fillColor=none;align=center;verticalAlign=middle;whiteSpace=wrap;rounded=0;fontColor=#FF0000;" vertex="1" parent="zyauot9mx-XSJbakR70K-1">
          <mxGeometry x="170" y="635" width="20" height="10" as="geometry" />
        </mxCell>
        <mxCell id="zyauot9mx-XSJbakR70K-261" value="" style="shape=umlActor;verticalLabelPosition=bottom;labelBackgroundColor=#ffffff;verticalAlign=top;html=1;outlineConnect=0;strokeColor=#663300;fontColor=#FF0000;" vertex="1" parent="zyauot9mx-XSJbakR70K-1">
          <mxGeometry x="150" y="637.5" width="5" height="5" as="geometry" />
        </mxCell>
        <mxCell id="zyauot9mx-XSJbakR70K-262" value="&lt;font style=&quot;font-size: 12px&quot;&gt;C&lt;/font&gt;" style="text;html=1;strokeColor=none;fillColor=none;align=center;verticalAlign=middle;whiteSpace=wrap;rounded=0;fontColor=#000000;fontSize=6;fontStyle=1" vertex="1" parent="zyauot9mx-XSJbakR70K-1">
          <mxGeometry x="200" y="620" width="40" height="40" as="geometry" />
        </mxCell>
        <mxCell id="zyauot9mx-XSJbakR70K-263" value="&lt;font style=&quot;font-size: 12px&quot;&gt;B&lt;/font&gt;" style="text;html=1;strokeColor=none;fillColor=none;align=center;verticalAlign=middle;whiteSpace=wrap;rounded=0;fontColor=#000000;fontSize=6;fontStyle=1" vertex="1" parent="zyauot9mx-XSJbakR70K-1">
          <mxGeometry x="240" y="620" width="40" height="40" as="geometry" />
        </mxCell>
        <mxCell id="zyauot9mx-XSJbakR70K-265" value="Source" style="text;html=1;strokeColor=none;fillColor=none;align=center;verticalAlign=middle;whiteSpace=wrap;rounded=0;fontColor=#0000FF;" vertex="1" parent="zyauot9mx-XSJbakR70K-1">
          <mxGeometry x="290" y="635" width="20" height="10" as="geometry" />
        </mxCell>
        <mxCell id="zyauot9mx-XSJbakR70K-316" value="" style="ellipse;whiteSpace=wrap;html=1;aspect=fixed;" vertex="1" parent="zyauot9mx-XSJbakR70K-1">
          <mxGeometry x="462.5" y="30" width="10" height="10" as="geometry" />
        </mxCell>
        <mxCell id="zyauot9mx-XSJbakR70K-317" value="B" style="text;html=1;strokeColor=none;fillColor=none;align=center;verticalAlign=middle;whiteSpace=wrap;rounded=0;fontColor=#000000;fontSize=6;fontStyle=1" vertex="1" parent="zyauot9mx-XSJbakR70K-1">
          <mxGeometry x="450" y="22.5" width="35" height="25" as="geometry" />
        </mxCell>
        <mxCell id="zyauot9mx-XSJbakR70K-318" value="" style="ellipse;whiteSpace=wrap;html=1;aspect=fixed;labelBorderColor=#FF0000;strokeColor=#FF0000;fillColor=#f8cecc;" vertex="1" parent="zyauot9mx-XSJbakR70K-1">
          <mxGeometry x="472.5" y="10" width="10" height="10" as="geometry" />
        </mxCell>
        <mxCell id="zyauot9mx-XSJbakR70K-319" value="" style="ellipse;whiteSpace=wrap;html=1;aspect=fixed;fillColor=#dae8fc;strokeColor=#0000FF;" vertex="1" parent="zyauot9mx-XSJbakR70K-1">
          <mxGeometry x="447.5" y="60" width="10" height="10" as="geometry" />
        </mxCell>
        <mxCell id="zyauot9mx-XSJbakR70K-320" value="D" style="text;html=1;strokeColor=none;fillColor=none;align=center;verticalAlign=middle;whiteSpace=wrap;rounded=0;fontColor=#000000;fontSize=6;fontStyle=1" vertex="1" parent="zyauot9mx-XSJbakR70K-1">
          <mxGeometry x="435" y="52.5" width="35" height="25" as="geometry" />
        </mxCell>
        <mxCell id="zyauot9mx-XSJbakR70K-321" value="" style="ellipse;whiteSpace=wrap;html=1;aspect=fixed;" vertex="1" parent="zyauot9mx-XSJbakR70K-1">
          <mxGeometry x="452.5" y="80" width="10" height="10" as="geometry" />
        </mxCell>
        <mxCell id="zyauot9mx-XSJbakR70K-322" value="E" style="text;html=1;strokeColor=none;fillColor=none;align=center;verticalAlign=middle;whiteSpace=wrap;rounded=0;fontColor=#000000;fontSize=6;fontStyle=1" vertex="1" parent="zyauot9mx-XSJbakR70K-1">
          <mxGeometry x="440" y="72.5" width="35" height="25" as="geometry" />
        </mxCell>
        <mxCell id="zyauot9mx-XSJbakR70K-323" value="" style="ellipse;whiteSpace=wrap;html=1;aspect=fixed;" vertex="1" parent="zyauot9mx-XSJbakR70K-1">
          <mxGeometry x="422.5" y="45" width="10" height="10" as="geometry" />
        </mxCell>
        <mxCell id="zyauot9mx-XSJbakR70K-324" style="edgeStyle=none;rounded=0;orthogonalLoop=1;jettySize=auto;html=1;exitX=0;exitY=0.5;exitDx=0;exitDy=0;entryX=1;entryY=0;entryDx=0;entryDy=0;endArrow=none;endFill=0;" edge="1" parent="zyauot9mx-XSJbakR70K-1" source="zyauot9mx-XSJbakR70K-316" target="zyauot9mx-XSJbakR70K-323">
          <mxGeometry relative="1" as="geometry" />
        </mxCell>
        <mxCell id="zyauot9mx-XSJbakR70K-325" style="edgeStyle=none;rounded=0;orthogonalLoop=1;jettySize=auto;html=1;exitX=0.302;exitY=1.028;exitDx=0;exitDy=0;entryX=0.686;entryY=0.144;entryDx=0;entryDy=0;entryPerimeter=0;endArrow=none;endFill=0;exitPerimeter=0;" edge="1" parent="zyauot9mx-XSJbakR70K-1" source="zyauot9mx-XSJbakR70K-316" target="zyauot9mx-XSJbakR70K-319">
          <mxGeometry relative="1" as="geometry" />
        </mxCell>
        <mxCell id="zyauot9mx-XSJbakR70K-326" style="edgeStyle=none;rounded=0;orthogonalLoop=1;jettySize=auto;html=1;exitX=1;exitY=1;exitDx=0;exitDy=0;entryX=0;entryY=0;entryDx=0;entryDy=0;endArrow=none;endFill=0;" edge="1" parent="zyauot9mx-XSJbakR70K-1" source="zyauot9mx-XSJbakR70K-323" target="zyauot9mx-XSJbakR70K-319">
          <mxGeometry relative="1" as="geometry" />
        </mxCell>
        <mxCell id="zyauot9mx-XSJbakR70K-327" style="edgeStyle=none;rounded=0;orthogonalLoop=1;jettySize=auto;html=1;exitX=0.5;exitY=1;exitDx=0;exitDy=0;entryX=0.14;entryY=0.353;entryDx=0;entryDy=0;entryPerimeter=0;endArrow=none;endFill=0;" edge="1" parent="zyauot9mx-XSJbakR70K-1" source="zyauot9mx-XSJbakR70K-323" target="zyauot9mx-XSJbakR70K-321">
          <mxGeometry relative="1" as="geometry" />
        </mxCell>
        <mxCell id="zyauot9mx-XSJbakR70K-328" style="edgeStyle=none;rounded=0;orthogonalLoop=1;jettySize=auto;html=1;exitX=0.5;exitY=0;exitDx=0;exitDy=0;entryX=0;entryY=0.5;entryDx=0;entryDy=0;endArrow=none;endFill=0;" edge="1" parent="zyauot9mx-XSJbakR70K-1" source="zyauot9mx-XSJbakR70K-323" target="zyauot9mx-XSJbakR70K-318">
          <mxGeometry relative="1" as="geometry" />
        </mxCell>
        <mxCell id="zyauot9mx-XSJbakR70K-329" style="edgeStyle=none;rounded=0;orthogonalLoop=1;jettySize=auto;html=1;exitX=0.674;exitY=0.051;exitDx=0;exitDy=0;entryX=0.5;entryY=1;entryDx=0;entryDy=0;endArrow=none;endFill=0;exitPerimeter=0;" edge="1" parent="zyauot9mx-XSJbakR70K-1" source="zyauot9mx-XSJbakR70K-321" target="zyauot9mx-XSJbakR70K-316">
          <mxGeometry relative="1" as="geometry" />
        </mxCell>
        <mxCell id="zyauot9mx-XSJbakR70K-330" style="edgeStyle=none;rounded=0;orthogonalLoop=1;jettySize=auto;html=1;exitX=0.302;exitY=0.005;exitDx=0;exitDy=0;endArrow=none;endFill=0;exitPerimeter=0;" edge="1" parent="zyauot9mx-XSJbakR70K-1" source="zyauot9mx-XSJbakR70K-321" target="zyauot9mx-XSJbakR70K-319">
          <mxGeometry relative="1" as="geometry" />
        </mxCell>
        <mxCell id="zyauot9mx-XSJbakR70K-331" style="rounded=0;orthogonalLoop=1;jettySize=auto;html=1;exitX=0;exitY=1;exitDx=0;exitDy=0;entryX=0.674;entryY=0.028;entryDx=0;entryDy=0;entryPerimeter=0;endArrow=none;endFill=0;" edge="1" parent="zyauot9mx-XSJbakR70K-1" source="zyauot9mx-XSJbakR70K-318" target="zyauot9mx-XSJbakR70K-316">
          <mxGeometry relative="1" as="geometry" />
        </mxCell>
        <mxCell id="zyauot9mx-XSJbakR70K-332" value="Nid" style="text;html=1;strokeColor=none;fillColor=none;align=center;verticalAlign=middle;whiteSpace=wrap;rounded=0;fontColor=#FF0000;" vertex="1" parent="zyauot9mx-XSJbakR70K-1">
          <mxGeometry x="482.5" y="10" width="20" height="10" as="geometry" />
        </mxCell>
        <mxCell id="zyauot9mx-XSJbakR70K-333" value="&lt;font color=&quot;#0000FF&quot;&gt;Sorce&lt;/font&gt;" style="text;html=1;strokeColor=none;fillColor=none;align=center;verticalAlign=middle;whiteSpace=wrap;rounded=0;fontColor=#FF0000;" vertex="1" parent="zyauot9mx-XSJbakR70K-1">
          <mxGeometry x="482.5" y="60" width="20" height="10" as="geometry" />
        </mxCell>
        <mxCell id="zyauot9mx-XSJbakR70K-334" value="" style="shape=umlActor;verticalLabelPosition=bottom;labelBackgroundColor=#ffffff;verticalAlign=top;html=1;outlineConnect=0;strokeColor=#663300;fontColor=#FF0000;" vertex="1" parent="zyauot9mx-XSJbakR70K-1">
          <mxGeometry x="455" y="47.5" width="5" height="5" as="geometry" />
        </mxCell>
        <mxCell id="zyauot9mx-XSJbakR70K-335" value="" style="rounded=0;whiteSpace=wrap;html=1;strokeColor=#663300;fontColor=#FF0000;fillColor=none;" vertex="1" parent="zyauot9mx-XSJbakR70K-1">
          <mxGeometry x="562.5" y="20" width="240" height="40" as="geometry" />
        </mxCell>
        <mxCell id="zyauot9mx-XSJbakR70K-336" value="Nid" style="text;html=1;strokeColor=none;fillColor=none;align=center;verticalAlign=middle;whiteSpace=wrap;rounded=0;fontColor=#FF0000;" vertex="1" parent="zyauot9mx-XSJbakR70K-1">
          <mxGeometry x="572.5" y="35" width="20" height="10" as="geometry" />
        </mxCell>
        <mxCell id="zyauot9mx-XSJbakR70K-337" value="" style="shape=umlActor;verticalLabelPosition=bottom;labelBackgroundColor=#ffffff;verticalAlign=top;html=1;outlineConnect=0;strokeColor=#663300;fontColor=#FF0000;" vertex="1" parent="zyauot9mx-XSJbakR70K-1">
          <mxGeometry x="552.5" y="37.5" width="5" height="5" as="geometry" />
        </mxCell>
        <mxCell id="zyauot9mx-XSJbakR70K-338" value="&lt;font style=&quot;font-size: 12px&quot;&gt;C&lt;/font&gt;" style="text;html=1;strokeColor=none;fillColor=none;align=center;verticalAlign=middle;whiteSpace=wrap;rounded=0;fontColor=#000000;fontSize=6;fontStyle=1" vertex="1" parent="zyauot9mx-XSJbakR70K-1">
          <mxGeometry x="602.5" y="20" width="40" height="40" as="geometry" />
        </mxCell>
        <mxCell id="zyauot9mx-XSJbakR70K-339" value="&lt;font style=&quot;font-size: 12px&quot;&gt;B&lt;/font&gt;" style="text;html=1;strokeColor=none;fillColor=none;align=center;verticalAlign=middle;whiteSpace=wrap;rounded=0;fontColor=#000000;fontSize=6;fontStyle=1" vertex="1" parent="zyauot9mx-XSJbakR70K-1">
          <mxGeometry x="642.5" y="20" width="40" height="40" as="geometry" />
        </mxCell>
        <mxCell id="zyauot9mx-XSJbakR70K-340" value="" style="ellipse;whiteSpace=wrap;html=1;aspect=fixed;" vertex="1" parent="zyauot9mx-XSJbakR70K-1">
          <mxGeometry x="462.5" y="130" width="10" height="10" as="geometry" />
        </mxCell>
        <mxCell id="zyauot9mx-XSJbakR70K-341" value="B" style="text;html=1;strokeColor=none;fillColor=none;align=center;verticalAlign=middle;whiteSpace=wrap;rounded=0;fontColor=#000000;fontSize=6;fontStyle=1" vertex="1" parent="zyauot9mx-XSJbakR70K-1">
          <mxGeometry x="450" y="122.5" width="35" height="25" as="geometry" />
        </mxCell>
        <mxCell id="zyauot9mx-XSJbakR70K-342" value="" style="ellipse;whiteSpace=wrap;html=1;aspect=fixed;labelBorderColor=#FF0000;strokeColor=#FF0000;fillColor=#f8cecc;" vertex="1" parent="zyauot9mx-XSJbakR70K-1">
          <mxGeometry x="472.5" y="110" width="10" height="10" as="geometry" />
        </mxCell>
        <mxCell id="zyauot9mx-XSJbakR70K-343" value="" style="ellipse;whiteSpace=wrap;html=1;aspect=fixed;fillColor=#dae8fc;strokeColor=#0000FF;" vertex="1" parent="zyauot9mx-XSJbakR70K-1">
          <mxGeometry x="447.5" y="160" width="10" height="10" as="geometry" />
        </mxCell>
        <mxCell id="zyauot9mx-XSJbakR70K-344" value="D" style="text;html=1;strokeColor=none;fillColor=none;align=center;verticalAlign=middle;whiteSpace=wrap;rounded=0;fontColor=#000000;fontSize=6;fontStyle=1" vertex="1" parent="zyauot9mx-XSJbakR70K-1">
          <mxGeometry x="435" y="152.5" width="35" height="25" as="geometry" />
        </mxCell>
        <mxCell id="zyauot9mx-XSJbakR70K-345" value="" style="ellipse;whiteSpace=wrap;html=1;aspect=fixed;" vertex="1" parent="zyauot9mx-XSJbakR70K-1">
          <mxGeometry x="452.5" y="180" width="10" height="10" as="geometry" />
        </mxCell>
        <mxCell id="zyauot9mx-XSJbakR70K-347" style="edgeStyle=none;rounded=0;orthogonalLoop=1;jettySize=auto;html=1;exitX=0;exitY=0.5;exitDx=0;exitDy=0;entryX=1;entryY=0;entryDx=0;entryDy=0;endArrow=none;endFill=0;" edge="1" parent="zyauot9mx-XSJbakR70K-1" source="zyauot9mx-XSJbakR70K-340" target="zyauot9mx-XSJbakR70K-346">
          <mxGeometry relative="1" as="geometry" />
        </mxCell>
        <mxCell id="zyauot9mx-XSJbakR70K-348" style="edgeStyle=none;rounded=0;orthogonalLoop=1;jettySize=auto;html=1;exitX=0.302;exitY=1.028;exitDx=0;exitDy=0;entryX=0.686;entryY=0.144;entryDx=0;entryDy=0;entryPerimeter=0;endArrow=none;endFill=0;exitPerimeter=0;" edge="1" parent="zyauot9mx-XSJbakR70K-1" source="zyauot9mx-XSJbakR70K-340" target="zyauot9mx-XSJbakR70K-343">
          <mxGeometry relative="1" as="geometry" />
        </mxCell>
        <mxCell id="zyauot9mx-XSJbakR70K-349" style="edgeStyle=none;rounded=0;orthogonalLoop=1;jettySize=auto;html=1;exitX=1;exitY=1;exitDx=0;exitDy=0;entryX=0;entryY=0;entryDx=0;entryDy=0;endArrow=none;endFill=0;" edge="1" parent="zyauot9mx-XSJbakR70K-1" source="zyauot9mx-XSJbakR70K-346" target="zyauot9mx-XSJbakR70K-343">
          <mxGeometry relative="1" as="geometry" />
        </mxCell>
        <mxCell id="zyauot9mx-XSJbakR70K-350" style="edgeStyle=none;rounded=0;orthogonalLoop=1;jettySize=auto;html=1;exitX=0.5;exitY=1;exitDx=0;exitDy=0;entryX=0.14;entryY=0.353;entryDx=0;entryDy=0;entryPerimeter=0;endArrow=none;endFill=0;" edge="1" parent="zyauot9mx-XSJbakR70K-1" source="zyauot9mx-XSJbakR70K-346" target="zyauot9mx-XSJbakR70K-345">
          <mxGeometry relative="1" as="geometry" />
        </mxCell>
        <mxCell id="zyauot9mx-XSJbakR70K-351" style="edgeStyle=none;rounded=0;orthogonalLoop=1;jettySize=auto;html=1;exitX=0.5;exitY=0;exitDx=0;exitDy=0;entryX=0;entryY=0.5;entryDx=0;entryDy=0;endArrow=none;endFill=0;" edge="1" parent="zyauot9mx-XSJbakR70K-1" source="zyauot9mx-XSJbakR70K-346" target="zyauot9mx-XSJbakR70K-342">
          <mxGeometry relative="1" as="geometry" />
        </mxCell>
        <mxCell id="zyauot9mx-XSJbakR70K-352" style="edgeStyle=none;rounded=0;orthogonalLoop=1;jettySize=auto;html=1;exitX=0.674;exitY=0.051;exitDx=0;exitDy=0;entryX=0.5;entryY=1;entryDx=0;entryDy=0;endArrow=none;endFill=0;exitPerimeter=0;" edge="1" parent="zyauot9mx-XSJbakR70K-1" source="zyauot9mx-XSJbakR70K-345" target="zyauot9mx-XSJbakR70K-340">
          <mxGeometry relative="1" as="geometry" />
        </mxCell>
        <mxCell id="zyauot9mx-XSJbakR70K-353" style="edgeStyle=none;rounded=0;orthogonalLoop=1;jettySize=auto;html=1;exitX=0.302;exitY=0.005;exitDx=0;exitDy=0;endArrow=none;endFill=0;exitPerimeter=0;" edge="1" parent="zyauot9mx-XSJbakR70K-1" source="zyauot9mx-XSJbakR70K-345" target="zyauot9mx-XSJbakR70K-343">
          <mxGeometry relative="1" as="geometry" />
        </mxCell>
        <mxCell id="zyauot9mx-XSJbakR70K-354" style="rounded=0;orthogonalLoop=1;jettySize=auto;html=1;exitX=0;exitY=1;exitDx=0;exitDy=0;entryX=0.674;entryY=0.028;entryDx=0;entryDy=0;entryPerimeter=0;endArrow=none;endFill=0;" edge="1" parent="zyauot9mx-XSJbakR70K-1" source="zyauot9mx-XSJbakR70K-342" target="zyauot9mx-XSJbakR70K-340">
          <mxGeometry relative="1" as="geometry" />
        </mxCell>
        <mxCell id="zyauot9mx-XSJbakR70K-355" value="Nid" style="text;html=1;strokeColor=none;fillColor=none;align=center;verticalAlign=middle;whiteSpace=wrap;rounded=0;fontColor=#FF0000;" vertex="1" parent="zyauot9mx-XSJbakR70K-1">
          <mxGeometry x="482.5" y="110" width="20" height="10" as="geometry" />
        </mxCell>
        <mxCell id="zyauot9mx-XSJbakR70K-356" value="&lt;font color=&quot;#0000FF&quot;&gt;Sorce&lt;/font&gt;" style="text;html=1;strokeColor=none;fillColor=none;align=center;verticalAlign=middle;whiteSpace=wrap;rounded=0;fontColor=#FF0000;" vertex="1" parent="zyauot9mx-XSJbakR70K-1">
          <mxGeometry x="482.5" y="160" width="20" height="10" as="geometry" />
        </mxCell>
        <mxCell id="zyauot9mx-XSJbakR70K-357" value="" style="shape=umlActor;verticalLabelPosition=bottom;labelBackgroundColor=#ffffff;verticalAlign=top;html=1;outlineConnect=0;strokeColor=#663300;fontColor=#FF0000;" vertex="1" parent="zyauot9mx-XSJbakR70K-1">
          <mxGeometry x="474.5" y="127.5" width="5" height="5" as="geometry" />
        </mxCell>
        <mxCell id="zyauot9mx-XSJbakR70K-358" value="" style="rounded=0;whiteSpace=wrap;html=1;strokeColor=#663300;fontColor=#FF0000;fillColor=none;" vertex="1" parent="zyauot9mx-XSJbakR70K-1">
          <mxGeometry x="562.5" y="120" width="240" height="40" as="geometry" />
        </mxCell>
        <mxCell id="zyauot9mx-XSJbakR70K-359" value="Nid" style="text;html=1;strokeColor=none;fillColor=none;align=center;verticalAlign=middle;whiteSpace=wrap;rounded=0;fontColor=#FF0000;" vertex="1" parent="zyauot9mx-XSJbakR70K-1">
          <mxGeometry x="572.5" y="135" width="20" height="10" as="geometry" />
        </mxCell>
        <mxCell id="zyauot9mx-XSJbakR70K-360" value="" style="shape=umlActor;verticalLabelPosition=bottom;labelBackgroundColor=#ffffff;verticalAlign=top;html=1;outlineConnect=0;strokeColor=#663300;fontColor=#FF0000;" vertex="1" parent="zyauot9mx-XSJbakR70K-1">
          <mxGeometry x="552.5" y="137.5" width="5" height="5" as="geometry" />
        </mxCell>
        <mxCell id="zyauot9mx-XSJbakR70K-361" value="&lt;font style=&quot;font-size: 12px&quot;&gt;C&lt;/font&gt;" style="text;html=1;strokeColor=none;fillColor=none;align=center;verticalAlign=middle;whiteSpace=wrap;rounded=0;fontColor=#000000;fontSize=6;fontStyle=1" vertex="1" parent="zyauot9mx-XSJbakR70K-1">
          <mxGeometry x="602.5" y="120" width="40" height="40" as="geometry" />
        </mxCell>
        <mxCell id="zyauot9mx-XSJbakR70K-363" value="" style="ellipse;whiteSpace=wrap;html=1;aspect=fixed;" vertex="1" parent="zyauot9mx-XSJbakR70K-1">
          <mxGeometry x="462.5" y="230" width="10" height="10" as="geometry" />
        </mxCell>
        <mxCell id="zyauot9mx-XSJbakR70K-364" value="B" style="text;html=1;strokeColor=none;fillColor=none;align=center;verticalAlign=middle;whiteSpace=wrap;rounded=0;fontColor=#000000;fontSize=6;fontStyle=1" vertex="1" parent="zyauot9mx-XSJbakR70K-1">
          <mxGeometry x="450" y="222.5" width="35" height="25" as="geometry" />
        </mxCell>
        <mxCell id="zyauot9mx-XSJbakR70K-365" value="" style="ellipse;whiteSpace=wrap;html=1;aspect=fixed;labelBorderColor=#FF0000;strokeColor=#FF0000;fillColor=#f8cecc;" vertex="1" parent="zyauot9mx-XSJbakR70K-1">
          <mxGeometry x="472.5" y="210" width="10" height="10" as="geometry" />
        </mxCell>
        <mxCell id="zyauot9mx-XSJbakR70K-366" value="" style="ellipse;whiteSpace=wrap;html=1;aspect=fixed;fillColor=#dae8fc;strokeColor=#0000FF;" vertex="1" parent="zyauot9mx-XSJbakR70K-1">
          <mxGeometry x="447.5" y="260" width="10" height="10" as="geometry" />
        </mxCell>
        <mxCell id="zyauot9mx-XSJbakR70K-367" value="D" style="text;html=1;strokeColor=none;fillColor=none;align=center;verticalAlign=middle;whiteSpace=wrap;rounded=0;fontColor=#000000;fontSize=6;fontStyle=1" vertex="1" parent="zyauot9mx-XSJbakR70K-1">
          <mxGeometry x="435" y="252.5" width="35" height="25" as="geometry" />
        </mxCell>
        <mxCell id="zyauot9mx-XSJbakR70K-368" value="" style="ellipse;whiteSpace=wrap;html=1;aspect=fixed;" vertex="1" parent="zyauot9mx-XSJbakR70K-1">
          <mxGeometry x="452.5" y="280" width="10" height="10" as="geometry" />
        </mxCell>
        <mxCell id="zyauot9mx-XSJbakR70K-369" value="" style="ellipse;whiteSpace=wrap;html=1;aspect=fixed;" vertex="1" parent="zyauot9mx-XSJbakR70K-1">
          <mxGeometry x="422.5" y="245" width="10" height="10" as="geometry" />
        </mxCell>
        <mxCell id="zyauot9mx-XSJbakR70K-370" style="edgeStyle=none;rounded=0;orthogonalLoop=1;jettySize=auto;html=1;exitX=0;exitY=0.5;exitDx=0;exitDy=0;entryX=1;entryY=0;entryDx=0;entryDy=0;endArrow=none;endFill=0;" edge="1" parent="zyauot9mx-XSJbakR70K-1" source="zyauot9mx-XSJbakR70K-363" target="zyauot9mx-XSJbakR70K-369">
          <mxGeometry relative="1" as="geometry" />
        </mxCell>
        <mxCell id="zyauot9mx-XSJbakR70K-371" style="edgeStyle=none;rounded=0;orthogonalLoop=1;jettySize=auto;html=1;exitX=0.302;exitY=1.028;exitDx=0;exitDy=0;entryX=0.686;entryY=0.144;entryDx=0;entryDy=0;entryPerimeter=0;endArrow=none;endFill=0;exitPerimeter=0;" edge="1" parent="zyauot9mx-XSJbakR70K-1" source="zyauot9mx-XSJbakR70K-363" target="zyauot9mx-XSJbakR70K-366">
          <mxGeometry relative="1" as="geometry" />
        </mxCell>
        <mxCell id="zyauot9mx-XSJbakR70K-372" style="edgeStyle=none;rounded=0;orthogonalLoop=1;jettySize=auto;html=1;exitX=1;exitY=1;exitDx=0;exitDy=0;entryX=0;entryY=0;entryDx=0;entryDy=0;endArrow=none;endFill=0;" edge="1" parent="zyauot9mx-XSJbakR70K-1" source="zyauot9mx-XSJbakR70K-369" target="zyauot9mx-XSJbakR70K-366">
          <mxGeometry relative="1" as="geometry" />
        </mxCell>
        <mxCell id="zyauot9mx-XSJbakR70K-373" style="edgeStyle=none;rounded=0;orthogonalLoop=1;jettySize=auto;html=1;exitX=0.5;exitY=1;exitDx=0;exitDy=0;entryX=0.14;entryY=0.353;entryDx=0;entryDy=0;entryPerimeter=0;endArrow=none;endFill=0;" edge="1" parent="zyauot9mx-XSJbakR70K-1" source="zyauot9mx-XSJbakR70K-369" target="zyauot9mx-XSJbakR70K-368">
          <mxGeometry relative="1" as="geometry" />
        </mxCell>
        <mxCell id="zyauot9mx-XSJbakR70K-374" style="edgeStyle=none;rounded=0;orthogonalLoop=1;jettySize=auto;html=1;exitX=0.5;exitY=0;exitDx=0;exitDy=0;entryX=0;entryY=0.5;entryDx=0;entryDy=0;endArrow=none;endFill=0;" edge="1" parent="zyauot9mx-XSJbakR70K-1" source="zyauot9mx-XSJbakR70K-369" target="zyauot9mx-XSJbakR70K-365">
          <mxGeometry relative="1" as="geometry" />
        </mxCell>
        <mxCell id="zyauot9mx-XSJbakR70K-375" style="edgeStyle=none;rounded=0;orthogonalLoop=1;jettySize=auto;html=1;exitX=0.674;exitY=0.051;exitDx=0;exitDy=0;entryX=0.5;entryY=1;entryDx=0;entryDy=0;endArrow=none;endFill=0;exitPerimeter=0;" edge="1" parent="zyauot9mx-XSJbakR70K-1" source="zyauot9mx-XSJbakR70K-368" target="zyauot9mx-XSJbakR70K-363">
          <mxGeometry relative="1" as="geometry" />
        </mxCell>
        <mxCell id="zyauot9mx-XSJbakR70K-376" style="edgeStyle=none;rounded=0;orthogonalLoop=1;jettySize=auto;html=1;exitX=0.302;exitY=0.005;exitDx=0;exitDy=0;endArrow=none;endFill=0;exitPerimeter=0;" edge="1" parent="zyauot9mx-XSJbakR70K-1" source="zyauot9mx-XSJbakR70K-368" target="zyauot9mx-XSJbakR70K-366">
          <mxGeometry relative="1" as="geometry" />
        </mxCell>
        <mxCell id="zyauot9mx-XSJbakR70K-377" style="rounded=0;orthogonalLoop=1;jettySize=auto;html=1;exitX=0;exitY=1;exitDx=0;exitDy=0;entryX=0.674;entryY=0.028;entryDx=0;entryDy=0;entryPerimeter=0;endArrow=none;endFill=0;" edge="1" parent="zyauot9mx-XSJbakR70K-1" source="zyauot9mx-XSJbakR70K-365" target="zyauot9mx-XSJbakR70K-363">
          <mxGeometry relative="1" as="geometry" />
        </mxCell>
        <mxCell id="zyauot9mx-XSJbakR70K-378" value="Nid" style="text;html=1;strokeColor=none;fillColor=none;align=center;verticalAlign=middle;whiteSpace=wrap;rounded=0;fontColor=#FF0000;" vertex="1" parent="zyauot9mx-XSJbakR70K-1">
          <mxGeometry x="482.5" y="210" width="20" height="10" as="geometry" />
        </mxCell>
        <mxCell id="zyauot9mx-XSJbakR70K-379" value="&lt;font color=&quot;#0000FF&quot;&gt;Sorce&lt;/font&gt;" style="text;html=1;strokeColor=none;fillColor=none;align=center;verticalAlign=middle;whiteSpace=wrap;rounded=0;fontColor=#FF0000;" vertex="1" parent="zyauot9mx-XSJbakR70K-1">
          <mxGeometry x="482.5" y="260" width="20" height="10" as="geometry" />
        </mxCell>
        <mxCell id="zyauot9mx-XSJbakR70K-380" value="" style="shape=umlActor;verticalLabelPosition=bottom;labelBackgroundColor=#ffffff;verticalAlign=top;html=1;outlineConnect=0;strokeColor=#663300;fontColor=#FF0000;" vertex="1" parent="zyauot9mx-XSJbakR70K-1">
          <mxGeometry x="446.5" y="241.5" width="5" height="5" as="geometry" />
        </mxCell>
        <mxCell id="zyauot9mx-XSJbakR70K-381" value="" style="rounded=0;whiteSpace=wrap;html=1;strokeColor=#663300;fontColor=#FF0000;fillColor=none;" vertex="1" parent="zyauot9mx-XSJbakR70K-1">
          <mxGeometry x="562.5" y="220" width="240" height="40" as="geometry" />
        </mxCell>
        <mxCell id="zyauot9mx-XSJbakR70K-382" value="Nid" style="text;html=1;strokeColor=none;fillColor=none;align=center;verticalAlign=middle;whiteSpace=wrap;rounded=0;fontColor=#FF0000;" vertex="1" parent="zyauot9mx-XSJbakR70K-1">
          <mxGeometry x="572.5" y="235" width="20" height="10" as="geometry" />
        </mxCell>
        <mxCell id="zyauot9mx-XSJbakR70K-383" value="" style="shape=umlActor;verticalLabelPosition=bottom;labelBackgroundColor=#ffffff;verticalAlign=top;html=1;outlineConnect=0;strokeColor=#663300;fontColor=#FF0000;" vertex="1" parent="zyauot9mx-XSJbakR70K-1">
          <mxGeometry x="552.5" y="237.5" width="5" height="5" as="geometry" />
        </mxCell>
        <mxCell id="zyauot9mx-XSJbakR70K-384" value="&lt;font style=&quot;font-size: 12px&quot;&gt;C&lt;/font&gt;" style="text;html=1;strokeColor=none;fillColor=none;align=center;verticalAlign=middle;whiteSpace=wrap;rounded=0;fontColor=#000000;fontSize=6;fontStyle=1" vertex="1" parent="zyauot9mx-XSJbakR70K-1">
          <mxGeometry x="602.5" y="220" width="40" height="40" as="geometry" />
        </mxCell>
        <mxCell id="zyauot9mx-XSJbakR70K-385" value="C" style="text;html=1;strokeColor=none;fillColor=none;align=center;verticalAlign=middle;whiteSpace=wrap;rounded=0;fontColor=#000000;fontSize=6;fontStyle=1" vertex="1" parent="zyauot9mx-XSJbakR70K-1">
          <mxGeometry x="410" y="237.5" width="35" height="25" as="geometry" />
        </mxCell>
        <mxCell id="zyauot9mx-XSJbakR70K-390" value="C" style="text;html=1;strokeColor=none;fillColor=none;align=center;verticalAlign=middle;whiteSpace=wrap;rounded=0;fontColor=#000000;fontSize=6;fontStyle=1" vertex="1" parent="zyauot9mx-XSJbakR70K-1">
          <mxGeometry x="8" y="637.5" width="35" height="25" as="geometry" />
        </mxCell>
        <mxCell id="zyauot9mx-XSJbakR70K-393" value="C" style="text;html=1;strokeColor=none;fillColor=none;align=center;verticalAlign=middle;whiteSpace=wrap;rounded=0;fontColor=#000000;fontSize=6;fontStyle=1" vertex="1" parent="zyauot9mx-XSJbakR70K-1">
          <mxGeometry x="410" y="137.5" width="35" height="25" as="geometry" />
        </mxCell>
        <mxCell id="zyauot9mx-XSJbakR70K-394" value="C" style="text;html=1;strokeColor=none;fillColor=none;align=center;verticalAlign=middle;whiteSpace=wrap;rounded=0;fontColor=#000000;fontSize=6;fontStyle=1" vertex="1" parent="zyauot9mx-XSJbakR70K-1">
          <mxGeometry x="410" y="37.5" width="35" height="25" as="geometry" />
        </mxCell>
        <mxCell id="zyauot9mx-XSJbakR70K-395" value="A" style="text;html=1;strokeColor=none;fillColor=none;align=center;verticalAlign=middle;whiteSpace=wrap;rounded=0;fontColor=#000000;fontSize=6;fontStyle=1" vertex="1" parent="zyauot9mx-XSJbakR70K-1">
          <mxGeometry x="460" y="302.5" width="35" height="25" as="geometry" />
        </mxCell>
        <mxCell id="zyauot9mx-XSJbakR70K-396" style="edgeStyle=none;rounded=0;orthogonalLoop=1;jettySize=auto;html=1;exitX=0;exitY=0.5;exitDx=0;exitDy=0;entryX=1;entryY=0;entryDx=0;entryDy=0;endArrow=none;endFill=0;" edge="1" parent="zyauot9mx-XSJbakR70K-1" source="zyauot9mx-XSJbakR70K-398" target="zyauot9mx-XSJbakR70K-402">
          <mxGeometry relative="1" as="geometry" />
        </mxCell>
        <mxCell id="zyauot9mx-XSJbakR70K-397" style="edgeStyle=none;rounded=0;orthogonalLoop=1;jettySize=auto;html=1;exitX=0.302;exitY=1.028;exitDx=0;exitDy=0;entryX=0.686;entryY=0.144;entryDx=0;entryDy=0;entryPerimeter=0;endArrow=none;endFill=0;exitPerimeter=0;" edge="1" parent="zyauot9mx-XSJbakR70K-1" source="zyauot9mx-XSJbakR70K-398" target="zyauot9mx-XSJbakR70K-403">
          <mxGeometry relative="1" as="geometry" />
        </mxCell>
        <mxCell id="zyauot9mx-XSJbakR70K-398" value="" style="ellipse;whiteSpace=wrap;html=1;aspect=fixed;" vertex="1" parent="zyauot9mx-XSJbakR70K-1">
          <mxGeometry x="462.5" y="330" width="10" height="10" as="geometry" />
        </mxCell>
        <mxCell id="zyauot9mx-XSJbakR70K-399" style="edgeStyle=none;rounded=0;orthogonalLoop=1;jettySize=auto;html=1;exitX=1;exitY=1;exitDx=0;exitDy=0;entryX=0;entryY=0;entryDx=0;entryDy=0;endArrow=none;endFill=0;" edge="1" parent="zyauot9mx-XSJbakR70K-1" source="zyauot9mx-XSJbakR70K-402" target="zyauot9mx-XSJbakR70K-403">
          <mxGeometry relative="1" as="geometry" />
        </mxCell>
        <mxCell id="zyauot9mx-XSJbakR70K-400" style="edgeStyle=none;rounded=0;orthogonalLoop=1;jettySize=auto;html=1;exitX=0.5;exitY=1;exitDx=0;exitDy=0;entryX=0.14;entryY=0.353;entryDx=0;entryDy=0;entryPerimeter=0;endArrow=none;endFill=0;" edge="1" parent="zyauot9mx-XSJbakR70K-1" source="zyauot9mx-XSJbakR70K-402" target="zyauot9mx-XSJbakR70K-406">
          <mxGeometry relative="1" as="geometry" />
        </mxCell>
        <mxCell id="zyauot9mx-XSJbakR70K-401" style="edgeStyle=none;rounded=0;orthogonalLoop=1;jettySize=auto;html=1;exitX=0.5;exitY=0;exitDx=0;exitDy=0;entryX=0;entryY=0.5;entryDx=0;entryDy=0;endArrow=none;endFill=0;" edge="1" parent="zyauot9mx-XSJbakR70K-1" source="zyauot9mx-XSJbakR70K-402" target="zyauot9mx-XSJbakR70K-408">
          <mxGeometry relative="1" as="geometry" />
        </mxCell>
        <mxCell id="zyauot9mx-XSJbakR70K-402" value="" style="ellipse;whiteSpace=wrap;html=1;aspect=fixed;" vertex="1" parent="zyauot9mx-XSJbakR70K-1">
          <mxGeometry x="422.5" y="345" width="10" height="10" as="geometry" />
        </mxCell>
        <mxCell id="zyauot9mx-XSJbakR70K-403" value="" style="ellipse;whiteSpace=wrap;html=1;aspect=fixed;fillColor=#dae8fc;strokeColor=#0000FF;" vertex="1" parent="zyauot9mx-XSJbakR70K-1">
          <mxGeometry x="447.5" y="360" width="10" height="10" as="geometry" />
        </mxCell>
        <mxCell id="zyauot9mx-XSJbakR70K-404" style="edgeStyle=none;rounded=0;orthogonalLoop=1;jettySize=auto;html=1;exitX=0.674;exitY=0.051;exitDx=0;exitDy=0;entryX=0.5;entryY=1;entryDx=0;entryDy=0;endArrow=none;endFill=0;exitPerimeter=0;" edge="1" parent="zyauot9mx-XSJbakR70K-1" source="zyauot9mx-XSJbakR70K-406" target="zyauot9mx-XSJbakR70K-398">
          <mxGeometry relative="1" as="geometry" />
        </mxCell>
        <mxCell id="zyauot9mx-XSJbakR70K-405" style="edgeStyle=none;rounded=0;orthogonalLoop=1;jettySize=auto;html=1;exitX=0.302;exitY=0.005;exitDx=0;exitDy=0;endArrow=none;endFill=0;exitPerimeter=0;" edge="1" parent="zyauot9mx-XSJbakR70K-1" source="zyauot9mx-XSJbakR70K-406" target="zyauot9mx-XSJbakR70K-403">
          <mxGeometry relative="1" as="geometry" />
        </mxCell>
        <mxCell id="zyauot9mx-XSJbakR70K-406" value="" style="ellipse;whiteSpace=wrap;html=1;aspect=fixed;" vertex="1" parent="zyauot9mx-XSJbakR70K-1">
          <mxGeometry x="452.5" y="380" width="10" height="10" as="geometry" />
        </mxCell>
        <mxCell id="zyauot9mx-XSJbakR70K-407" style="rounded=0;orthogonalLoop=1;jettySize=auto;html=1;exitX=0;exitY=1;exitDx=0;exitDy=0;entryX=0.674;entryY=0.028;entryDx=0;entryDy=0;entryPerimeter=0;endArrow=none;endFill=0;" edge="1" parent="zyauot9mx-XSJbakR70K-1" source="zyauot9mx-XSJbakR70K-408" target="zyauot9mx-XSJbakR70K-398">
          <mxGeometry relative="1" as="geometry" />
        </mxCell>
        <mxCell id="zyauot9mx-XSJbakR70K-408" value="" style="ellipse;whiteSpace=wrap;html=1;aspect=fixed;labelBorderColor=#FF0000;strokeColor=#FF0000;fillColor=#f8cecc;" vertex="1" parent="zyauot9mx-XSJbakR70K-1">
          <mxGeometry x="472.5" y="310" width="10" height="10" as="geometry" />
        </mxCell>
        <mxCell id="zyauot9mx-XSJbakR70K-409" value="Nid" style="text;html=1;strokeColor=none;fillColor=none;align=center;verticalAlign=middle;whiteSpace=wrap;rounded=0;fontColor=#FF0000;" vertex="1" parent="zyauot9mx-XSJbakR70K-1">
          <mxGeometry x="482.5" y="310" width="20" height="10" as="geometry" />
        </mxCell>
        <mxCell id="zyauot9mx-XSJbakR70K-410" value="&lt;font color=&quot;#0000FF&quot;&gt;Sorce&lt;/font&gt;" style="text;html=1;strokeColor=none;fillColor=none;align=center;verticalAlign=middle;whiteSpace=wrap;rounded=0;fontColor=#FF0000;" vertex="1" parent="zyauot9mx-XSJbakR70K-1">
          <mxGeometry x="482.5" y="360" width="20" height="10" as="geometry" />
        </mxCell>
        <mxCell id="zyauot9mx-XSJbakR70K-411" value="B" style="text;html=1;strokeColor=none;fillColor=none;align=center;verticalAlign=middle;whiteSpace=wrap;rounded=0;fontColor=#000000;fontSize=6;fontStyle=1" vertex="1" parent="zyauot9mx-XSJbakR70K-1">
          <mxGeometry x="450" y="322.5" width="35" height="25" as="geometry" />
        </mxCell>
        <mxCell id="zyauot9mx-XSJbakR70K-412" value="D" style="text;html=1;strokeColor=none;fillColor=none;align=center;verticalAlign=middle;whiteSpace=wrap;rounded=0;fontColor=#000000;fontSize=6;fontStyle=1" vertex="1" parent="zyauot9mx-XSJbakR70K-1">
          <mxGeometry x="435" y="352.5" width="35" height="25" as="geometry" />
        </mxCell>
        <mxCell id="zyauot9mx-XSJbakR70K-413" value="" style="shape=umlActor;verticalLabelPosition=bottom;labelBackgroundColor=#ffffff;verticalAlign=top;html=1;outlineConnect=0;strokeColor=#663300;fontColor=#FF0000;" vertex="1" parent="zyauot9mx-XSJbakR70K-1">
          <mxGeometry x="422.5" y="336" width="5" height="5" as="geometry" />
        </mxCell>
        <mxCell id="zyauot9mx-XSJbakR70K-414" value="" style="rounded=0;whiteSpace=wrap;html=1;strokeColor=#663300;fontColor=#FF0000;fillColor=none;" vertex="1" parent="zyauot9mx-XSJbakR70K-1">
          <mxGeometry x="562.5" y="320" width="240" height="40" as="geometry" />
        </mxCell>
        <mxCell id="zyauot9mx-XSJbakR70K-415" value="Nid" style="text;html=1;strokeColor=none;fillColor=none;align=center;verticalAlign=middle;whiteSpace=wrap;rounded=0;fontColor=#FF0000;" vertex="1" parent="zyauot9mx-XSJbakR70K-1">
          <mxGeometry x="572.5" y="335" width="20" height="10" as="geometry" />
        </mxCell>
        <mxCell id="zyauot9mx-XSJbakR70K-416" value="C" style="text;html=1;strokeColor=none;fillColor=none;align=center;verticalAlign=middle;whiteSpace=wrap;rounded=0;fontColor=#000000;fontSize=6;fontStyle=1" vertex="1" parent="zyauot9mx-XSJbakR70K-1">
          <mxGeometry x="410" y="337.5" width="35" height="25" as="geometry" />
        </mxCell>
        <mxCell id="zyauot9mx-XSJbakR70K-417" value="" style="shape=umlActor;verticalLabelPosition=bottom;labelBackgroundColor=#ffffff;verticalAlign=top;html=1;outlineConnect=0;strokeColor=#663300;fontColor=#FF0000;" vertex="1" parent="zyauot9mx-XSJbakR70K-1">
          <mxGeometry x="552.5" y="337.5" width="5" height="5" as="geometry" />
        </mxCell>
        <mxCell id="zyauot9mx-XSJbakR70K-419" style="edgeStyle=none;rounded=0;orthogonalLoop=1;jettySize=auto;html=1;exitX=0;exitY=0.5;exitDx=0;exitDy=0;entryX=1;entryY=0;entryDx=0;entryDy=0;endArrow=none;endFill=0;" edge="1" parent="zyauot9mx-XSJbakR70K-1" source="zyauot9mx-XSJbakR70K-421" target="zyauot9mx-XSJbakR70K-425">
          <mxGeometry relative="1" as="geometry" />
        </mxCell>
        <mxCell id="zyauot9mx-XSJbakR70K-420" style="edgeStyle=none;rounded=0;orthogonalLoop=1;jettySize=auto;html=1;exitX=0.302;exitY=1.028;exitDx=0;exitDy=0;entryX=0.686;entryY=0.144;entryDx=0;entryDy=0;entryPerimeter=0;endArrow=none;endFill=0;exitPerimeter=0;" edge="1" parent="zyauot9mx-XSJbakR70K-1" source="zyauot9mx-XSJbakR70K-421" target="zyauot9mx-XSJbakR70K-426">
          <mxGeometry relative="1" as="geometry" />
        </mxCell>
        <mxCell id="zyauot9mx-XSJbakR70K-421" value="" style="ellipse;whiteSpace=wrap;html=1;aspect=fixed;" vertex="1" parent="zyauot9mx-XSJbakR70K-1">
          <mxGeometry x="462.5" y="430" width="10" height="10" as="geometry" />
        </mxCell>
        <mxCell id="zyauot9mx-XSJbakR70K-422" style="edgeStyle=none;rounded=0;orthogonalLoop=1;jettySize=auto;html=1;exitX=1;exitY=1;exitDx=0;exitDy=0;entryX=0;entryY=0;entryDx=0;entryDy=0;endArrow=none;endFill=0;" edge="1" parent="zyauot9mx-XSJbakR70K-1" source="zyauot9mx-XSJbakR70K-425" target="zyauot9mx-XSJbakR70K-426">
          <mxGeometry relative="1" as="geometry" />
        </mxCell>
        <mxCell id="zyauot9mx-XSJbakR70K-423" style="edgeStyle=none;rounded=0;orthogonalLoop=1;jettySize=auto;html=1;exitX=0.5;exitY=1;exitDx=0;exitDy=0;entryX=0.14;entryY=0.353;entryDx=0;entryDy=0;entryPerimeter=0;endArrow=none;endFill=0;" edge="1" parent="zyauot9mx-XSJbakR70K-1" source="zyauot9mx-XSJbakR70K-425" target="zyauot9mx-XSJbakR70K-429">
          <mxGeometry relative="1" as="geometry" />
        </mxCell>
        <mxCell id="zyauot9mx-XSJbakR70K-424" style="edgeStyle=none;rounded=0;orthogonalLoop=1;jettySize=auto;html=1;exitX=0.5;exitY=0;exitDx=0;exitDy=0;entryX=0;entryY=0.5;entryDx=0;entryDy=0;endArrow=none;endFill=0;" edge="1" parent="zyauot9mx-XSJbakR70K-1" source="zyauot9mx-XSJbakR70K-425" target="zyauot9mx-XSJbakR70K-431">
          <mxGeometry relative="1" as="geometry" />
        </mxCell>
        <mxCell id="zyauot9mx-XSJbakR70K-425" value="" style="ellipse;whiteSpace=wrap;html=1;aspect=fixed;" vertex="1" parent="zyauot9mx-XSJbakR70K-1">
          <mxGeometry x="422.5" y="445" width="10" height="10" as="geometry" />
        </mxCell>
        <mxCell id="zyauot9mx-XSJbakR70K-426" value="" style="ellipse;whiteSpace=wrap;html=1;aspect=fixed;fillColor=#dae8fc;strokeColor=#0000FF;" vertex="1" parent="zyauot9mx-XSJbakR70K-1">
          <mxGeometry x="447.5" y="460" width="10" height="10" as="geometry" />
        </mxCell>
        <mxCell id="zyauot9mx-XSJbakR70K-427" style="edgeStyle=none;rounded=0;orthogonalLoop=1;jettySize=auto;html=1;exitX=0.674;exitY=0.051;exitDx=0;exitDy=0;entryX=0.5;entryY=1;entryDx=0;entryDy=0;endArrow=none;endFill=0;exitPerimeter=0;" edge="1" parent="zyauot9mx-XSJbakR70K-1" source="zyauot9mx-XSJbakR70K-429" target="zyauot9mx-XSJbakR70K-421">
          <mxGeometry relative="1" as="geometry" />
        </mxCell>
        <mxCell id="zyauot9mx-XSJbakR70K-428" style="edgeStyle=none;rounded=0;orthogonalLoop=1;jettySize=auto;html=1;exitX=0.302;exitY=0.005;exitDx=0;exitDy=0;endArrow=none;endFill=0;exitPerimeter=0;" edge="1" parent="zyauot9mx-XSJbakR70K-1" source="zyauot9mx-XSJbakR70K-429" target="zyauot9mx-XSJbakR70K-426">
          <mxGeometry relative="1" as="geometry" />
        </mxCell>
        <mxCell id="zyauot9mx-XSJbakR70K-429" value="" style="ellipse;whiteSpace=wrap;html=1;aspect=fixed;" vertex="1" parent="zyauot9mx-XSJbakR70K-1">
          <mxGeometry x="452.5" y="480" width="10" height="10" as="geometry" />
        </mxCell>
        <mxCell id="zyauot9mx-XSJbakR70K-430" style="rounded=0;orthogonalLoop=1;jettySize=auto;html=1;exitX=0;exitY=1;exitDx=0;exitDy=0;entryX=0.674;entryY=0.028;entryDx=0;entryDy=0;entryPerimeter=0;endArrow=none;endFill=0;" edge="1" parent="zyauot9mx-XSJbakR70K-1" source="zyauot9mx-XSJbakR70K-431" target="zyauot9mx-XSJbakR70K-421">
          <mxGeometry relative="1" as="geometry" />
        </mxCell>
        <mxCell id="zyauot9mx-XSJbakR70K-431" value="" style="ellipse;whiteSpace=wrap;html=1;aspect=fixed;labelBorderColor=#FF0000;strokeColor=#FF0000;fillColor=#f8cecc;" vertex="1" parent="zyauot9mx-XSJbakR70K-1">
          <mxGeometry x="472.5" y="410" width="10" height="10" as="geometry" />
        </mxCell>
        <mxCell id="zyauot9mx-XSJbakR70K-432" value="Nid" style="text;html=1;strokeColor=none;fillColor=none;align=center;verticalAlign=middle;whiteSpace=wrap;rounded=0;fontColor=#FF0000;" vertex="1" parent="zyauot9mx-XSJbakR70K-1">
          <mxGeometry x="482.5" y="410" width="20" height="10" as="geometry" />
        </mxCell>
        <mxCell id="zyauot9mx-XSJbakR70K-433" value="&lt;font color=&quot;#0000FF&quot;&gt;Sorce&lt;/font&gt;" style="text;html=1;strokeColor=none;fillColor=none;align=center;verticalAlign=middle;whiteSpace=wrap;rounded=0;fontColor=#FF0000;" vertex="1" parent="zyauot9mx-XSJbakR70K-1">
          <mxGeometry x="482.5" y="460" width="20" height="10" as="geometry" />
        </mxCell>
        <mxCell id="zyauot9mx-XSJbakR70K-434" value="" style="shape=umlActor;verticalLabelPosition=bottom;labelBackgroundColor=#ffffff;verticalAlign=top;html=1;outlineConnect=0;strokeColor=#663300;fontColor=#FF0000;" vertex="1" parent="zyauot9mx-XSJbakR70K-1">
          <mxGeometry x="440" y="422.5" width="5" height="5" as="geometry" />
        </mxCell>
        <mxCell id="zyauot9mx-XSJbakR70K-435" value="" style="rounded=0;whiteSpace=wrap;html=1;strokeColor=#663300;fontColor=#FF0000;fillColor=none;" vertex="1" parent="zyauot9mx-XSJbakR70K-1">
          <mxGeometry x="562.5" y="420" width="240" height="40" as="geometry" />
        </mxCell>
        <mxCell id="zyauot9mx-XSJbakR70K-436" value="Nid" style="text;html=1;strokeColor=none;fillColor=none;align=center;verticalAlign=middle;whiteSpace=wrap;rounded=0;fontColor=#FF0000;" vertex="1" parent="zyauot9mx-XSJbakR70K-1">
          <mxGeometry x="572.5" y="435" width="20" height="10" as="geometry" />
        </mxCell>
        <mxCell id="zyauot9mx-XSJbakR70K-437" value="B" style="text;html=1;strokeColor=none;fillColor=none;align=center;verticalAlign=middle;whiteSpace=wrap;rounded=0;fontColor=#000000;fontSize=6;fontStyle=1" vertex="1" parent="zyauot9mx-XSJbakR70K-1">
          <mxGeometry x="450" y="422.5" width="35" height="25" as="geometry" />
        </mxCell>
        <mxCell id="zyauot9mx-XSJbakR70K-438" value="D" style="text;html=1;strokeColor=none;fillColor=none;align=center;verticalAlign=middle;whiteSpace=wrap;rounded=0;fontColor=#000000;fontSize=6;fontStyle=1" vertex="1" parent="zyauot9mx-XSJbakR70K-1">
          <mxGeometry x="435" y="452.5" width="35" height="25" as="geometry" />
        </mxCell>
        <mxCell id="zyauot9mx-XSJbakR70K-439" value="" style="shape=umlActor;verticalLabelPosition=bottom;labelBackgroundColor=#ffffff;verticalAlign=top;html=1;outlineConnect=0;strokeColor=#663300;fontColor=#FF0000;" vertex="1" parent="zyauot9mx-XSJbakR70K-1">
          <mxGeometry x="552.5" y="437.5" width="5" height="5" as="geometry" />
        </mxCell>
        <mxCell id="zyauot9mx-XSJbakR70K-462" value="A" style="text;html=1;strokeColor=none;fillColor=none;align=center;verticalAlign=middle;whiteSpace=wrap;rounded=0;fontColor=#000000;fontSize=6;fontStyle=1" vertex="1" parent="zyauot9mx-XSJbakR70K-1">
          <mxGeometry x="460" y="502.5" width="35" height="25" as="geometry" />
        </mxCell>
        <mxCell id="zyauot9mx-XSJbakR70K-463" style="edgeStyle=none;rounded=0;orthogonalLoop=1;jettySize=auto;html=1;exitX=0;exitY=0.5;exitDx=0;exitDy=0;entryX=1;entryY=0;entryDx=0;entryDy=0;endArrow=none;endFill=0;" edge="1" parent="zyauot9mx-XSJbakR70K-1" source="zyauot9mx-XSJbakR70K-465" target="zyauot9mx-XSJbakR70K-469">
          <mxGeometry relative="1" as="geometry" />
        </mxCell>
        <mxCell id="zyauot9mx-XSJbakR70K-464" style="edgeStyle=none;rounded=0;orthogonalLoop=1;jettySize=auto;html=1;exitX=0.302;exitY=1.028;exitDx=0;exitDy=0;entryX=0.686;entryY=0.144;entryDx=0;entryDy=0;entryPerimeter=0;endArrow=none;endFill=0;exitPerimeter=0;" edge="1" parent="zyauot9mx-XSJbakR70K-1" source="zyauot9mx-XSJbakR70K-465" target="zyauot9mx-XSJbakR70K-470">
          <mxGeometry relative="1" as="geometry" />
        </mxCell>
        <mxCell id="zyauot9mx-XSJbakR70K-465" value="" style="ellipse;whiteSpace=wrap;html=1;aspect=fixed;" vertex="1" parent="zyauot9mx-XSJbakR70K-1">
          <mxGeometry x="462.5" y="530" width="10" height="10" as="geometry" />
        </mxCell>
        <mxCell id="zyauot9mx-XSJbakR70K-466" style="edgeStyle=none;rounded=0;orthogonalLoop=1;jettySize=auto;html=1;exitX=1;exitY=1;exitDx=0;exitDy=0;entryX=0;entryY=0;entryDx=0;entryDy=0;endArrow=none;endFill=0;" edge="1" parent="zyauot9mx-XSJbakR70K-1" source="zyauot9mx-XSJbakR70K-469" target="zyauot9mx-XSJbakR70K-470">
          <mxGeometry relative="1" as="geometry" />
        </mxCell>
        <mxCell id="zyauot9mx-XSJbakR70K-467" style="edgeStyle=none;rounded=0;orthogonalLoop=1;jettySize=auto;html=1;exitX=0.5;exitY=1;exitDx=0;exitDy=0;entryX=0.14;entryY=0.353;entryDx=0;entryDy=0;entryPerimeter=0;endArrow=none;endFill=0;" edge="1" parent="zyauot9mx-XSJbakR70K-1" source="zyauot9mx-XSJbakR70K-469" target="zyauot9mx-XSJbakR70K-473">
          <mxGeometry relative="1" as="geometry" />
        </mxCell>
        <mxCell id="zyauot9mx-XSJbakR70K-468" style="edgeStyle=none;rounded=0;orthogonalLoop=1;jettySize=auto;html=1;exitX=0.5;exitY=0;exitDx=0;exitDy=0;entryX=0;entryY=0.5;entryDx=0;entryDy=0;endArrow=none;endFill=0;" edge="1" parent="zyauot9mx-XSJbakR70K-1" source="zyauot9mx-XSJbakR70K-469" target="zyauot9mx-XSJbakR70K-475">
          <mxGeometry relative="1" as="geometry" />
        </mxCell>
        <mxCell id="zyauot9mx-XSJbakR70K-469" value="" style="ellipse;whiteSpace=wrap;html=1;aspect=fixed;" vertex="1" parent="zyauot9mx-XSJbakR70K-1">
          <mxGeometry x="422.5" y="545" width="10" height="10" as="geometry" />
        </mxCell>
        <mxCell id="zyauot9mx-XSJbakR70K-470" value="" style="ellipse;whiteSpace=wrap;html=1;aspect=fixed;fillColor=#dae8fc;strokeColor=#0000FF;" vertex="1" parent="zyauot9mx-XSJbakR70K-1">
          <mxGeometry x="447.5" y="560" width="10" height="10" as="geometry" />
        </mxCell>
        <mxCell id="zyauot9mx-XSJbakR70K-471" style="edgeStyle=none;rounded=0;orthogonalLoop=1;jettySize=auto;html=1;exitX=0.674;exitY=0.051;exitDx=0;exitDy=0;entryX=0.5;entryY=1;entryDx=0;entryDy=0;endArrow=none;endFill=0;exitPerimeter=0;" edge="1" parent="zyauot9mx-XSJbakR70K-1" source="zyauot9mx-XSJbakR70K-473" target="zyauot9mx-XSJbakR70K-465">
          <mxGeometry relative="1" as="geometry" />
        </mxCell>
        <mxCell id="zyauot9mx-XSJbakR70K-472" style="edgeStyle=none;rounded=0;orthogonalLoop=1;jettySize=auto;html=1;exitX=0.302;exitY=0.005;exitDx=0;exitDy=0;endArrow=none;endFill=0;exitPerimeter=0;" edge="1" parent="zyauot9mx-XSJbakR70K-1" source="zyauot9mx-XSJbakR70K-473" target="zyauot9mx-XSJbakR70K-470">
          <mxGeometry relative="1" as="geometry" />
        </mxCell>
        <mxCell id="zyauot9mx-XSJbakR70K-473" value="" style="ellipse;whiteSpace=wrap;html=1;aspect=fixed;" vertex="1" parent="zyauot9mx-XSJbakR70K-1">
          <mxGeometry x="452.5" y="580" width="10" height="10" as="geometry" />
        </mxCell>
        <mxCell id="zyauot9mx-XSJbakR70K-474" style="rounded=0;orthogonalLoop=1;jettySize=auto;html=1;exitX=0;exitY=1;exitDx=0;exitDy=0;entryX=0.674;entryY=0.028;entryDx=0;entryDy=0;entryPerimeter=0;endArrow=none;endFill=0;" edge="1" parent="zyauot9mx-XSJbakR70K-1" source="zyauot9mx-XSJbakR70K-475" target="zyauot9mx-XSJbakR70K-465">
          <mxGeometry relative="1" as="geometry" />
        </mxCell>
        <mxCell id="zyauot9mx-XSJbakR70K-475" value="" style="ellipse;whiteSpace=wrap;html=1;aspect=fixed;labelBorderColor=#FF0000;strokeColor=#FF0000;fillColor=#f8cecc;" vertex="1" parent="zyauot9mx-XSJbakR70K-1">
          <mxGeometry x="472.5" y="510" width="10" height="10" as="geometry" />
        </mxCell>
        <mxCell id="zyauot9mx-XSJbakR70K-476" value="Nid" style="text;html=1;strokeColor=none;fillColor=none;align=center;verticalAlign=middle;whiteSpace=wrap;rounded=0;fontColor=#FF0000;" vertex="1" parent="zyauot9mx-XSJbakR70K-1">
          <mxGeometry x="482.5" y="510" width="20" height="10" as="geometry" />
        </mxCell>
        <mxCell id="zyauot9mx-XSJbakR70K-477" value="&lt;font color=&quot;#0000FF&quot;&gt;Sorce&lt;/font&gt;" style="text;html=1;strokeColor=none;fillColor=none;align=center;verticalAlign=middle;whiteSpace=wrap;rounded=0;fontColor=#FF0000;" vertex="1" parent="zyauot9mx-XSJbakR70K-1">
          <mxGeometry x="482.5" y="560" width="20" height="10" as="geometry" />
        </mxCell>
        <mxCell id="zyauot9mx-XSJbakR70K-478" value="" style="shape=umlActor;verticalLabelPosition=bottom;labelBackgroundColor=#ffffff;verticalAlign=top;html=1;outlineConnect=0;strokeColor=#663300;fontColor=#FF0000;" vertex="1" parent="zyauot9mx-XSJbakR70K-1">
          <mxGeometry x="462.5" y="510" width="5" height="5" as="geometry" />
        </mxCell>
        <mxCell id="zyauot9mx-XSJbakR70K-479" value="" style="rounded=0;whiteSpace=wrap;html=1;strokeColor=#663300;fontColor=#FF0000;fillColor=none;" vertex="1" parent="zyauot9mx-XSJbakR70K-1">
          <mxGeometry x="562.5" y="520" width="240" height="40" as="geometry" />
        </mxCell>
        <mxCell id="zyauot9mx-XSJbakR70K-480" value="Nid" style="text;html=1;strokeColor=none;fillColor=none;align=center;verticalAlign=middle;whiteSpace=wrap;rounded=0;fontColor=#FF0000;" vertex="1" parent="zyauot9mx-XSJbakR70K-1">
          <mxGeometry x="572.5" y="535" width="20" height="10" as="geometry" />
        </mxCell>
        <mxCell id="zyauot9mx-XSJbakR70K-481" value="B" style="text;html=1;strokeColor=none;fillColor=none;align=center;verticalAlign=middle;whiteSpace=wrap;rounded=0;fontColor=#000000;fontSize=6;fontStyle=1" vertex="1" parent="zyauot9mx-XSJbakR70K-1">
          <mxGeometry x="450" y="522.5" width="35" height="25" as="geometry" />
        </mxCell>
        <mxCell id="zyauot9mx-XSJbakR70K-482" value="C" style="text;html=1;strokeColor=none;fillColor=none;align=center;verticalAlign=middle;whiteSpace=wrap;rounded=0;fontColor=#000000;fontSize=6;fontStyle=1" vertex="1" parent="zyauot9mx-XSJbakR70K-1">
          <mxGeometry x="410" y="537.5" width="35" height="25" as="geometry" />
        </mxCell>
        <mxCell id="zyauot9mx-XSJbakR70K-483" value="D" style="text;html=1;strokeColor=none;fillColor=none;align=center;verticalAlign=middle;whiteSpace=wrap;rounded=0;fontColor=#000000;fontSize=6;fontStyle=1" vertex="1" parent="zyauot9mx-XSJbakR70K-1">
          <mxGeometry x="435" y="552.5" width="35" height="25" as="geometry" />
        </mxCell>
        <mxCell id="zyauot9mx-XSJbakR70K-484" value="" style="shape=umlActor;verticalLabelPosition=bottom;labelBackgroundColor=#ffffff;verticalAlign=top;html=1;outlineConnect=0;strokeColor=#663300;fontColor=#FF0000;" vertex="1" parent="zyauot9mx-XSJbakR70K-1">
          <mxGeometry x="552.5" y="537.5" width="5" height="5" as="geometry" />
        </mxCell>
        <mxCell id="zyauot9mx-XSJbakR70K-485" value="&lt;div style=&quot;font-family: &amp;quot;consolas&amp;quot;, &amp;quot;courier new&amp;quot;, monospace; font-weight: normal; font-size: 14px; line-height: 19px; white-space: pre;&quot;&gt;&lt;div&gt;&lt;span style=&quot;&quot;&gt;choixArete&lt;/span&gt;&lt;/div&gt;&lt;/div&gt;" style="text;html=1;strokeColor=none;fillColor=none;align=left;verticalAlign=middle;whiteSpace=wrap;rounded=0;fontColor=#999900;labelBackgroundColor=none;" vertex="1" parent="zyauot9mx-XSJbakR70K-1">
          <mxGeometry x="159" y="62.5" width="20" height="10" as="geometry" />
        </mxCell>
        <mxCell id="zyauot9mx-XSJbakR70K-486" value="&lt;div style=&quot;font-family: &amp;quot;consolas&amp;quot;, &amp;quot;courier new&amp;quot;, monospace; font-weight: normal; font-size: 14px; line-height: 19px; white-space: pre;&quot;&gt;&lt;div&gt;&lt;span style=&quot;&quot;&gt;avancer&lt;/span&gt;&lt;/div&gt;&lt;/div&gt;" style="text;html=1;strokeColor=none;fillColor=none;align=left;verticalAlign=middle;whiteSpace=wrap;rounded=0;fontColor=#999900;labelBackgroundColor=none;" vertex="1" parent="zyauot9mx-XSJbakR70K-1">
          <mxGeometry x="159" y="159.5" width="20" height="10" as="geometry" />
        </mxCell>
        <mxCell id="zyauot9mx-XSJbakR70K-491" value="&lt;div style=&quot;font-family: &amp;quot;consolas&amp;quot;, &amp;quot;courier new&amp;quot;, monospace; font-weight: normal; font-size: 14px; line-height: 19px; white-space: pre;&quot;&gt;&lt;div&gt;&lt;span style=&quot;&quot;&gt;avancer&lt;/span&gt;&lt;/div&gt;&lt;/div&gt;" style="text;html=1;strokeColor=none;fillColor=none;align=left;verticalAlign=middle;whiteSpace=wrap;rounded=0;fontColor=#999900;labelBackgroundColor=none;" vertex="1" parent="zyauot9mx-XSJbakR70K-1">
          <mxGeometry x="159" y="260" width="20" height="10" as="geometry" />
        </mxCell>
        <mxCell id="zyauot9mx-XSJbakR70K-494" value="&lt;div style=&quot;color: rgb(212, 212, 212); font-family: &amp;quot;consolas&amp;quot;, &amp;quot;courier new&amp;quot;, monospace; font-weight: normal; font-size: 14px; line-height: 19px; white-space: pre;&quot;&gt;&lt;div&gt;&lt;span style=&quot;color: #569cd6&quot;&gt;True&lt;/span&gt;&lt;/div&gt;&lt;/div&gt;" style="text;html=1;strokeColor=none;fillColor=none;align=left;verticalAlign=middle;whiteSpace=wrap;rounded=0;fontColor=#999900;labelBackgroundColor=none;" vertex="1" parent="zyauot9mx-XSJbakR70K-1">
          <mxGeometry x="229" y="260" width="20" height="10" as="geometry" />
        </mxCell>
        <mxCell id="zyauot9mx-XSJbakR70K-501" value="&lt;div style=&quot;font-family: &amp;quot;consolas&amp;quot;, &amp;quot;courier new&amp;quot;, monospace; font-weight: normal; font-size: 14px; line-height: 19px; white-space: pre;&quot;&gt;&lt;div&gt;&lt;span style=&quot;&quot;&gt;choixArete&lt;/span&gt;&lt;/div&gt;&lt;/div&gt;" style="text;html=1;strokeColor=none;fillColor=none;align=left;verticalAlign=middle;whiteSpace=wrap;rounded=0;fontColor=#999900;labelBackgroundColor=none;" vertex="1" parent="zyauot9mx-XSJbakR70K-1">
          <mxGeometry x="160" y="275" width="20" height="10" as="geometry" />
        </mxCell>
        <mxCell id="zyauot9mx-XSJbakR70K-504" value="&lt;div style=&quot;font-family: &amp;quot;consolas&amp;quot;, &amp;quot;courier new&amp;quot;, monospace; font-weight: normal; font-size: 14px; line-height: 19px; white-space: pre;&quot;&gt;&lt;div&gt;&lt;span style=&quot;&quot;&gt;avancer&lt;/span&gt;&lt;/div&gt;&lt;/div&gt;" style="text;html=1;strokeColor=none;fillColor=none;align=left;verticalAlign=middle;whiteSpace=wrap;rounded=0;fontColor=#999900;labelBackgroundColor=none;" vertex="1" parent="zyauot9mx-XSJbakR70K-1">
          <mxGeometry x="159" y="362.5" width="20" height="10" as="geometry" />
        </mxCell>
        <mxCell id="zyauot9mx-XSJbakR70K-505" value="&lt;div style=&quot;color: rgb(212 , 212 , 212) ; font-family: &amp;#34;consolas&amp;#34; , &amp;#34;courier new&amp;#34; , monospace ; font-weight: normal ; font-size: 14px ; line-height: 19px ; white-space: pre&quot;&gt;&lt;div&gt;&lt;span style=&quot;color: #569cd6&quot;&gt;False&lt;/span&gt;&lt;/div&gt;&lt;/div&gt;" style="text;html=1;strokeColor=none;fillColor=none;align=left;verticalAlign=middle;whiteSpace=wrap;rounded=0;fontColor=#999900;labelBackgroundColor=none;" vertex="1" parent="zyauot9mx-XSJbakR70K-1">
          <mxGeometry x="229" y="362.5" width="20" height="10" as="geometry" />
        </mxCell>
        <mxCell id="zyauot9mx-XSJbakR70K-506" value="&lt;div style=&quot;color: rgb(212 , 212 , 212) ; font-family: &amp;#34;consolas&amp;#34; , &amp;#34;courier new&amp;#34; , monospace ; font-weight: normal ; font-size: 14px ; line-height: 19px ; white-space: pre&quot;&gt;&lt;div&gt;&lt;span style=&quot;color: #569cd6&quot;&gt;False&lt;/span&gt;&lt;/div&gt;&lt;/div&gt;" style="text;html=1;strokeColor=none;fillColor=none;align=left;verticalAlign=middle;whiteSpace=wrap;rounded=0;fontColor=#999900;labelBackgroundColor=none;" vertex="1" parent="zyauot9mx-XSJbakR70K-1">
          <mxGeometry x="229" y="160" width="20" height="10" as="geometry" />
        </mxCell>
        <mxCell id="zyauot9mx-XSJbakR70K-507" value="&lt;div style=&quot;font-family: &amp;quot;consolas&amp;quot;, &amp;quot;courier new&amp;quot;, monospace; font-weight: normal; font-size: 14px; line-height: 19px; white-space: pre;&quot;&gt;&lt;div&gt;&lt;span style=&quot;&quot;&gt;avancer&lt;/span&gt;&lt;/div&gt;&lt;/div&gt;" style="text;html=1;strokeColor=none;fillColor=none;align=left;verticalAlign=middle;whiteSpace=wrap;rounded=0;fontColor=#999900;labelBackgroundColor=none;" vertex="1" parent="zyauot9mx-XSJbakR70K-1">
          <mxGeometry x="159" y="459.5" width="20" height="10" as="geometry" />
        </mxCell>
        <mxCell id="zyauot9mx-XSJbakR70K-508" value="&lt;div style=&quot;color: rgb(212, 212, 212); font-family: &amp;quot;consolas&amp;quot;, &amp;quot;courier new&amp;quot;, monospace; font-weight: normal; font-size: 14px; line-height: 19px; white-space: pre;&quot;&gt;&lt;div&gt;&lt;span style=&quot;color: #569cd6&quot;&gt;True&lt;/span&gt;&lt;/div&gt;&lt;/div&gt;" style="text;html=1;strokeColor=none;fillColor=none;align=left;verticalAlign=middle;whiteSpace=wrap;rounded=0;fontColor=#999900;labelBackgroundColor=none;" vertex="1" parent="zyauot9mx-XSJbakR70K-1">
          <mxGeometry x="229" y="459.5" width="20" height="10" as="geometry" />
        </mxCell>
        <mxCell id="zyauot9mx-XSJbakR70K-509" value="&lt;div style=&quot;font-family: &amp;quot;consolas&amp;quot;, &amp;quot;courier new&amp;quot;, monospace; font-weight: normal; font-size: 14px; line-height: 19px; white-space: pre;&quot;&gt;&lt;div&gt;&lt;span style=&quot;&quot;&gt;choixArete&lt;/span&gt;&lt;/div&gt;&lt;/div&gt;" style="text;html=1;strokeColor=none;fillColor=none;align=left;verticalAlign=middle;whiteSpace=wrap;rounded=0;fontColor=#999900;labelBackgroundColor=none;" vertex="1" parent="zyauot9mx-XSJbakR70K-1">
          <mxGeometry x="160" y="474.5" width="20" height="10" as="geometry" />
        </mxCell>
        <mxCell id="zyauot9mx-XSJbakR70K-514" value="&lt;div style=&quot;font-family: &amp;quot;consolas&amp;quot;, &amp;quot;courier new&amp;quot;, monospace; font-weight: normal; font-size: 14px; line-height: 19px; white-space: pre;&quot;&gt;&lt;div&gt;&lt;span style=&quot;&quot;&gt;avancer&lt;/span&gt;&lt;/div&gt;&lt;/div&gt;" style="text;html=1;strokeColor=none;fillColor=none;align=left;verticalAlign=middle;whiteSpace=wrap;rounded=0;fontColor=#999900;labelBackgroundColor=none;" vertex="1" parent="zyauot9mx-XSJbakR70K-1">
          <mxGeometry x="160" y="562.5" width="20" height="10" as="geometry" />
        </mxCell>
        <mxCell id="zyauot9mx-XSJbakR70K-515" value="&lt;div style=&quot;color: rgb(212 , 212 , 212) ; font-family: &amp;#34;consolas&amp;#34; , &amp;#34;courier new&amp;#34; , monospace ; font-weight: normal ; font-size: 14px ; line-height: 19px ; white-space: pre&quot;&gt;&lt;div&gt;&lt;span style=&quot;color: #569cd6&quot;&gt;False&lt;/span&gt;&lt;/div&gt;&lt;/div&gt;" style="text;html=1;strokeColor=none;fillColor=none;align=left;verticalAlign=middle;whiteSpace=wrap;rounded=0;fontColor=#999900;labelBackgroundColor=none;" vertex="1" parent="zyauot9mx-XSJbakR70K-1">
          <mxGeometry x="230" y="562.5" width="20" height="10" as="geometry" />
        </mxCell>
        <mxCell id="zyauot9mx-XSJbakR70K-516" value="&lt;div style=&quot;font-family: &amp;quot;consolas&amp;quot;, &amp;quot;courier new&amp;quot;, monospace; font-weight: normal; font-size: 14px; line-height: 19px; white-space: pre;&quot;&gt;&lt;div&gt;&lt;span style=&quot;&quot;&gt;avancer&lt;/span&gt;&lt;/div&gt;&lt;/div&gt;" style="text;html=1;strokeColor=none;fillColor=none;align=left;verticalAlign=middle;whiteSpace=wrap;rounded=0;fontColor=#999900;labelBackgroundColor=none;" vertex="1" parent="zyauot9mx-XSJbakR70K-1">
          <mxGeometry x="159" y="660" width="20" height="10" as="geometry" />
        </mxCell>
        <mxCell id="zyauot9mx-XSJbakR70K-517" value="&lt;div style=&quot;color: rgb(212, 212, 212); font-family: &amp;quot;consolas&amp;quot;, &amp;quot;courier new&amp;quot;, monospace; font-weight: normal; font-size: 14px; line-height: 19px; white-space: pre;&quot;&gt;&lt;div&gt;&lt;span style=&quot;color: #569cd6&quot;&gt;True&lt;/span&gt;&lt;/div&gt;&lt;/div&gt;" style="text;html=1;strokeColor=none;fillColor=none;align=left;verticalAlign=middle;whiteSpace=wrap;rounded=0;fontColor=#999900;labelBackgroundColor=none;" vertex="1" parent="zyauot9mx-XSJbakR70K-1">
          <mxGeometry x="229" y="660" width="20" height="10" as="geometry" />
        </mxCell>
        <mxCell id="zyauot9mx-XSJbakR70K-518" value="&lt;div style=&quot;font-family: &amp;#34;consolas&amp;#34; , &amp;#34;courier new&amp;#34; , monospace ; font-weight: normal ; font-size: 14px ; line-height: 19px ; white-space: pre&quot;&gt;&lt;div&gt;&lt;span&gt;&lt;/span&gt;&lt;span&gt;prendreFood&lt;/span&gt;&lt;/div&gt;&lt;/div&gt;" style="text;html=1;strokeColor=none;fillColor=none;align=left;verticalAlign=middle;whiteSpace=wrap;rounded=0;fontColor=#999900;labelBackgroundColor=none;" vertex="1" parent="zyauot9mx-XSJbakR70K-1">
          <mxGeometry x="160" y="675" width="20" height="10" as="geometry" />
        </mxCell>
        <mxCell id="zyauot9mx-XSJbakR70K-529" value="__porteFood = True" style="text;html=1;fontSize=12;fontColor=#999900;" vertex="1" parent="zyauot9mx-XSJbakR70K-1">
          <mxGeometry x="270" y="665" width="130" height="30" as="geometry" />
        </mxCell>
        <mxCell id="zyauot9mx-XSJbakR70K-530" value="&lt;div style=&quot;font-family: &amp;quot;consolas&amp;quot;, &amp;quot;courier new&amp;quot;, monospace; font-weight: normal; font-size: 14px; line-height: 19px; white-space: pre;&quot;&gt;&lt;div&gt;&lt;span style=&quot;&quot;&gt;choixArete&lt;/span&gt;&lt;/div&gt;&lt;/div&gt;" style="text;html=1;strokeColor=none;fillColor=none;align=left;verticalAlign=middle;whiteSpace=wrap;rounded=0;fontColor=#999900;labelBackgroundColor=none;" vertex="1" parent="zyauot9mx-XSJbakR70K-1">
          <mxGeometry x="160" y="690" width="20" height="10" as="geometry" />
        </mxCell>
        <mxCell id="zyauot9mx-XSJbakR70K-531" value="__routeActuel = None" style="text;html=1;fontSize=12;fontColor=#999900;" vertex="1" parent="zyauot9mx-XSJbakR70K-1">
          <mxGeometry x="260" y="60" width="140" height="30" as="geometry" />
        </mxCell>
        <mxCell id="zyauot9mx-XSJbakR70K-532" value="__routeActuel&amp;nbsp;= (A,C)" style="text;html=1;fontSize=12;fontColor=#999900;" vertex="1" parent="zyauot9mx-XSJbakR70K-1">
          <mxGeometry x="280" y="150" width="140" height="30" as="geometry" />
        </mxCell>
        <mxCell id="zyauot9mx-XSJbakR70K-533" value="__routeActuel&amp;nbsp;= (C,B)" style="text;html=1;fontSize=12;fontColor=#999900;" vertex="1" parent="zyauot9mx-XSJbakR70K-1">
          <mxGeometry x="280" y="267.5" width="140" height="30" as="geometry" />
        </mxCell>
        <mxCell id="zyauot9mx-XSJbakR70K-534" value="__routeActuel&amp;nbsp;= (C,B)" style="text;html=1;fontSize=12;fontColor=#999900;" vertex="1" parent="zyauot9mx-XSJbakR70K-1">
          <mxGeometry x="280" y="367.5" width="140" height="30" as="geometry" />
        </mxCell>
        <mxCell id="zyauot9mx-XSJbakR70K-535" value="__routeActuel&amp;nbsp;= (B,D)" style="text;html=1;fontSize=12;fontColor=#999900;" vertex="1" parent="zyauot9mx-XSJbakR70K-1">
          <mxGeometry x="280" y="472.5" width="140" height="30" as="geometry" />
        </mxCell>
        <mxCell id="zyauot9mx-XSJbakR70K-536" value="__routeActuel&amp;nbsp;= (B,D)" style="text;html=1;fontSize=12;fontColor=#999900;" vertex="1" parent="zyauot9mx-XSJbakR70K-1">
          <mxGeometry x="280" y="567.5" width="140" height="30" as="geometry" />
        </mxCell>
        <mxCell id="zyauot9mx-XSJbakR70K-537" value="__routeActuel&amp;nbsp;= (D,B)" style="text;html=1;fontSize=12;fontColor=#999900;" vertex="1" parent="zyauot9mx-XSJbakR70K-1">
          <mxGeometry x="280" y="695" width="140" height="30" as="geometry" />
        </mxCell>
        <mxCell id="zyauot9mx-XSJbakR70K-538" value="&lt;div style=&quot;font-family: &amp;quot;consolas&amp;quot;, &amp;quot;courier new&amp;quot;, monospace; font-weight: normal; font-size: 14px; line-height: 19px; white-space: pre;&quot;&gt;&lt;div&gt;&lt;span style=&quot;&quot;&gt;avancer&lt;/span&gt;&lt;/div&gt;&lt;/div&gt;" style="text;html=1;strokeColor=none;fillColor=none;align=left;verticalAlign=middle;whiteSpace=wrap;rounded=0;fontColor=#999900;labelBackgroundColor=none;" vertex="1" parent="zyauot9mx-XSJbakR70K-1">
          <mxGeometry x="562.5" y="67.5" width="20" height="10" as="geometry" />
        </mxCell>
        <mxCell id="zyauot9mx-XSJbakR70K-539" value="&lt;div style=&quot;color: rgb(212 , 212 , 212) ; font-family: &amp;#34;consolas&amp;#34; , &amp;#34;courier new&amp;#34; , monospace ; font-weight: normal ; font-size: 14px ; line-height: 19px ; white-space: pre&quot;&gt;&lt;div&gt;&lt;span style=&quot;color: #569cd6&quot;&gt;False&lt;/span&gt;&lt;/div&gt;&lt;/div&gt;" style="text;html=1;strokeColor=none;fillColor=none;align=left;verticalAlign=middle;whiteSpace=wrap;rounded=0;fontColor=#999900;labelBackgroundColor=none;" vertex="1" parent="zyauot9mx-XSJbakR70K-1">
          <mxGeometry x="632.5" y="67.5" width="20" height="10" as="geometry" />
        </mxCell>
        <mxCell id="zyauot9mx-XSJbakR70K-540" value="__routeActuel&amp;nbsp;= (D,B)" style="text;html=1;fontSize=12;fontColor=#999900;" vertex="1" parent="zyauot9mx-XSJbakR70K-1">
          <mxGeometry x="682.5" y="72.5" width="140" height="30" as="geometry" />
        </mxCell>
        <mxCell id="zyauot9mx-XSJbakR70K-541" value="&lt;div style=&quot;font-family: &amp;quot;consolas&amp;quot;, &amp;quot;courier new&amp;quot;, monospace; font-weight: normal; font-size: 14px; line-height: 19px; white-space: pre;&quot;&gt;&lt;div&gt;&lt;span style=&quot;&quot;&gt;avancer&lt;/span&gt;&lt;/div&gt;&lt;/div&gt;" style="text;html=1;strokeColor=none;fillColor=none;align=left;verticalAlign=middle;whiteSpace=wrap;rounded=0;fontColor=#999900;labelBackgroundColor=none;" vertex="1" parent="zyauot9mx-XSJbakR70K-1">
          <mxGeometry x="561.5" y="160" width="20" height="10" as="geometry" />
        </mxCell>
        <mxCell id="zyauot9mx-XSJbakR70K-542" value="&lt;div style=&quot;color: rgb(212, 212, 212); font-family: &amp;quot;consolas&amp;quot;, &amp;quot;courier new&amp;quot;, monospace; font-weight: normal; font-size: 14px; line-height: 19px; white-space: pre;&quot;&gt;&lt;div&gt;&lt;span style=&quot;color: #569cd6&quot;&gt;True&lt;/span&gt;&lt;/div&gt;&lt;/div&gt;" style="text;html=1;strokeColor=none;fillColor=none;align=left;verticalAlign=middle;whiteSpace=wrap;rounded=0;fontColor=#999900;labelBackgroundColor=none;" vertex="1" parent="zyauot9mx-XSJbakR70K-1">
          <mxGeometry x="631.5" y="160" width="20" height="10" as="geometry" />
        </mxCell>
        <mxCell id="zyauot9mx-XSJbakR70K-543" value="&lt;div style=&quot;font-family: &amp;quot;consolas&amp;quot;, &amp;quot;courier new&amp;quot;, monospace; font-weight: normal; font-size: 14px; line-height: 19px; white-space: pre;&quot;&gt;&lt;div&gt;&lt;span style=&quot;&quot;&gt;choixArete&lt;/span&gt;&lt;/div&gt;&lt;/div&gt;" style="text;html=1;strokeColor=none;fillColor=none;align=left;verticalAlign=middle;whiteSpace=wrap;rounded=0;fontColor=#999900;labelBackgroundColor=none;" vertex="1" parent="zyauot9mx-XSJbakR70K-1">
          <mxGeometry x="562.5" y="175" width="20" height="10" as="geometry" />
        </mxCell>
        <mxCell id="zyauot9mx-XSJbakR70K-544" value="__routeActuel&amp;nbsp;= (B,C)" style="text;html=1;fontSize=12;fontColor=#999900;" vertex="1" parent="zyauot9mx-XSJbakR70K-1">
          <mxGeometry x="682.5" y="270" width="140" height="30" as="geometry" />
        </mxCell>
        <mxCell id="zyauot9mx-XSJbakR70K-545" value="&lt;div style=&quot;font-family: &amp;quot;consolas&amp;quot;, &amp;quot;courier new&amp;quot;, monospace; font-weight: normal; font-size: 14px; line-height: 19px; white-space: pre;&quot;&gt;&lt;div&gt;&lt;span style=&quot;&quot;&gt;avancer&lt;/span&gt;&lt;/div&gt;&lt;/div&gt;" style="text;html=1;strokeColor=none;fillColor=none;align=left;verticalAlign=middle;whiteSpace=wrap;rounded=0;fontColor=#999900;labelBackgroundColor=none;" vertex="1" parent="zyauot9mx-XSJbakR70K-1">
          <mxGeometry x="561.5" y="262.5" width="20" height="10" as="geometry" />
        </mxCell>
        <mxCell id="zyauot9mx-XSJbakR70K-546" value="&lt;div style=&quot;color: rgb(212 , 212 , 212) ; font-family: &amp;#34;consolas&amp;#34; , &amp;#34;courier new&amp;#34; , monospace ; font-weight: normal ; font-size: 14px ; line-height: 19px ; white-space: pre&quot;&gt;&lt;div&gt;&lt;span style=&quot;color: #569cd6&quot;&gt;False&lt;/span&gt;&lt;/div&gt;&lt;/div&gt;" style="text;html=1;strokeColor=none;fillColor=none;align=left;verticalAlign=middle;whiteSpace=wrap;rounded=0;fontColor=#999900;labelBackgroundColor=none;" vertex="1" parent="zyauot9mx-XSJbakR70K-1">
          <mxGeometry x="631.5" y="262.5" width="20" height="10" as="geometry" />
        </mxCell>
        <mxCell id="zyauot9mx-XSJbakR70K-547" value="__routeActuel&amp;nbsp;= (B,C)" style="text;html=1;fontSize=12;fontColor=#999900;" vertex="1" parent="zyauot9mx-XSJbakR70K-1">
          <mxGeometry x="682.5" y="180" width="140" height="30" as="geometry" />
        </mxCell>
        <mxCell id="zyauot9mx-XSJbakR70K-549" value="&lt;div style=&quot;font-family: &amp;quot;consolas&amp;quot;, &amp;quot;courier new&amp;quot;, monospace; font-weight: normal; font-size: 14px; line-height: 19px; white-space: pre;&quot;&gt;&lt;div&gt;&lt;span style=&quot;&quot;&gt;avancer&lt;/span&gt;&lt;/div&gt;&lt;/div&gt;" style="text;html=1;strokeColor=none;fillColor=none;align=left;verticalAlign=middle;whiteSpace=wrap;rounded=0;fontColor=#999900;labelBackgroundColor=none;" vertex="1" parent="zyauot9mx-XSJbakR70K-1">
          <mxGeometry x="561.5" y="360" width="20" height="10" as="geometry" />
        </mxCell>
        <mxCell id="zyauot9mx-XSJbakR70K-550" value="&lt;div style=&quot;color: rgb(212, 212, 212); font-family: &amp;quot;consolas&amp;quot;, &amp;quot;courier new&amp;quot;, monospace; font-weight: normal; font-size: 14px; line-height: 19px; white-space: pre;&quot;&gt;&lt;div&gt;&lt;span style=&quot;color: #569cd6&quot;&gt;True&lt;/span&gt;&lt;/div&gt;&lt;/div&gt;" style="text;html=1;strokeColor=none;fillColor=none;align=left;verticalAlign=middle;whiteSpace=wrap;rounded=0;fontColor=#999900;labelBackgroundColor=none;" vertex="1" parent="zyauot9mx-XSJbakR70K-1">
          <mxGeometry x="631.5" y="360" width="20" height="10" as="geometry" />
        </mxCell>
        <mxCell id="zyauot9mx-XSJbakR70K-551" value="&lt;div style=&quot;font-family: &amp;quot;consolas&amp;quot;, &amp;quot;courier new&amp;quot;, monospace; font-weight: normal; font-size: 14px; line-height: 19px; white-space: pre;&quot;&gt;&lt;div&gt;&lt;span style=&quot;&quot;&gt;choixArete&lt;/span&gt;&lt;/div&gt;&lt;/div&gt;" style="text;html=1;strokeColor=none;fillColor=none;align=left;verticalAlign=middle;whiteSpace=wrap;rounded=0;fontColor=#999900;labelBackgroundColor=none;" vertex="1" parent="zyauot9mx-XSJbakR70K-1">
          <mxGeometry x="562.5" y="375" width="20" height="10" as="geometry" />
        </mxCell>
        <mxCell id="zyauot9mx-XSJbakR70K-552" value="__routeActuel&amp;nbsp;= (C,A)" style="text;html=1;fontSize=12;fontColor=#999900;" vertex="1" parent="zyauot9mx-XSJbakR70K-1">
          <mxGeometry x="682.5" y="380" width="140" height="30" as="geometry" />
        </mxCell>
        <mxCell id="zyauot9mx-XSJbakR70K-553" value="&lt;div style=&quot;font-family: &amp;quot;consolas&amp;quot;, &amp;quot;courier new&amp;quot;, monospace; font-weight: normal; font-size: 14px; line-height: 19px; white-space: pre;&quot;&gt;&lt;div&gt;&lt;span style=&quot;&quot;&gt;avancer&lt;/span&gt;&lt;/div&gt;&lt;/div&gt;" style="text;html=1;strokeColor=none;fillColor=none;align=left;verticalAlign=middle;whiteSpace=wrap;rounded=0;fontColor=#999900;labelBackgroundColor=none;" vertex="1" parent="zyauot9mx-XSJbakR70K-1">
          <mxGeometry x="561.5" y="462.5" width="20" height="10" as="geometry" />
        </mxCell>
        <mxCell id="zyauot9mx-XSJbakR70K-554" value="&lt;div style=&quot;color: rgb(212 , 212 , 212) ; font-family: &amp;#34;consolas&amp;#34; , &amp;#34;courier new&amp;#34; , monospace ; font-weight: normal ; font-size: 14px ; line-height: 19px ; white-space: pre&quot;&gt;&lt;div&gt;&lt;span style=&quot;color: #569cd6&quot;&gt;False&lt;/span&gt;&lt;/div&gt;&lt;/div&gt;" style="text;html=1;strokeColor=none;fillColor=none;align=left;verticalAlign=middle;whiteSpace=wrap;rounded=0;fontColor=#999900;labelBackgroundColor=none;" vertex="1" parent="zyauot9mx-XSJbakR70K-1">
          <mxGeometry x="631.5" y="462.5" width="20" height="10" as="geometry" />
        </mxCell>
        <mxCell id="zyauot9mx-XSJbakR70K-555" value="__routeActuel&amp;nbsp;= (C,A)" style="text;html=1;fontSize=12;fontColor=#999900;" vertex="1" parent="zyauot9mx-XSJbakR70K-1">
          <mxGeometry x="682.5" y="477.5" width="140" height="30" as="geometry" />
        </mxCell>
        <mxCell id="zyauot9mx-XSJbakR70K-556" value="&lt;div style=&quot;font-family: &amp;quot;consolas&amp;quot;, &amp;quot;courier new&amp;quot;, monospace; font-weight: normal; font-size: 14px; line-height: 19px; white-space: pre;&quot;&gt;&lt;div&gt;&lt;span style=&quot;&quot;&gt;avancer&lt;/span&gt;&lt;/div&gt;&lt;/div&gt;" style="text;html=1;strokeColor=none;fillColor=none;align=left;verticalAlign=middle;whiteSpace=wrap;rounded=0;fontColor=#999900;labelBackgroundColor=none;" vertex="1" parent="zyauot9mx-XSJbakR70K-1">
          <mxGeometry x="571.5" y="561" width="20" height="10" as="geometry" />
        </mxCell>
        <mxCell id="zyauot9mx-XSJbakR70K-557" value="&lt;div style=&quot;color: rgb(212, 212, 212); font-family: &amp;quot;consolas&amp;quot;, &amp;quot;courier new&amp;quot;, monospace; font-weight: normal; font-size: 14px; line-height: 19px; white-space: pre;&quot;&gt;&lt;div&gt;&lt;span style=&quot;color: #569cd6&quot;&gt;True&lt;/span&gt;&lt;/div&gt;&lt;/div&gt;" style="text;html=1;strokeColor=none;fillColor=none;align=left;verticalAlign=middle;whiteSpace=wrap;rounded=0;fontColor=#999900;labelBackgroundColor=none;" vertex="1" parent="zyauot9mx-XSJbakR70K-1">
          <mxGeometry x="641.5" y="561" width="20" height="10" as="geometry" />
        </mxCell>
        <mxCell id="zyauot9mx-XSJbakR70K-562" value="&lt;div style=&quot;font-family: &amp;#34;consolas&amp;#34; , &amp;#34;courier new&amp;#34; , monospace ; font-weight: normal ; font-size: 14px ; line-height: 19px ; white-space: pre&quot;&gt;&lt;div&gt;&lt;span&gt;&lt;/span&gt;&lt;span&gt;deposerFood&lt;/span&gt;&lt;/div&gt;&lt;/div&gt;" style="text;html=1;strokeColor=none;fillColor=none;align=left;verticalAlign=middle;whiteSpace=wrap;rounded=0;fontColor=#999900;labelBackgroundColor=none;" vertex="1" parent="zyauot9mx-XSJbakR70K-1">
          <mxGeometry x="572.5" y="572.5" width="20" height="10" as="geometry" />
        </mxCell>
        <mxCell id="zyauot9mx-XSJbakR70K-565" value="&lt;div style=&quot;font-family: &amp;quot;consolas&amp;quot;, &amp;quot;courier new&amp;quot;, monospace; font-weight: normal; font-size: 14px; line-height: 19px; white-space: pre;&quot;&gt;&lt;div&gt;&lt;span style=&quot;&quot;&gt;choixArete&lt;/span&gt;&lt;/div&gt;&lt;/div&gt;" style="text;html=1;strokeColor=none;fillColor=none;align=left;verticalAlign=middle;whiteSpace=wrap;rounded=0;fontColor=#999900;labelBackgroundColor=none;" vertex="1" parent="zyauot9mx-XSJbakR70K-1">
          <mxGeometry x="572.5" y="590" width="20" height="10" as="geometry" />
        </mxCell>
        <mxCell id="zyauot9mx-XSJbakR70K-568" value="__porteFood&amp;nbsp;= False" style="text;html=1;fontSize=12;fontColor=#999900;" vertex="1" parent="zyauot9mx-XSJbakR70K-1">
          <mxGeometry x="672.5" y="562.5" width="130" height="30" as="geometry" />
        </mxCell>
        <mxCell id="zyauot9mx-XSJbakR70K-569" value="__routeActuel = None" style="text;html=1;fontSize=12;fontColor=#999900;" vertex="1" parent="zyauot9mx-XSJbakR70K-1">
          <mxGeometry x="672.5" y="580" width="140" height="30" as="geometry" />
        </mxCell>
      </root>
    </mxGraphModel>
  </diagram>
</mxfile>
